<?xml version="1.0" standalone="no"?>
<!DOCTYPE svg PUBLIC "-//W3C//DTD SVG 1.1//EN" "http://www.w3.org/Graphics/SVG/1.1/DTD/svg11.dtd" >
<svg>
<metadata>
Created by FontForge 20090914 at Sat Mar 18 00:32:38 2017
 By www-data
Copyright (c) 2012 by Glenjan. All rights reserved.
</metadata>
<defs>
<font id="IdealistSansSC" horiz-adv-x="590" >
  <font-face 
    font-family="Idealist Sans SC"
    font-weight="400"
    font-stretch="normal"
    units-per-em="1000"
    panose-1="2 0 0 0 0 0 0 0 0 0"
    ascent="750"
    descent="-250"
    x-height="560"
    cap-height="650"
    bbox="-79.002 -274.001 6315 1009"
    underline-thickness="50"
    underline-position="-50"
    unicode-range="U+0020-U+25CA"
  />
<missing-glyph horiz-adv-x="510" 
d="M433 400l-328 -284l109 190l-109 94h328z" />
    <glyph glyph-name=".notdef" horiz-adv-x="510" 
d="M433 400l-328 -284l109 190l-109 94h328z" />
    <glyph glyph-name="space" unicode=" " horiz-adv-x="286" 
 />
    <glyph glyph-name="exclam" unicode="!" horiz-adv-x="225" 
d="M160 679l-13 -509h-69l-13 509h95zM112 121c21.333 0 37.833 -6.33301 49.5 -19s17.5 -28.334 17.5 -47.001c0 -19.333 -5.83301 -34.666 -17.5 -45.999s-28.167 -17 -49.5 -17s-37.666 5.66699 -48.999 17s-17 26.666 -17 45.999c0 18.667 5.66699 34.334 17 47.001
s27.666 19 48.999 19z" />
    <glyph glyph-name="quotedbl" unicode="&#x22;" horiz-adv-x="298" 
d="M45 650h86l-20 -183l-65 6zM167 650h86l-20 -193l-65 6z" />
    <glyph glyph-name="numbersign" unicode="#" horiz-adv-x="524" 
d="M238 524l-10 -99h77l11 105l72 -6l-10 -99h106l-3 -65h-109l-7 -73h110l-3 -64h-112l-11 -97l-71 5l9 92h-76l-11 -97l-72 5l9 92h-97l3 64h100l8 73h-102l3 65h103l12 105zM216 287h77l7 73h-77z" />
    <glyph glyph-name="dollar" unicode="$" horiz-adv-x="543" 
d="M316 673l0.00195312 -68.001c26 -2.66699 50 -7.66699 72 -15s44.667 -18.666 68 -33.999l-37 -69c-25.333 16 -50.5 27.5 -75.5 34.5s-52.5 10.5 -82.5 10.5c-22.667 0 -41 -2.16699 -55 -6.5s-25 -10.166 -33 -17.499s-13.333 -15.666 -16 -24.999s-4 -19 -4 -29
c0 -21.333 7 -37.833 21 -49.5s33 -21.167 57 -28.5l90 -27c50.667 -15.333 91.667 -38 123 -68s47 -69.667 47 -119c0 -44.667 -15 -82.334 -45 -113.001s-73.333 -50 -130 -58v-74h-85v71c-35.333 1.33301 -67.833 6 -97.5 14s-59.834 20.667 -90.501 38l25 79
c34.667 -19.333 67.167 -32.5 97.5 -39.5s61.5 -10.5 93.5 -10.5c51.333 0 87.666 7.5 108.999 22.5s32 36.5 32 64.5c0 16 -2 29.667 -6 41s-10.5 21.166 -19.5 29.499s-20.5 15.5 -34.5 21.5s-30.667 11.667 -50 17l-97 27c-40 11.333 -71.5 31 -94.5 59
s-34.5 61.667 -34.5 101c0 44 14.333 79.5 43 106.5s70 42.833 124 47.5v67h85z" />
    <glyph glyph-name="uni0025" unicode="%" horiz-adv-x="717" 
d="M557 474l-348 -496l-57 37l349 497zM179 231c-20 0 -39.167 3.5 -57.5 10.5s-34.166 16.667 -47.499 29s-24 27 -32 44s-12 35.5 -12 55.5s3.83301 38.5 11.5 55.5s18.167 31.833 31.5 44.5s29 22.5 47 29.5s37.667 10.5 59 10.5c20 0 39.167 -3.66699 57.5 -11
s34.166 -17.333 47.499 -30s24 -27.5 32 -44.5s12 -35.167 12 -54.5c0 -20 -4 -38.5 -12 -55.5s-18.833 -31.667 -32.5 -44s-29.5 -22 -47.5 -29s-37 -10.5 -57 -10.5zM179 294c21.333 0 39.666 6.66699 54.999 20s23 32 23 56c0 23.333 -7.16699 42 -21.5 56
s-33.166 21 -56.499 21c-24.667 0 -44 -7.16699 -58 -21.5s-21 -32.833 -21 -55.5s7.33301 -41 22 -55s33.667 -21 57 -21zM538 -10c-20 0 -39.167 3.5 -57.5 10.5s-34.166 16.667 -47.499 29s-24 27 -32 44s-12 35.5 -12 55.5s3.83301 38.5 11.5 55.5
s18.167 31.833 31.5 44.5s29 22.5 47 29.5s37.667 10.5 59 10.5c20 0 39.167 -3.66699 57.5 -11s34.166 -17.333 47.499 -30s24 -27.5 32 -44.5s12 -35.167 12 -54.5c0 -20 -4 -38.5 -12 -55.5s-18.833 -31.667 -32.5 -44s-29.5 -22 -47.5 -29s-37 -10.5 -57 -10.5zM538 53
c21.333 0 39.666 6.66699 54.999 20s23 32 23 56c0 23.333 -7.16699 42 -21.5 56s-33.166 21 -56.499 21c-24.667 0 -44 -7.16699 -58 -21.5s-21 -32.833 -21 -55.5s7.33301 -41 22 -55s33.667 -21 57 -21z" />
    <glyph glyph-name="ampersand" unicode="&#x26;" horiz-adv-x="714" 
d="M658 431l5 -70.999h-51c0 -26 -1 -49.333 -3 -70s-5 -39.834 -9 -57.501s-9.33301 -34.667 -16 -51s-15 -32.833 -25 -49.5c38.667 -34.667 80.667 -55 126 -61l-26 -79c-18 2.66699 -33.833 5.83398 -47.5 9.50098s-26.334 8.33398 -38.001 14.001
s-22.834 12.334 -33.501 20.001s-22 17.167 -34 28.5c-31.333 -27.333 -63.333 -47 -96 -59s-71 -18 -115 -18c-36 0 -69.667 5 -101 15s-58.333 24.167 -81 42.5s-40.5 40.666 -53.5 66.999s-19.5 55.833 -19.5 88.5c0 40 10.833 75.333 32.5 106s49.5 54.667 83.5 72
c-34.667 28.667 -52 67 -52 115c0 20 5 38.667 15 56s24.167 32.333 42.5 45s40 22.667 65 30s52.5 11 82.5 11c34 0 66.667 -3.83301 98 -11.5s63 -21.167 95 -40.5l-39 -69c-44 30.667 -95.333 46 -154 46c-39.333 0 -68.666 -6.5 -87.999 -19.5s-29 -30.167 -29 -51.5
c0 -26 10.667 -48.667 32 -68l267 -237c6.66699 14 12.334 27.333 17.001 40s8.16699 25.667 10.5 39s4 27.166 5 41.499s1.5 30.166 1.5 47.499l-90 15l6 64h217zM205 328.001c-49.333 -24 -74 -64.668 -74 -122.001c0 -21.333 4.16699 -40.666 12.5 -57.999
s19.666 -32.5 33.999 -45.5s31.166 -23 50.499 -30s40.333 -10.5 63 -10.5c34.667 0 63.834 4.33301 87.501 13s45.834 22.667 66.501 42z" />
    <glyph glyph-name="quotesingle" unicode="'" horiz-adv-x="174" 
d="M45 650h89l-20 -193l-68 6z" />
    <glyph glyph-name="parenleft" unicode="(" horiz-adv-x="247" 
d="M217 675c-28 -57.333 -48.833 -115.331 -62.5 -173.998s-20.5 -121.334 -20.5 -188.001s6.83301 -129.334 20.5 -188.001s34.5 -116.667 62.5 -174l-68 -33c-36 50 -63.167 108.667 -81.5 176s-27.5 140.333 -27.5 219s9.16699 151.667 27.5 219s45.5 126 81.5 176z" />
    <glyph glyph-name="parenright" unicode=")" horiz-adv-x="247" 
d="M98 708c36 -50 63.167 -108.669 81.5 -176.002s27.5 -140.333 27.5 -219s-9.16699 -151.667 -27.5 -219s-45.5 -126 -81.5 -176l-68 33c28 57.333 48.833 115.333 62.5 174s20.5 121.334 20.5 188.001s-6.83301 129.334 -20.5 188.001s-34.5 116.667 -62.5 174z" />
    <glyph glyph-name="asterisk" unicode="*" horiz-adv-x="309" 
d="M186 670c9.33301 -2 19 -5.66602 29 -10.999s18.667 -12.333 26 -21l-42 -70l81 -12c0 -10.667 -1.33301 -21.334 -4 -32.001s-6.66699 -19.667 -12 -27l-73 14l10 -84c-5.33301 -2 -11.333 -3.5 -18 -4.5s-13 -1.5 -19 -1.5c-9.33301 0 -17.333 1 -24 3l-10 82l-75 -39
c-8.66699 11.333 -14.667 22 -18 32s-5 18.667 -5 26l71 31l-59 59c9.33301 16 25 29 47 39l56 -58z" />
    <glyph glyph-name="plus" unicode="+" horiz-adv-x="422" 
d="M252 497v-130h130v-76h-130v-130h-82v130h-130v76h130v130h82z" />
    <glyph glyph-name="comma" unicode="," horiz-adv-x="231" 
d="M42 -70c20.667 8 36.666 17.8301 47.999 29.4971s17 25.167 17 40.5c-20 0 -34.5 5.5 -43.5 16.5s-13.5 23.5 -13.5 37.5c0 6.66699 1 13.334 3 20.001s5.33301 12.834 10 18.501s10.834 10.334 18.501 14.001s17.167 5.5 28.5 5.5c23.333 0 41 -8.5 53 -25.5
s18 -37.833 18 -62.5c0 -12.667 -2.33301 -25.834 -7 -39.501s-11.5 -26.667 -20.5 -39s-20.5 -23.666 -34.5 -33.999s-30.333 -18.5 -49 -24.5z" />
    <glyph glyph-name="hyphen" unicode="-" horiz-adv-x="381" 
d="M341 303v-76h-301v76h301z" />
    <glyph glyph-name="period" unicode="." horiz-adv-x="233" 
d="M116 121c21.333 0 37.833 -6.33301 49.5 -19s17.5 -28.334 17.5 -47.001c0 -19.333 -5.83301 -34.666 -17.5 -45.999s-28.167 -17 -49.5 -17s-37.666 5.66699 -48.999 17s-17 26.666 -17 45.999c0 18.667 5.66699 34.334 17 47.001s27.666 19 48.999 19z" />
    <glyph glyph-name="slash" unicode="/" horiz-adv-x="302" 
d="M243 686l77 -25l-243 -697l-75 25z" />
    <glyph glyph-name="zero" unicode="0" horiz-adv-x="720" 
d="M680 325c0 -50 -8 -95.667 -24 -137s-38.167 -77 -66.5 -107s-62 -53.167 -101 -69.5s-81.833 -24.5 -128.5 -24.5s-89.5 8.16699 -128.5 24.5s-72.667 39.5 -101 69.5s-50.5 65.667 -66.5 107s-24 87 -24 137s8 95.667 24 137s38.167 77 66.5 107s62 53.167 101 69.5
s81.833 24.5 128.5 24.5s89.5 -8.16699 128.5 -24.5s72.667 -39.5 101 -69.5s50.5 -65.667 66.5 -107s24 -87 24 -137zM136 325c0 -41.333 5.66699 -78 17 -110s27 -59 47 -81s43.667 -38.667 71 -50s57 -17 89 -17s61.667 5.66699 89 17s51 28 71 50s35.667 49 47 81
s17 68.667 17 110s-5.66699 78 -17 110s-27 59 -47 81s-43.667 38.833 -71 50.5s-57 17.5 -89 17.5s-61.667 -5.83301 -89 -17.5s-51 -28.5 -71 -50.5s-35.667 -49 -47 -81s-17 -68.667 -17 -110z" />
    <glyph glyph-name="one" unicode="1" horiz-adv-x="315" 
d="M250 650v-650h-93v545l-103 -52l-25 69l154 89z" />
    <glyph glyph-name="two" unicode="2" horiz-adv-x="548" 
d="M70 76l224 219.003c34 33.333 60.333 62.833 79 88.5s28 54.167 28 85.5c0 37.333 -11.667 65.333 -35 84s-53.666 28 -90.999 28c-35.333 0 -66.5 -4.5 -93.5 -13.5s-53.833 -24.167 -80.5 -45.5l-45 71c35.333 26 70.166 44.167 104.499 54.5s74.166 15.5 119.499 15.5
c32 0 60.833 -4.33301 86.5 -13s47.834 -21.334 66.501 -38.001s33 -36.834 43 -60.501s15 -50.5 15 -80.5c0 -38 -11 -75.333 -33 -112s-52 -73.334 -90 -110.001l-169 -160v-4h299v-85h-428v76z" />
    <glyph glyph-name="three" unicode="3" horiz-adv-x="545" 
d="M263 395c32 0 57.335 9.16504 76.002 27.498s28 41.5 28 69.5c0 30.667 -10.833 53.834 -32.5 69.501s-47.5 23.5 -77.5 23.5c-33.333 0 -61.833 -3.83301 -85.5 -11.5s-47.834 -21.5 -72.501 -41.5l-41 65c31.333 24.667 62.833 41.834 94.5 51.501
s67.5 14.5 107.5 14.5c29.333 0 56.166 -4 80.499 -12s45.333 -19.167 63 -33.5s31.334 -31.333 41.001 -51s14.5 -41.5 14.5 -65.5c0 -26.667 -6.16699 -52.167 -18.5 -76.5s-32.166 -42.5 -59.499 -54.5v-4c34 -12 61.5 -31.833 82.5 -59.5s31.5 -62.5 31.5 -104.5
c0 -29.333 -5.5 -57 -16.5 -83s-26.667 -48.833 -47 -68.5s-45.5 -35.167 -75.5 -46.5s-64 -17 -102 -17c-50 0 -92.667 6 -128 18s-67.333 31.667 -96 59l44 77c29.333 -27.333 57.166 -46.333 83.499 -57s56.5 -16 90.5 -16c22 0 42.5 3 61.5 9s35.333 14.833 49 26.5
s24.5 25.667 32.5 42s12 34.5 12 54.5c0 42 -12.833 72.167 -38.5 90.5s-57.834 27.5 -96.501 27.5h-105v77h100z" />
    <glyph glyph-name="four" unicode="4" horiz-adv-x="580" 
d="M473 650v-425h74l-10 -83h-64v-142h-93v142h-345v68l327 446zM380 536l-7 1l-226 -312h233v311z" />
    <glyph glyph-name="five" unicode="5" horiz-adv-x="559" 
d="M469 650l0.00292969 -81h-297v-167c19.333 4 36.166 6.83301 50.499 8.5s32.166 2.5 53.499 2.5c33.333 0 64 -4.83301 92 -14.5s52 -23.5 72 -41.5s35.667 -39.833 47 -65.5s17 -54.834 17 -87.501c0 -30 -5.5 -58.167 -16.5 -84.5s-27.333 -49.333 -49 -69
s-48.5 -35.167 -80.5 -46.5s-68.667 -17 -110 -17c-22.667 0 -43.5 1.16699 -62.5 3.5s-36.833 6.33301 -53.5 12s-32.834 12.834 -48.501 21.501s-31.834 19.667 -48.501 33l42 76c14.667 -12 28.334 -22.167 41.001 -30.5s25.5 -15 38.5 -20s26.667 -8.5 41 -10.5
s30.166 -3 47.499 -3c58 0 100.167 12.167 126.5 36.5s39.5 57.166 39.5 98.499c0 46 -13.833 79 -41.5 99s-67.5 30 -119.5 30c-29.333 0 -55.666 -2.16699 -78.999 -6.5s-48.333 -11.166 -75 -20.499l-13 5v339h386z" />
    <glyph glyph-name="six" unicode="6" horiz-adv-x="561" 
d="M448 582c-41.333 0 -80.667 -4.5 -118 -13.5s-70.333 -23 -99 -42s-51.334 -43.333 -68.001 -73s-25 -65.167 -25 -106.5c22.667 20 47.5 35.333 74.5 46s58.833 16 95.5 16c29.333 0 56.666 -4.83301 81.999 -14.5s47.333 -23.5 66 -41.5s33.334 -40 44.001 -66
s16 -55 16 -87c0 -38.667 -7 -71.5 -21 -98.5s-32.167 -49 -54.5 -66s-47.5 -29.333 -75.5 -37s-56.333 -11.5 -85 -11.5c-36 0 -68.5 6.5 -97.5 19.5s-53.667 32.833 -74 59.5s-36.166 60.167 -47.499 100.5s-17 87.833 -17 142.5c0 60 10.5 112.167 31.5 156.5
s49.5 81 85.5 110s78 50.667 126 65s99 21.5 153 21.5zM139.999 272c0 -36 3.66699 -67 11 -93s17.833 -47.167 31.5 -63.5s30 -28.333 49 -36s40.167 -11.5 63.5 -11.5c40.667 0 72 11 94 33s33 55 33 99c0 42 -10.833 74.333 -32.5 97s-53.5 34 -95.5 34
c-34 0 -62.833 -5 -86.5 -15s-46.167 -24.667 -67.5 -44z" />
    <glyph glyph-name="seven" unicode="7" horiz-adv-x="511" 
d="M471 650v-58l-256 -592h-103l254 566h-321v84h426z" />
    <glyph glyph-name="eight" unicode="8" horiz-adv-x="567" 
d="M157 353c-21.333 11.333 -39.6699 28.501 -55.0029 51.501s-23 49.5 -23 79.5c0 26.667 5 51 15 73s24 40.833 42 56.5s39.5 27.834 64.5 36.501s52.833 13 83.5 13c27.333 0 53.333 -3.83301 78 -11.5s46.334 -18.834 65.001 -33.501s33.5 -32.667 44.5 -54
s16.5 -45.666 16.5 -72.999c0 -16.667 -2.5 -32.334 -7.5 -47.001s-11.167 -27.834 -18.5 -39.501s-15.666 -21.834 -24.999 -30.501s-18.333 -15 -27 -19v-4c34.667 -13.333 62 -33.833 82 -61.5s30 -60.5 30 -98.5c0 -32.667 -5.66699 -61.667 -17 -87
s-27.333 -46.666 -48 -63.999s-45.667 -30.5 -75 -39.5s-62 -13.5 -98 -13.5c-42 0 -78.167 5 -108.5 15s-55.166 23.833 -74.499 41.5s-33.5 38.667 -42.5 63s-13.5 50.833 -13.5 79.5c0 38 10.167 71.5 30.5 100.5s47.5 49.833 81.5 62.5v4zM283.996 383.001
c37.333 0 65.167 9.33203 83.5 27.999s27.5 43.667 27.5 75c0 28.667 -8.5 53.334 -25.5 74.001s-45.5 31 -85.5 31c-20 0 -37 -2.83301 -51 -8.5s-25.5 -13.167 -34.5 -22.5s-15.667 -20.333 -20 -33s-6.5 -26.334 -6.5 -41.001c0 -14 2.33301 -27.167 7 -39.5
s11.667 -23.166 21 -32.499s21 -16.833 35 -22.5s30.333 -8.5 49 -8.5zM283.997 311c-45.333 0 -80.833 -10.668 -106.5 -32.001s-38.5 -52.333 -38.5 -93c0 -17.333 2.5 -33.5 7.5 -48.5s13.333 -28.167 25 -39.5s26.667 -20.166 45 -26.499s40.833 -9.5 67.5 -9.5
c48.667 0 84.667 12 108 36s35 53.333 35 88c0 40 -12 70.833 -36 92.5s-59.667 32.5 -107 32.5z" />
    <glyph glyph-name="nine" unicode="9" horiz-adv-x="561" 
d="M102 68c43.333 0 84.3359 4.83203 123.003 14.499s72.5 24.334 101.5 44.001s52.167 43.834 69.5 72.501s26.666 62 27.999 100c-22.667 -20 -47.834 -34.833 -75.501 -44.5s-59.834 -14.5 -96.501 -14.5c-29.333 0 -56.666 4.83301 -81.999 14.5s-47.333 23.5 -66 41.5
s-33.334 40 -44.001 66s-16 55 -16 87c0 38 6.5 70.5 19.5 97.5s30.333 49 52 66s46.334 29.5 74.001 37.5s56.167 12 85.5 12c36 0 68.833 -6 98.5 -18s55.167 -30.833 76.5 -56.5s37.833 -58.834 49.5 -99.501s17.5 -90 17.5 -148c0 -60 -10.333 -112.167 -31 -156.5
s-49.334 -81 -86.001 -110s-79.667 -50.667 -129 -65s-103 -21.5 -161 -21.5zM422.003 380.999c0 66.667 -12.999 117.333 -38.999 152s-64 52 -114 52c-42 0 -74.333 -11 -97 -33s-34 -55.667 -34 -101c0 -42 10.833 -74.167 32.5 -96.5s53.5 -33.5 95.5 -33.5
c34 0 63.167 5 87.5 15s47.166 25 68.499 45z" />
    <glyph glyph-name="colon" unicode=":" horiz-adv-x="233" 
d="M116 121c21.333 0 37.833 -6.33301 49.5 -19s17.5 -28.334 17.5 -47.001c0 -19.333 -5.83301 -34.666 -17.5 -45.999s-28.167 -17 -49.5 -17s-37.666 5.66699 -48.999 17s-17 26.666 -17 45.999c0 18.667 5.66699 34.334 17 47.001s27.666 19 48.999 19zM116 482
c21.333 0 37.833 -6.33301 49.5 -19s17.5 -28.334 17.5 -47.001c0 -19.333 -5.83301 -34.666 -17.5 -45.999s-28.167 -17 -49.5 -17s-37.666 5.66699 -48.999 17s-17 26.666 -17 45.999c0 18.667 5.66699 34.334 17 47.001s27.666 19 48.999 19z" />
    <glyph glyph-name="semicolon" unicode=";" horiz-adv-x="233" 
d="M42 -70c20.667 8 36.666 17.8301 47.999 29.4971s17 25.167 17 40.5c-20 0 -34.5 5.5 -43.5 16.5s-13.5 23.5 -13.5 37.5c0 6.66699 1 13.334 3 20.001s5.33301 12.834 10 18.501s10.834 10.334 18.501 14.001s17.167 5.5 28.5 5.5c23.333 0 41 -8.5 53 -25.5
s18 -37.833 18 -62.5c0 -12.667 -2.33301 -25.834 -7 -39.501s-11.5 -26.667 -20.5 -39s-20.5 -23.666 -34.5 -33.999s-30.333 -18.5 -49 -24.5zM115.999 481.997c21.333 0 37.833 -6.33301 49.5 -19s17.5 -28.334 17.5 -47.001c0 -19.333 -5.83301 -34.666 -17.5 -45.999
s-28.167 -17 -49.5 -17s-37.666 5.66699 -48.999 17s-17 26.666 -17 45.999c0 18.667 5.66699 34.334 17 47.001s27.666 19 48.999 19z" />
    <glyph glyph-name="less" unicode="&#x3c;" horiz-adv-x="332" 
d="M292 456l-160 -133l160 -132l-58 -48l-199 161v38l199 161z" />
    <glyph glyph-name="equal" unicode="=" horiz-adv-x="383" 
d="M343 298v-74h-303v74h303zM343 440v-74h-303v74h303z" />
    <glyph glyph-name="greater" unicode="&#x3e;" horiz-adv-x="332" 
d="M292 342v-38l-199 -161l-58 47l160 133l-160 132l58 48z" />
    <glyph glyph-name="question" unicode="?" horiz-adv-x="537" 
d="M203 170c-9.33301 18.667 -13.9971 41.002 -13.9971 67.002c0 19.333 3.66699 36.333 11 51s16.833 27.167 28.5 37.5s24.667 19.166 39 26.499s28.166 13.666 41.499 18.999c31.333 12 55.666 26.833 72.999 44.5s26 42.834 26 75.501c0 34 -13 61.5 -39 82.5
s-63.333 31.5 -112 31.5c-34 0 -67.333 -6.66699 -100 -20s-60.667 -32 -84 -56l-48 63c30 29.333 65.167 51.666 105.5 66.999s84.833 23 133.5 23c34 0 65.167 -4.16699 93.5 -12.5s52.666 -20.833 72.999 -37.5s36.333 -37.667 48 -63s17.5 -54.666 17.5 -87.999
c0 -30.667 -8.5 -59.834 -25.5 -87.501s-42.5 -50.167 -76.5 -67.5c-15.333 -8 -30.5 -15 -45.5 -21s-28.333 -12.833 -40 -20.5s-21.167 -17.167 -28.5 -28.5s-11 -26.333 -11 -45v-41h-66zM236.003 121.002c21.333 0 37.833 -6.33301 49.5 -19s17.5 -28.334 17.5 -47.001
c0 -19.333 -5.83301 -34.666 -17.5 -45.999s-28.167 -17 -49.5 -17s-37.666 5.66699 -48.999 17s-17 26.666 -17 45.999c0 18.667 5.66699 34.334 17 47.001s27.666 19 48.999 19z" />
    <glyph glyph-name="at" unicode="@" horiz-adv-x="769" 
d="M496 136c-31.333 -39.333 -74 -58.998 -128 -58.998c-52 0 -92.333 16 -121 48s-43 73.333 -43 124c0 22 4.33301 43.167 13 63.5s20.834 38.166 36.501 53.499s34.5 27.5 56.5 36.5s46.333 13.5 73 13.5c22 0 41.167 -2.83301 57.5 -8.5s32.166 -14.167 47.499 -25.5
l24 24l35 -7v-187c0 -20 4.16699 -35 12.5 -45s20.166 -15 35.499 -15c20 0 34.5 10 43.5 30s13.5 47 13.5 81c0 38 -6.5 71.833 -19.5 101.5s-30.833 54.667 -53.5 75s-49.334 35.833 -80.001 46.5s-63.667 16 -99 16c-38.667 0 -74.834 -5.66699 -108.501 -17
s-63 -28 -88 -50s-44.667 -48.667 -59 -80s-21.5 -67 -21.5 -107c0 -39.333 6.33301 -74.666 19 -105.999s30.334 -57.666 53.001 -78.999s49.834 -37.666 81.501 -48.999s66.167 -17 103.5 -17c42.667 0 81.5 3.66699 116.5 11s66.833 19 95.5 35l24 -70
c-35.333 -15.333 -72 -27.166 -110 -35.499s-80 -12.5 -126 -12.5s-89.667 6.83301 -131 20.5s-77.5 34 -108.5 61s-55.5 60.667 -73.5 101s-27 87.166 -27 140.499c0 49.333 9.33301 94.166 28 134.499s44.334 74.666 77.001 102.999s70.834 50.333 114.501 66
s90.5 23.5 140.5 23.5c44.667 0 87.167 -7.16699 127.5 -21.5s75.666 -34.833 105.999 -61.5s54.5 -59.334 72.5 -98.001s27 -82.334 27 -131.001c0 -54 -12.5 -96.5 -37.5 -127.5s-60.5 -46.5 -106.5 -46.5c-44.667 0 -75.667 15.667 -93 47zM474 326.002
c-12.667 10 -25.833 16.667 -39.5 20s-29.167 5 -46.5 5c-33.333 0 -59 -9.16699 -77 -27.5s-27 -43.5 -27 -75.5s7.5 -56.833 22.5 -74.5s37.5 -26.5 67.5 -26.5c42.667 0 76 15 100 45v134z" />
    <glyph glyph-name="A" unicode="A" horiz-adv-x="707" 
d="M406 650l278 -650h-99l-85 197h-299l-81 -197h-98l279 650h105zM232 275h238l-114 283h-9z" />
    <glyph glyph-name="B" unicode="B" horiz-adv-x="601" 
d="M292 650c30 0 58.499 -3.16699 85.499 -9.5s50.5 -16.5 70.5 -30.5s36 -32 48 -54s18 -48.333 18 -79c0 -25.333 -5.16699 -48.333 -15.5 -69s-27.166 -37.667 -50.499 -51v-4c74 -37.333 111 -93.333 111 -168c0 -30 -6.33301 -56.5 -19 -79.5s-29.5 -42.333 -50.5 -58
s-45.5 -27.5 -73.5 -35.5s-57 -12 -87 -12h-264v650h227zM158.999 77l160.999 -0.000976562c18.667 0 36.834 1.83301 54.501 5.5s33.167 9.83398 46.5 18.501s24 20 32 34s12 31.333 12 52c0 40 -12.667 69.833 -38 89.5s-58.333 29.5 -99 29.5h-169v-229zM158.998 379.999
h147.999c36.667 0 64.834 8.5 84.501 25.5s29.5 39.833 29.5 68.5c0 34 -10.833 59.167 -32.5 75.5s-50.5 24.5 -86.5 24.5h-143v-194z" />
    <glyph glyph-name="C" unicode="C" horiz-adv-x="660" 
d="M584 518c-32 23.333 -63.167 40.333 -93.5 51s-63.5 16 -99.5 16c-38.667 0 -73.834 -6.5 -105.501 -19.5s-58.667 -31 -81 -54s-39.5 -50.333 -51.5 -82s-18 -66.167 -18 -103.5c0 -42 6.66699 -78.833 20 -110.5s31.5 -58.334 54.5 -80.001s50 -37.834 81 -48.501
s64.167 -16 99.5 -16c20 0 38.667 1 56 3s34 5.5 50 10.5s32 11.5 48 19.5s32.667 18 50 30l28 -82c-36 -24.667 -72.833 -41.667 -110.5 -51s-81.5 -14 -131.5 -14c-43.333 0 -85.5 6.83301 -126.5 20.5s-77.333 34.334 -109 62.001s-57 62.834 -76 105.501
s-28.5 93 -28.5 151c0 50 9.33301 95.833 28 137.5s44 77.167 76 106.5s69.333 52.166 112 68.499s87.667 24.5 135 24.5c48.667 0 90.834 -5.66699 126.501 -17s70.5 -29.666 104.5 -54.999z" />
    <glyph glyph-name="D" unicode="D" horiz-adv-x="700" 
d="M306 650c54.667 0 103.832 -7.49902 147.499 -22.499s80.834 -36.5 111.501 -64.5s54.167 -62.333 70.5 -103s24.5 -87 24.5 -139c0 -53.333 -9.33301 -100 -28 -140s-44.5 -73.333 -77.5 -100s-72.5 -46.834 -118.5 -60.501s-96 -20.5 -150 -20.5h-221v650h241z
M159.998 79.001h134c38.667 0 74.667 4.33301 108 13s62 22.667 86 42s42.833 44.333 56.5 75s20.5 68 20.5 112c0 44.667 -6.16699 82.834 -18.5 114.501s-29.833 57.667 -52.5 78s-50 35.166 -82 44.499s-67.333 14 -106 14h-146v-493z" />
    <glyph glyph-name="E" unicode="E" horiz-adv-x="541" 
d="M65 650h419v-79h-323v-194h290v-78h-290v-220h337v-79h-433v650z" />
    <glyph glyph-name="F" unicode="F" horiz-adv-x="539" 
d="M484 650v-77h-323v-199h290v-77h-290v-297h-96v650h419z" />
    <glyph glyph-name="G" unicode="G" horiz-adv-x="700" 
d="M645 347l-0.00292969 -280.001c-38 -28 -79 -48.333 -123 -61s-92.333 -19 -145 -19c-46 0 -89.5 7.33301 -130.5 22s-76.667 36.167 -107 64.5s-54.5 63.5 -72.5 105.5s-27 90.667 -27 146c0 50 9.16699 95.833 27.5 137.5s43.333 77.334 75 107.001
s68.5 52.667 110.5 69s87 24.5 135 24.5c48.667 0 92.834 -5.66699 132.501 -17s76.834 -29.666 111.501 -54.999l-38 -73c-32 23.333 -65.333 40.166 -100 50.499s-70 15.5 -106 15.5c-38.667 0 -73.667 -6.5 -105 -19.5s-58 -31 -80 -54s-38.833 -50.333 -50.5 -82
s-17.5 -66.167 -17.5 -103.5c0 -39.333 6.5 -74.833 19.5 -106.5s30.833 -58.5 53.5 -80.5s49.334 -39 80.001 -51s63.667 -18 99 -18c34 0 64 2.83301 90 8.5s51.333 15.167 76 28.5v166h-170v75h262z" />
    <glyph glyph-name="H" unicode="H" horiz-adv-x="669" 
d="M604 650v-650h-95v303h-349v-303h-95v650h95v-270h349v270h95z" />
    <glyph glyph-name="I" unicode="I" horiz-adv-x="225" 
d="M160 650v-650h-95v650h95z" />
    <glyph glyph-name="J" unicode="J" horiz-adv-x="244" 
d="M179 650l-0.00292969 -631.999c0 -44.667 -5.66699 -82.5 -17 -113.5s-27.166 -56.667 -47.499 -77s-44.5 -36 -72.5 -47s-58.333 -18.833 -91 -23.5l-30 78c26.667 4 50.334 9.5 71.001 16.5s37.834 17.167 51.501 30.5s24 31.166 31 53.499s10.5 50.833 10.5 85.5v629
h94z" />
    <glyph glyph-name="K" unicode="K" horiz-adv-x="635" 
d="M161 650v-341l313 341h119l-252 -265l279 -385h-113l-229 320l-117 -111v-209h-96v650h96z" />
    <glyph glyph-name="L" unicode="L" horiz-adv-x="504" 
d="M467 80v-80h-402v650h96v-570h306z" />
    <glyph glyph-name="M" unicode="M" horiz-adv-x="761" 
d="M182 650l198 -296l202 296h114v-650h-92v368l2 164h-9l-199 -291h-39l-197 291h-8l1 -164v-368h-90v650h117z" />
    <glyph glyph-name="N" unicode="N" horiz-adv-x="734" 
d="M164 650l417 -531l-3 170v361h91v-650h-102l-418 533l6 -198v-335h-90v650h99z" />
    <glyph glyph-name="O" unicode="O" horiz-adv-x="780" 
d="M740 325c0 -50 -9 -95.667 -27 -137s-42.833 -77 -74.5 -107s-68.834 -53.167 -111.501 -69.5s-88.334 -24.5 -137.001 -24.5c-49.333 0 -95.166 8.16699 -137.499 24.5s-79.333 39.5 -111 69.5s-56.5 65.667 -74.5 107s-27 87 -27 137s9 95.667 27 137
s42.833 77 74.5 107s68.667 53.167 111 69.5s88.166 24.5 137.499 24.5c48.667 0 94.334 -8.16699 137.001 -24.5s79.834 -39.5 111.501 -69.5s56.5 -65.667 74.5 -107s27 -87 27 -137zM136 325c0 -41.333 6.83301 -78 20.5 -110s32 -59 55 -81s49.833 -38.833 80.5 -50.5
s63.334 -17.5 98.001 -17.5s67.334 5.83301 98.001 17.5s57.5 28.5 80.5 50.5s41.333 49 55 81s20.5 68.667 20.5 110s-6.83301 78 -20.5 110s-32 59 -55 81s-49.833 38.833 -80.5 50.5s-63.334 17.5 -98.001 17.5s-67.334 -5.83301 -98.001 -17.5s-57.5 -28.5 -80.5 -50.5
s-41.333 -49 -55 -81s-20.5 -68.667 -20.5 -110z" />
    <glyph glyph-name="P" unicode="P" horiz-adv-x="594" 
d="M291 650c36.667 0 70.6689 -4.6709 102.002 -14.0039s58.5 -22.666 81.5 -39.999s41 -38.666 54 -63.999s19.5 -54.333 19.5 -87c0 -33.333 -6.33301 -62.666 -19 -87.999s-30.334 -46.666 -53.001 -63.999s-49.834 -30.5 -81.501 -39.5s-66.167 -13.5 -103.5 -13.5h-131
v-240h-95v650h226zM160.002 316.996h118c56.667 0 100 9.66699 130 29s45 52.333 45 99c0 43.333 -15 75.5 -45 96.5s-73.333 31.5 -130 31.5h-118v-256z" />
    <glyph glyph-name="Q" unicode="Q" horiz-adv-x="780" 
d="M698 -119l-393.001 111.999c-38 10.667 -73.167 26 -105.5 46s-60.333 44.167 -84 72.5s-42.167 60.333 -55.5 96s-20 74.834 -20 117.501c0 50 9 95.667 27 137s42.833 77 74.5 107s68.667 53.167 111 69.5s88.166 24.5 137.499 24.5
c48.667 0 94.334 -8.16699 137.001 -24.5s79.834 -39.5 111.501 -69.5s56.5 -65.667 74.5 -107s27 -87 27 -137c0 -38 -5.66699 -73.5 -17 -106.5s-27.166 -63 -47.499 -90s-44.333 -50.5 -72 -70.5s-57.834 -35.667 -90.501 -47l209 -44zM135.999 324.999
c0 -41.333 6.83301 -78 20.5 -110s32 -59 55 -81s49.833 -38.833 80.5 -50.5s63.334 -17.5 98.001 -17.5s67.334 5.83301 98.001 17.5s57.5 28.5 80.5 50.5s41.333 49 55 81s20.5 68.667 20.5 110s-6.83301 78 -20.5 110s-32 59 -55 81s-49.833 38.833 -80.5 50.5
s-63.334 17.5 -98.001 17.5s-67.334 -5.83301 -98.001 -17.5s-57.5 -28.5 -80.5 -50.5s-41.333 -49 -55 -81s-20.5 -68.667 -20.5 -110z" />
    <glyph glyph-name="R" unicode="R" horiz-adv-x="631" 
d="M330 650c32.667 0 62.833 -4.16602 90.5 -12.499s51.5 -20.5 71.5 -36.5s35.667 -35.333 47 -58s17 -48.334 17 -77.001c0 -38.667 -12 -73.5 -36 -104.5s-59.667 -52.833 -107 -65.5l188 -296h-111l-174 279h-156v-279h-95v650h265zM159.999 356.001h156
c42.667 0 77.5 9.33301 104.5 28s40.5 46 40.5 82s-13 62.833 -39 80.5s-61.667 26.5 -107 26.5h-155v-217z" />
    <glyph glyph-name="S" unicode="S" horiz-adv-x="574" 
d="M453 531c-27.333 19.333 -54.335 33.168 -81.002 41.501s-57 12.5 -91 12.5c-25.333 0 -46 -2.83301 -62 -8.5s-28.667 -12.834 -38 -21.501s-15.833 -18.667 -19.5 -30s-5.5 -22.333 -5.5 -33c0 -24 7.83301 -44 23.5 -60s42.167 -27.667 79.5 -35l93 -19
c54.667 -11.333 98.167 -33.333 130.5 -66s48.5 -76.667 48.5 -132c0 -28 -5.83301 -53.667 -17.5 -77s-28.5 -43.666 -50.5 -60.999s-48.833 -30.833 -80.5 -40.5s-67.5 -14.5 -107.5 -14.5c-24 0 -45.833 1 -65.5 3s-38.5 5.33301 -56.5 10s-35.833 10.667 -53.5 18
s-36.167 16.333 -55.5 27l32 87c37.333 -23.333 71 -39.333 101 -48s62 -13 96 -13c55.333 0 96.833 10.333 124.5 31s41.5 46.334 41.5 77.001c0 34.667 -9.16699 60.834 -27.5 78.501s-49.166 30.5 -92.499 38.5l-102 19c-48 9.33301 -85.167 30.166 -111.5 62.499
s-39.5 69.166 -39.5 110.499c0 26 4.66699 49.667 14 71s23.166 39.666 41.499 54.999s40.833 27.333 67.5 36s57.334 13 92.001 13c42.667 0 80.334 -4 113.001 -12s65.667 -23 99 -45z" />
    <glyph glyph-name="T" unicode="T" horiz-adv-x="544" 
d="M30 650h484v-76h-194v-574h-96v574h-194v76z" />
    <glyph glyph-name="U" unicode="U" horiz-adv-x="680" 
d="M160 650l-0.00195312 -379c0 -69.333 15.833 -121.333 47.5 -156s75.834 -52 132.501 -52s100.834 17.333 132.501 52s47.5 86.667 47.5 156v379h95v-372c0 -50 -6.5 -93.167 -19.5 -129.5s-31.333 -66.5 -55 -90.5s-52.5 -41.833 -86.5 -53.5s-72 -17.5 -114 -17.5
s-80 5.83301 -114 17.5s-62.833 29.5 -86.5 53.5s-42 54.167 -55 90.5s-19.5 79.5 -19.5 129.5v372h95z" />
    <glyph glyph-name="V" unicode="V" horiz-adv-x="679" 
d="M282 0l-257 650h105l211 -562h4l208 562h101l-256 -650h-116z" />
    <glyph glyph-name="W" unicode="W" horiz-adv-x="1009" 
d="M231 0l-206 650h103l169 -555h4l162 555h85l171 -555h4l165 555h96l-205 -650h-128l-144 483h-4l-145 -483h-127z" />
    <glyph glyph-name="X" unicode="X" horiz-adv-x="682" 
d="M162 650l178 -257l182 257h107l-226 -307l254 -343h-115l-205 289l-204 -289h-108l249 343l-226 307h114z" />
    <glyph glyph-name="Y" unicode="Y" horiz-adv-x="646" 
d="M131 650l192 -313h4l190 313h104l-250 -401v-249h-94v247l-252 403h106z" />
    <glyph glyph-name="Z" unicode="Z" horiz-adv-x="617" 
d="M573 650v-68l-417 -503h425v-79h-544v65l420 508h-393v77h509z" />
    <glyph glyph-name="bracketleft" unicode="[" horiz-adv-x="253" 
d="M144 -18h74v-73h-163v826h163v-72h-74v-681z" />
    <glyph glyph-name="backslash" unicode="\" horiz-adv-x="302" 
d="M302 -11l-77 -25l-241 697l75 25z" />
    <glyph glyph-name="bracketright" unicode="]" horiz-adv-x="253" 
d="M129 663h-74v72h163v-826h-163v73h74v681z" />
    <glyph glyph-name="asciicircum" unicode="^" horiz-adv-x="375" 
d="M200 663l140 -150l-28 -63l-125 119l-125 -118l-27 62l141 150h24z" />
    <glyph glyph-name="underscore" unicode="_" horiz-adv-x="363" 
d="M363 -37v-71h-363v71h363z" />
    <glyph glyph-name="a" unicode="a" horiz-adv-x="642" 
d="M375 560l242 -560h-94l-71 162h-266l-69 -162h-92l244 560h106zM217 239h204l-98 244h-6z" />
    <glyph glyph-name="b" unicode="b" horiz-adv-x="526" 
d="M281 560c22.667 0 44.665 -3.33203 65.998 -9.99902s40 -16.334 56 -29.001s28.833 -28.334 38.5 -47.001s14.5 -40 14.5 -64c0 -21.333 -5.33301 -41.666 -16 -60.999s-26 -34.333 -46 -45v-4c30 -10.667 52.833 -28.5 68.5 -53.5s23.5 -52.833 23.5 -83.5
c0 -26 -5.16699 -49 -15.5 -69s-24.166 -37 -41.499 -51s-37.166 -24.667 -59.499 -32s-45.833 -11 -70.5 -11h-234v560h216zM154.998 72.001h120.999c18 0 34.5 1.33301 49.5 4s27.833 7.5 38.5 14.5s18.834 16.333 24.501 28s8.5 26.167 8.5 43.5
c0 28 -8.5 50.5 -25.5 67.5s-41.5 25.5 -73.5 25.5h-143v-183zM154.997 325.001l115 0.000976562c12 0 23.833 1.33301 35.5 4s22 7 31 13s16.167 14.167 21.5 24.5s8 23.166 8 38.499c0 54.667 -35.333 82 -106 82h-105v-162z" />
    <glyph glyph-name="c" unicode="c" horiz-adv-x="582" 
d="M497 437c-24 20.667 -49.5039 34.998 -76.5039 42.998s-55.833 12 -86.5 12c-33.333 0 -63 -5.16699 -89 -15.5s-47.667 -24.833 -65 -43.5s-30.5 -41 -39.5 -67s-13.5 -54.333 -13.5 -85c0 -33.333 5.33301 -63 16 -89s25.334 -48 44.001 -66s40.834 -31.667 66.501 -41
s53.5 -14 83.5 -14c34 0 65 3.83301 93 11.5s55.333 21.167 82 40.5l25 -77c-30.667 -21.333 -62.334 -36 -95.001 -44s-70.667 -12 -114 -12c-37.333 0 -73.666 5.83301 -108.999 17.5s-66.666 29.334 -93.999 53.001s-49.166 53.834 -65.499 90.501s-24.5 80 -24.5 130
c0 43.333 8 82.833 24 118.5s37.667 66.167 65 91.5s59.5 44.833 96.5 58.5s76.167 20.5 117.5 20.5c42 0 78.167 -5 108.5 -15s60.5 -25.667 90.5 -47z" />
    <glyph glyph-name="d" unicode="d" horiz-adv-x="618" 
d="M266 560c44.667 0 86 -6.00098 124 -18.001s71 -29.667 99 -53s49.833 -52.166 65.5 -86.499s23.5 -73.833 23.5 -118.5c0 -46 -7.83301 -86.667 -23.5 -122s-37.5 -65 -65.5 -89s-61.167 -42.167 -99.5 -54.5s-79.833 -18.5 -124.5 -18.5h-200v560h201zM157 74.999h117
c30.667 0 59 4.33301 85 13s48.333 21.667 67 39s33.167 39 43.5 65s15.5 56.667 15.5 92c0 34.667 -5.16699 64.667 -15.5 90s-25 46.333 -44 63s-42 29 -69 37s-56.833 12 -89.5 12h-110v-411z" />
    <glyph glyph-name="e" unicode="e" horiz-adv-x="508" 
d="M65 560h381v-74h-290v-155h265v-74h-265v-182h302v-75h-393v560z" />
    <glyph glyph-name="f" unicode="f" horiz-adv-x="466" 
d="M426 560v-75h-270v-168h248v-75h-248v-242h-91v560h361z" />
    <glyph glyph-name="g" unicode="g" horiz-adv-x="623" 
d="M578 317l-0.00683594 -264.002c-20 -12 -39.5 -22.167 -58.5 -30.5s-38.167 -14.833 -57.5 -19.5s-39.666 -8 -60.999 -10s-44 -3 -68 -3c-37.333 0 -73.666 5.83301 -108.999 17.5s-66.666 29.334 -93.999 53.001s-49.166 53.834 -65.499 90.501s-24.5 80 -24.5 130
c0 43.333 8 82.833 24 118.5s37.833 66.167 65.5 91.5s60.167 44.833 97.5 58.5s77 20.5 119 20.5s80.667 -5 116 -15s68 -25.667 98 -47l-40 -71c-27.333 20 -56.166 34.167 -86.499 42.5s-60.833 12.5 -91.5 12.5c-33.333 0 -63 -5.16699 -89 -15.5s-48 -24.833 -66 -43.5
s-31.667 -41 -41 -67s-14 -54.333 -14 -85c0 -33.333 5.33301 -63 16 -89s25.334 -48 44.001 -66s40.834 -31.667 66.501 -41s53.5 -14 83.5 -14s56.833 2 80.5 6s46.167 11.667 67.5 23v144h-142v73h230z" />
    <glyph glyph-name="h" unicode="h" horiz-adv-x="623" 
d="M156 560v-230h311v230h91v-560h-91v254h-311v-254h-91v560h91z" />
    <glyph glyph-name="i" unicode="i" horiz-adv-x="221" 
d="M156 560v-560h-91v560h91z" />
    <glyph glyph-name="j" unicode="j" horiz-adv-x="231" 
d="M166 560l0.00195312 -547.998c0 -30 -4.33301 -58.667 -13 -86s-21.834 -51.833 -39.501 -73.5s-39.834 -39.834 -66.501 -54.501s-58 -24 -94 -28l-24 77c50.667 8.66699 87.667 26.167 111 52.5s35 66.166 35 119.499v541h91z" />
    <glyph glyph-name="k" unicode="k" horiz-adv-x="583" 
d="M148 560v-276l270 276h113l-212 -218l244 -342h-107l-201 287l-107 -99v-188h-90v560h90z" />
    <glyph glyph-name="l" unicode="l" horiz-adv-x="471" 
d="M156 560v-485h285v-75h-376v560h91z" />
    <glyph glyph-name="m" unicode="m" horiz-adv-x="711" 
d="M171 560l185 -259l187 259h103v-560h-89v437h-5l-180 -249h-34l-180 249h-5v-437h-88v560h106z" />
    <glyph glyph-name="n" unicode="n" horiz-adv-x="670" 
d="M160 560l361 -445l-4 134v311h88v-560h-98l-358 448l4 -159v-289h-88v560h95z" />
    <glyph glyph-name="o" unicode="o" horiz-adv-x="681" 
d="M641 280c0 -43.333 -7.66602 -82.666 -22.999 -117.999s-36.5 -65.833 -63.5 -91.5s-58.833 -45.5 -95.5 -59.5s-76.334 -21 -119.001 -21s-82.334 7 -119.001 21s-68.334 33.833 -95.001 59.5s-47.667 56.167 -63 91.5s-23 74.666 -23 117.999
c0 42.667 7.66699 81.834 23 117.501s36.333 66.334 63 92.001s58.334 45.5 95.001 59.5s76.334 21 119.001 21c43.333 0 83.333 -7 120 -21s68.5 -33.833 95.5 -59.5s48 -56.334 63 -92.001s22.5 -74.834 22.5 -117.501zM132.001 280c0 -34.667 5.5 -65.1689 16.5 -91.502
s26 -48.5 45 -66.5s41.167 -31.5 66.5 -40.5s52 -13.5 80 -13.5c28.667 0 55.5 4.33301 80.5 13s47 21.834 66 39.501s34 39.834 45 66.501s16.5 57.667 16.5 93s-5.5 66.333 -16.5 93s-26 48.834 -45 66.501s-41 30.834 -66 39.501s-51.833 13 -80.5 13
c-28 0 -54.667 -4.33301 -80 -13s-47.5 -21.834 -66.5 -39.501s-34 -39.834 -45 -66.501s-16.5 -57.667 -16.5 -93z" />
    <glyph glyph-name="p" unicode="p" horiz-adv-x="543" 
d="M298 560c30.667 0 58.667 -4.33203 84 -12.999s47 -20.834 65 -36.501s31.833 -34.167 41.5 -55.5s14.5 -45 14.5 -71c0 -29.333 -5.33301 -55.333 -16 -78s-25.5 -41.667 -44.5 -57s-41.333 -26.833 -67 -34.5s-53.5 -11.5 -83.5 -11.5h-137v-203h-90v560h233z
M155 278.001h130c40 0 71 7.83301 93 23.5s33 43.167 33 82.5c0 36.667 -10.833 62.667 -32.5 78s-56.5 23 -104.5 23h-119v-207z" />
    <glyph glyph-name="q" unicode="q" horiz-adv-x="681" 
d="M568 -113l-328.003 117c-68 24.667 -118.333 61.334 -151 110.001s-49 104 -49 166c0 42.667 7.66699 81.834 23 117.501s36.333 66.334 63 92.001s58.334 45.5 95.001 59.5s76.334 21 119.001 21c43.333 0 83.333 -7 120 -21s68.5 -33.833 95.5 -59.5
s48 -56.334 63 -92.001s22.5 -74.834 22.5 -117.501c0 -66.667 -18.167 -123.834 -54.5 -171.501s-88.166 -80.167 -155.499 -97.5l162 -46zM131.997 280c0 -34.667 5.5 -65.1689 16.5 -91.502s26 -48.5 45 -66.5s41.167 -31.5 66.5 -40.5s52 -13.5 80 -13.5
c28.667 0 55.5 4.33301 80.5 13s47 21.834 66 39.501s34 39.834 45 66.501s16.5 57.667 16.5 93s-5.5 66.333 -16.5 93s-26 48.834 -45 66.501s-41 30.834 -66 39.501s-51.833 13 -80.5 13c-28 0 -54.667 -4.33301 -80 -13s-47.5 -21.834 -66.5 -39.501
s-34 -39.834 -45 -66.501s-16.5 -57.667 -16.5 -93z" />
    <glyph glyph-name="r" unicode="r" horiz-adv-x="565" 
d="M291 560c30 0 57.4961 -3.66699 82.4961 -11s46.333 -18 64 -32s31.334 -30.833 41.001 -50.5s14.5 -41.834 14.5 -66.501c0 -21.333 -3.16699 -40.666 -9.5 -57.999s-15.166 -32.5 -26.499 -45.5s-24.666 -24 -39.999 -33s-31.666 -16.167 -48.999 -21.5l159 -242h-105
l-148 234h-119v-234h-90v560h226zM154.996 308h127.999c16.667 0 32.334 1.5 47.001 4.5s27.5 8 38.5 15s19.667 16.5 26 28.5s9.5 26.667 9.5 44c0 32 -11 54.333 -33 67s-53 19 -93 19h-123v-178z" />
    <glyph glyph-name="s" unicode="s" horiz-adv-x="500" 
d="M394 447c-27.333 18.667 -52.1689 31.6641 -74.502 38.9971s-47.5 11 -75.5 11c-36 0 -62 -7.16699 -78 -21.5s-24 -31.833 -24 -52.5s5.5 -36.167 16.5 -46.5s28.167 -18.5 51.5 -24.5l93 -24c24.667 -6.66699 46.667 -14.5 66 -23.5s35.833 -20.167 49.5 -33.5
s24 -29.166 31 -47.499s10.5 -40.5 10.5 -66.5c0 -23.333 -4.5 -45.166 -13.5 -65.499s-22.5 -38 -40.5 -53s-40.5 -26.833 -67.5 -35.5s-58.833 -13 -95.5 -13c-21.333 0 -40.833 0.833008 -58.5 2.5s-34.5 4.5 -50.5 8.5s-31.667 9.16699 -47 15.5s-31 14.5 -47 24.5
l31 80c16 -10 30.833 -18.5 44.5 -25.5s27.167 -12.667 40.5 -17s27.333 -7.5 42 -9.5s31 -3 49 -3c42 0 73.667 7.83301 95 23.5s32 37.834 32 66.501c0 28 -7.66699 48.5 -23 61.5s-40.666 23.833 -75.999 32.5l-101 24c-39.333 9.33301 -69.166 26.333 -89.499 51
s-30.5 56.667 -30.5 96c0 44 16.667 79.833 50 107.5s79 41.5 137 41.5c38.667 0 73.667 -4.16699 105 -12.5s60 -21.5 86 -39.5z" />
    <glyph glyph-name="t" unicode="t" horiz-adv-x="496" 
d="M466 560v-75h-172v-485h-92v485h-172v75h436z" />
    <glyph glyph-name="u" unicode="u" horiz-adv-x="618" 
d="M156 560v-331.998c0 -54 14 -95 42 -123s65 -42 111 -42c22 0 42.333 3.5 61 10.5s34.834 17.5 48.501 31.5s24.334 31.167 32.001 51.5s11.5 44.166 11.5 71.499v332h91v-320c0 -40.667 -6 -76.5 -18 -107.5s-28.833 -57.167 -50.5 -78.5s-47.334 -37.5 -77.001 -48.5
s-62.5 -16.5 -98.5 -16.5c-35.333 0 -67.833 5.16699 -97.5 15.5s-55.334 25.666 -77.001 45.999s-38.667 45.833 -51 76.5s-18.5 66.667 -18.5 108v325h91z" />
    <glyph glyph-name="v" unicode="v" horiz-adv-x="635" 
d="M129 560l187 -480h12l181 480h101l-229 -560h-124l-232 560h104z" />
    <glyph glyph-name="w" unicode="w" horiz-adv-x="925" 
d="M124 560l140 -480h7l131 480h120l133 -480h7l140 480h98l-177 -560h-135l-126 456h-5l-125 -456h-134l-173 560h99z" />
    <glyph glyph-name="x" unicode="x" horiz-adv-x="623" 
d="M149 560l164 -222l160 222h109l-209 -270l225 -290h-113l-175 241l-176 -241h-109l224 288l-210 272h110z" />
    <glyph glyph-name="y" unicode="y" horiz-adv-x="579" 
d="M246 0v232l-221 328h103l162 -245h5l159 245h100l-219 -328v-232h-89z" />
    <glyph glyph-name="z" unicode="z" horiz-adv-x="542" 
d="M500 560v-57l-340 -428h342v-75h-462v60l341 426h-331v74h450z" />
    <glyph glyph-name="braceleft" unicode="{" horiz-adv-x="301" 
d="M271 663l-32.998 0.000976562c-33.333 0 -50 -18.333 -50 -55v-185c0 -22 -4.33301 -42.333 -13 -61s-21.334 -31.334 -38.001 -38.001v-4c15.333 -6 27.666 -18 36.999 -36s14 -37.667 14 -59v-189c0 -36 16.667 -54 50 -54h33v-73h-42
c-39.333 0 -70.833 11.167 -94.5 33.5s-35.5 54.5 -35.5 96.5v206c0 14.667 -3.66699 25 -11 31s-17 9 -29 9h-29v74h29c12 0 21.667 3.16699 29 9.5s11 16.5 11 30.5v206c0 42 11.667 74.167 35 96.5s55 33.5 95 33.5h42v-72z" />
    <glyph glyph-name="bar" unicode="|" horiz-adv-x="237" 
d="M162 686v-796h-87v796h87z" />
    <glyph glyph-name="braceright" unicode="}" horiz-adv-x="301" 
d="M30 -16l32.998 -0.000976562c33.333 0 50 18 50 54v185c0 22 4.33301 42.333 13 61s21.334 31.334 38.001 38.001v4c-15.333 6 -27.666 18 -36.999 36s-14 37.667 -14 59v189c0 36.667 -16.667 55 -50 55h-33v72h42c39.333 0 70.833 -11.167 94.5 -33.5
s35.5 -54.5 35.5 -96.5v-206c0 -14.667 3.66699 -25 11 -31s17 -9 29 -9h29v-74h-29c-12 0 -21.667 -3.16699 -29 -9.5s-11 -16.5 -11 -30.5v-206c0 -42 -11.667 -74.167 -35 -96.5s-55 -33.5 -95 -33.5h-42v73z" />
    <glyph glyph-name="asciitilde" unicode="~" horiz-adv-x="445" 
d="M30 335c15.333 16.667 32.5 29.166 51.5 37.499s41.5 12.5 67.5 12.5c17.333 0 32.166 -2 44.499 -6s23.833 -8.5 34.5 -13.5s21.5 -9.5 32.5 -13.5s23.5 -6 37.5 -6c15.333 0 28.5 2.33301 39.5 7s22.167 12.667 33.5 24l41 -50
c-17.333 -20.667 -34.5 -35.5 -51.5 -44.5s-38.167 -13.5 -63.5 -13.5c-14.667 0 -28.5 2.16699 -41.5 6.5s-25.5 9.33301 -37.5 15s-24.167 10.667 -36.5 15s-25.166 6.5 -38.499 6.5c-19.333 0 -35.833 -3.16699 -49.5 -9.5s-25.5 -16.166 -35.5 -29.499z" />
    <glyph glyph-name="exclamdown" unicode="&#xa1;" horiz-adv-x="225" 
d="M65.0098 -28.959l12.999 508.97h68.9961l12.999 -508.97h-94.9941zM113.007 529.008c-21.332 0 -37.8311 6.33301 -49.4971 18.998c-11.666 12.666 -17.499 28.332 -17.499 46.9971c0 19.333 5.83301 34.666 17.499 45.999s28.165 16.999 49.4971 16.999
s37.6641 -5.66602 48.9971 -16.999s16.999 -26.666 16.999 -45.999c0 -18.665 -5.66602 -34.3311 -16.999 -46.9971c-11.333 -12.665 -27.665 -18.998 -48.9971 -18.998z" />
    <glyph glyph-name="cent" unicode="&#xa2;" horiz-adv-x="548" 
d="M471 403c-22 11.333 -44.1689 19.6699 -66.502 25.0029s-46.166 8 -71.499 8c-62.667 0 -111.5 -16 -146.5 -48s-52.5 -78.333 -52.5 -139c0 -27.333 4.83301 -52.333 14.5 -75s23 -42 40 -58s36.5 -28.333 58.5 -37s45.667 -13 71 -13c62 0 118.667 14 170 42l28 -73
c-25.333 -13.333 -50.666 -23.333 -75.999 -30s-52.333 -11 -81 -13v-75h-84v75c-36 4 -68.5 13.167 -97.5 27.5s-53.667 32.666 -74 54.999s-36 48.166 -47 77.499s-16.5 61 -16.5 95c0 34.667 6 66.667 18 96s28.5 55.166 49.5 77.499s45.833 40.833 74.5 55.5
s59.667 24.667 93 30v71h84v-68c31.333 -1.33301 58.833 -5 82.5 -11s46.5 -14.667 68.5 -26z" />
    <glyph glyph-name="currency" unicode="&#xa4;" horiz-adv-x="448" 
d="M137 410c24.667 14.667 53.332 22 85.999 22s61.334 -7.33301 86.001 -22l48 51l56 -54l-50 -47c8 -13.333 14.167 -26.333 18.5 -39s6.5 -27.334 6.5 -44.001c0 -16 -2.16699 -30.333 -6.5 -43s-10.5 -25.667 -18.5 -39l49 -47l-55 -55l-47 52
c-24.667 -15.333 -53.667 -23 -87 -23c-32.667 0 -61.667 7.33301 -87 22l-47 -52l-54 56l49 46c-8 13.333 -14.167 26.333 -18.5 39s-6.5 27.334 -6.5 44.001s2.16699 31.5 6.5 44.5s10.5 26.167 18.5 39.5l-49 48l55 53zM310.998 277
c0 25.333 -8.83203 45.833 -26.499 61.5s-38.167 23.5 -61.5 23.5c-11.333 0 -22.333 -2 -33 -6s-20 -9.83301 -28 -17.5s-14.333 -16.667 -19 -27s-7 -21.833 -7 -34.5s2.5 -24.334 7.5 -35.001s11.5 -19.667 19.5 -27s17.167 -13.166 27.5 -17.499
s21.166 -6.5 32.499 -6.5s22.333 2.16699 33 6.5s20 10.166 28 17.499s14.5 16.333 19.5 27s7.5 22.334 7.5 35.001z" />
    <glyph glyph-name="yen" unicode="&#xa5;" horiz-adv-x="630" 
d="M130 595l183 -291h7l182 291h103l-193 -287h71v-65h-332v65h69l-195 287h105zM483 206v-65h-120v-141h-94v141h-118v65h332z" />
    <glyph glyph-name="brokenbar" unicode="&#xa6;" horiz-adv-x="237" 
d="M162 686v-363h-87v363h87zM162 263v-373h-87v373h87z" />
    <glyph glyph-name="section" unicode="&#xa7;" horiz-adv-x="516" 
d="M388 579c-20 13.333 -39.833 22.665 -59.5 27.998s-41.167 8 -64.5 8c-30.667 0 -54.5 -4.66699 -71.5 -14s-25.5 -26 -25.5 -50c0 -11.333 2.5 -20.5 7.5 -27.5s11.667 -12.833 20 -17.5s17.666 -8.33398 27.999 -11.001l31.5 -8l63 -15
c44.667 -10.667 81.5 -27.667 110.5 -51s43.5 -55.666 43.5 -96.999c0 -26.667 -6.66699 -51.5 -20 -74.5s-32.333 -41.167 -57 -54.5c15.333 -12.667 26.666 -27.834 33.999 -45.501s11 -36.5 11 -56.5c0 -25.333 -6 -46.5 -18 -63.5s-27.5 -31 -46.5 -42
s-40.333 -18.833 -64 -23.5s-46.834 -7 -69.501 -7c-34 0 -66.333 3.16699 -97 9.5s-59 16.166 -85 29.499l25 78c28 -16.667 54.333 -27.5 79 -32.5s50.334 -7.5 77.001 -7.5c14.667 0 28.667 0.833008 42 2.5s25.166 4.83398 35.499 9.50098s18.5 11.334 24.5 20.001
s9 19.667 9 33c0 21.333 -7.66699 36.666 -23 45.999s-35.666 17 -60.999 23l-81 20c-49.333 12 -85.166 30.667 -107.499 56s-33.5 55.333 -33.5 90c0 54.667 26.667 97 80 127c-15.333 11.333 -26.833 23.833 -34.5 37.5s-11.5 30.834 -11.5 51.501
c0 23.333 5.33301 43.833 16 61.5s24.667 32.334 42 44.001s36.833 20.334 58.5 26.001s43.834 8.5 66.501 8.5c32.667 0 62.167 -3.33301 88.5 -10s52.833 -17.667 79.5 -33zM184 418.999c-18.667 -10 -32.167 -20.5 -40.5 -31.5s-12.5 -25.5 -12.5 -43.5
c0 -24 7.83301 -41.333 23.5 -52s39.5 -20 71.5 -28l109 -27c16 7.33301 28.333 18 37 32s13 29 13 45c0 12.667 -2.16699 23.334 -6.5 32.001s-10.5 16 -18.5 22s-17.833 11.167 -29.5 15.5s-25.167 8.16602 -40.5 11.499z" />
    <glyph glyph-name="copyright" unicode="&#xa9;" horiz-adv-x="761" 
d="M477 393c-12 8.66699 -25.166 14.833 -39.499 18.5s-29.5 5.5 -45.5 5.5c-35.333 0 -62.5 -9.16699 -81.5 -27.5s-28.5 -44.166 -28.5 -77.499c0 -16.667 2.83301 -31.5 8.5 -44.5s13.5 -24 23.5 -33s21.5 -15.833 34.5 -20.5s26.5 -7 40.5 -7
c20 0 37.833 2.16699 53.5 6.5s32.167 12.166 49.5 23.499l23 -62c-40 -24 -82 -36 -126 -36c-28 0 -53.5 4.16699 -76.5 12.5s-42.833 20 -59.5 35s-29.5 33.167 -38.5 54.5s-13.5 45 -13.5 71c0 27.333 5.16699 51.666 15.5 72.999s24.333 39.333 42 54
s38.167 25.834 61.5 33.501s48.333 11.5 75 11.5c43.333 0 82.666 -11.333 117.999 -34zM721.001 312.999c0 -48.667 -8.66699 -92.9961 -26 -132.996s-41.166 -74.333 -71.499 -103s-66.166 -50.834 -107.499 -66.501s-86 -23.5 -134 -23.5s-92.667 7.66699 -134 23
s-77.5 37.166 -108.5 65.499s-55.333 62.5 -73 102.5s-26.5 85 -26.5 135s8.83301 95 26.5 135s42 74.167 73 102.5s67.167 50.166 108.5 65.499s86 23 134 23s92.667 -7.83301 134 -23.5s77.166 -37.834 107.499 -66.501s54.166 -63 71.499 -103s26 -84.333 26 -133z
M125.001 313.003c0 -42.667 6.83301 -80 20.5 -112s32.334 -58.5 56.001 -79.5s51 -36.833 82 -47.5s63.833 -16 98.5 -16s67.5 5.33301 98.5 16s58.333 26.5 82 47.5s42.5 47.5 56.5 79.5s21 69.333 21 112s-7 80 -21 112s-32.833 58.5 -56.5 79.5s-51 36.833 -82 47.5
s-63.833 16 -98.5 16s-67.5 -5.33301 -98.5 -16s-58.333 -26.5 -82 -47.5s-42.334 -47.5 -56.001 -79.5s-20.5 -69.333 -20.5 -112z" />
    <glyph glyph-name="ordfeminine" unicode="&#xaa;" horiz-adv-x="395" 
d="M49 634c42.667 19.333 87.999 28.999 135.999 28.999c46.667 0 82.667 -8.66699 108 -26s38 -45.666 38 -84.999v-128c0 -15.333 2.5 -25.666 7.5 -30.999s15.5 -8 31.5 -8v-47c-13.333 -4.66699 -29 -7 -47 -7c-13.333 0 -24.166 4.5 -32.499 13.5
s-12.5 22.167 -12.5 39.5c-18 -17.333 -38 -30.5 -60 -39.5s-47.333 -13.5 -76 -13.5c-38 0 -66.167 8.83301 -84.5 26.5s-27.5 41.5 -27.5 71.5c0 29.333 11.667 55.666 35 78.999c14.667 4.66699 29 8.66699 43 12s28.667 6 44 8s32.166 3.5 50.499 4.5
s38.833 1.5 61.5 1.5v16c0 22 -5.66699 36.5 -17 43.5s-32.666 10.5 -63.999 10.5c-20 0 -39.167 -2 -57.5 -6s-37.5 -10.667 -57.5 -20zM263.999 482.999c-18.667 0 -34.999 -0.333008 -48.999 -1s-26.833 -1.66699 -38.5 -3s-22.667 -3 -33 -5s-20.5 -4.66699 -30.5 -8
c-8 -8.66699 -12 -20 -12 -34c0 -14.667 4.66699 -25.167 14 -31.5s22 -9.5 38 -9.5c23.333 0 43.666 3.33301 60.999 10s34 17 50 31v51z" />
    <glyph glyph-name="guillemotleft" unicode="&#xab;" horiz-adv-x="459" 
d="M252 358l-112 -99l112 -105l-38 -58l-174 141v38l174 141zM424 368l-112 -109l112 -115l-38 -58l-174 154v38l174 148z" />
    <glyph glyph-name="logicalnot" unicode="&#xac;" horiz-adv-x="390" 
d="M350 372l-7 -180h-68l-8 104h-227v76h310z" />
    <glyph glyph-name="uni00AD" unicode="&#xad;" horiz-adv-x="381" 
d="M341 303v-76h-301v76h301z" />
    <glyph glyph-name="registered" unicode="&#xae;" horiz-adv-x="437" 
d="M218 291c-26 0 -49.998 4.5 -71.998 13.5s-41.333 21.333 -58 37s-29.667 34.5 -39 56.5s-14 46 -14 72c0 25.333 4.66699 49 14 71s22.166 41 38.499 57s35.666 28.667 57.999 38s46.5 14 72.5 14c25.333 0 49.166 -4.5 71.499 -13.5s41.666 -21.5 57.999 -37.5
s29.333 -35 39 -57s14.5 -46 14.5 -72s-4.83301 -49.833 -14.5 -71.5s-22.667 -40.5 -39 -56.5s-35.666 -28.5 -57.999 -37.5s-46.166 -13.5 -71.499 -13.5zM350.002 470c0 42 -12 74.833 -36 98.5s-56 35.5 -96 35.5c-42 0 -74.5 -11.833 -97.5 -35.5
s-34.5 -56.5 -34.5 -98.5c0 -40.667 11.5 -73.167 34.5 -97.5s55.5 -36.5 97.5 -36.5c40 0 72 12.167 96 36.5s36 56.833 36 97.5zM297.002 376l-45 0.000976562l-33 72h-28v-72h-42v192h70c19.333 0 36.5 -4.5 51.5 -13.5s22.5 -24.5 22.5 -46.5
c0 -13.333 -2.83301 -23.833 -8.5 -31.5s-14.167 -13.834 -25.5 -18.501zM191.002 485.001h28c20.667 0 31 7.66699 31 23c0 6.66699 -2.16699 12.167 -6.5 16.5s-10.5 6.5 -18.5 6.5h-34v-46z" />
    <glyph glyph-name="degree" unicode="&#xb0;" horiz-adv-x="369" 
d="M334 521c0 -20.667 -3.83301 -39.667 -11.5 -57s-18.167 -32.333 -31.5 -45s-29.166 -22.5 -47.499 -29.5s-38.166 -10.5 -59.499 -10.5s-41 3.5 -59 10.5s-33.667 16.833 -47 29.5s-23.833 27.667 -31.5 45s-11.5 36.333 -11.5 57s3.83301 39.667 11.5 57
s18.167 32.333 31.5 45s29 22.5 47 29.5s37.667 10.5 59 10.5s41.166 -3.5 59.499 -10.5s34.166 -16.833 47.499 -29.5s23.833 -27.667 31.5 -45s11.5 -36.333 11.5 -57zM110 521c0 -25.333 6.83301 -44.166 20.5 -56.499s31.5 -18.5 53.5 -18.5
c22.667 0 40.834 6.16699 54.501 18.5s20.5 31.166 20.5 56.499s-6.83301 44.166 -20.5 56.499s-31.834 18.5 -54.501 18.5c-22 0 -39.833 -6.16699 -53.5 -18.5s-20.5 -31.166 -20.5 -56.499z" />
    <glyph glyph-name="plusminus" unicode="&#xb1;" horiz-adv-x="422" 
d="M252 572v-130h130v-76h-130v-130h-82v130h-130v76h130v130h82zM362 187v-76h-301v76h301z" />
    <glyph glyph-name="twosuperior" unicode="&#xb2;" horiz-adv-x="332" 
d="M296 375l-270.998 0.00195312v61l157 119c17.333 12.667 29.833 25 37.5 37s11.5 25.667 11.5 41c0 17.333 -5.83301 31.166 -17.5 41.499s-29.834 15.5 -54.501 15.5c-20 0 -38 -3.5 -54 -10.5s-32 -18.167 -48 -33.5l-34 51c19.333 19.333 40.166 33.666 62.499 42.999
s48.5 14 78.5 14c42 0 75.5 -10.833 100.5 -32.5s37.5 -50.834 37.5 -87.501c0 -22 -4.66699 -42.667 -14 -62s-23.333 -35.666 -42 -48.999l-117 -86h167v-62z" />
    <glyph glyph-name="threesuperior" unicode="&#xb3;" horiz-adv-x="357" 
d="M262 582c40 -18 60.0049 -47.9961 60.0049 -89.9961c0 -22 -4.33301 -40.833 -13 -56.5s-20.334 -28.667 -35.001 -39s-31.5 -18 -50.5 -23s-38.833 -7.5 -59.5 -7.5c-16.667 0 -31.334 0.666992 -44.001 2s-24.334 3.66602 -35.001 6.99902
s-20.834 7.66602 -30.501 12.999s-19.5 12 -29.5 20l24 55c19.333 -14.667 37.333 -24.834 54 -30.501s35.667 -8.5 57 -8.5c26 0 48 5.66699 66 17s27 28.333 27 51c0 19.333 -5.5 32.833 -16.5 40.5s-29.167 11.5 -54.5 11.5h-83v58h74
c19.333 0 34.166 3.16699 44.499 9.5s15.5 18.166 15.5 35.499c0 31.333 -22.333 47 -67 47c-36 0 -67.667 -10.333 -95 -31l-33 47c20 16.667 40.333 28.167 61 34.5s45 9.5 73 9.5c14.667 0 29.5 -2 44.5 -6s28.667 -10 41 -18s22.5 -18.167 30.5 -30.5
s12 -26.833 12 -43.5c0 -18 -3 -32.833 -9 -44.5s-15.667 -21.5 -29 -29.5z" />
    <glyph glyph-name="mu" unicode="&#xb5;" horiz-adv-x="604" 
d="M65 -229v729h92v-302c0 -44 8 -77 24 -99s45.333 -33 88 -33c39.333 0 72.833 7.33301 100.5 22s53.167 37 76.5 67v345h93v-500h-71l-16 79c-24 -32 -51.5 -54.833 -82.5 -68.5s-64.5 -20.5 -100.5 -20.5c-26 0 -48.333 3 -67 9s-35.667 16.333 -51 31l7 -129v-131z" />
    <glyph glyph-name="paragraph" unicode="&#xb6;" horiz-adv-x="384" 
d="M337 566l-74 7.99707h-25c-80.667 0 -121 -24.667 -121 -74c0 -25.333 5.66699 -44.166 17 -56.499s30 -18.5 56 -18.5c36 0 61 17.333 75 52l52 -4v-440c0 -65.333 -9.83301 -119 -29.5 -161s-51.167 -77.333 -94.5 -106l-57 53c18 14.667 32.833 29.334 44.5 44.001
s21 29.834 28 45.501s12 32 15 49s4.5 35.5 4.5 55.5v342c-14 -5.33301 -30.667 -8 -50 -8c-46 0 -82.167 13.5 -108.5 40.5s-39.5 62.5 -39.5 106.5c0 24 5.33301 45.667 16 65s24.667 35.833 42 49.5s37.5 24 60.5 31s47.167 10.5 72.5 10.5h128z" />
    <glyph glyph-name="periodcentered" unicode="&#xb7;" horiz-adv-x="233" 
d="M116 310c21.333 0 37.833 -6.33301 49.5 -19s17.5 -28.334 17.5 -47.001c0 -19.333 -5.83301 -34.666 -17.5 -45.999s-28.167 -17 -49.5 -17s-37.666 5.66699 -48.999 17s-17 26.666 -17 45.999c0 18.667 5.66699 34.334 17 47.001s27.666 19 48.999 19z" />
    <glyph glyph-name="onesuperior" unicode="&#xb9;" horiz-adv-x="226" 
d="M137 748l39 -5v-368h-71v284l-71 -19l-17 43z" />
    <glyph glyph-name="ordmasculine" unicode="&#xba;" horiz-adv-x="408" 
d="M378 497c0 -24 -4.5 -46.167 -13.5 -66.5s-21.167 -37.833 -36.5 -52.5s-33.666 -26.167 -54.999 -34.5s-44.333 -12.5 -69 -12.5s-47.667 4.16699 -69 12.5s-39.666 19.833 -54.999 34.5s-27.5 32.167 -36.5 52.5s-13.5 42.5 -13.5 66.5s4.5 46.167 13.5 66.5
s21.167 37.833 36.5 52.5s33.666 26.167 54.999 34.5s44.333 12.5 69 12.5s47.667 -4.16699 69 -12.5s39.666 -19.833 54.999 -34.5s27.5 -32.167 36.5 -52.5s13.5 -42.5 13.5 -66.5zM105 497c0 -17.333 2.83301 -32.166 8.5 -44.499s13 -22.833 22 -31.5s19.5 -15 31.5 -19
s24.333 -6 37 -6s25 2 37 6s22.5 10.333 31.5 19s16.333 19.167 22 31.5s8.5 27.166 8.5 44.499c0 16.667 -2.83301 31.334 -8.5 44.001s-13 23.334 -22 32.001s-19.5 15 -31.5 19s-24.333 6 -37 6s-25 -2 -37 -6s-22.5 -10.333 -31.5 -19s-16.333 -19.334 -22 -32.001
s-8.5 -27.334 -8.5 -44.001z" />
    <glyph glyph-name="guillemotright" unicode="&#xbb;" horiz-adv-x="459" 
d="M424 275v-38l-174 -141l-38 58l112 99l-112 105l38 58zM252 272v-38l-174 -148l-38 58l112 109l-112 115l38 58z" />
    <glyph glyph-name="questiondown" unicode="&#xbf;" horiz-adv-x="468" 
d="M265.013 480.011c9.33301 -18.666 14.001 -40.9971 14.001 -66.9951c0 -19.332 -3.66699 -36.3311 -11 -50.9971s-16.832 -27.165 -28.498 -37.498s-24.665 -19.166 -38.9971 -26.499c-14.333 -7.33301 -28.166 -13.666 -41.499 -18.999
c-31.3311 -11.999 -55.6631 -26.8311 -72.9951 -44.4961s-25.998 -42.8301 -25.998 -75.4951c0 -33.998 12.999 -61.4961 38.9971 -82.4951c25.999 -20.999 63.3301 -31.498 111.993 -31.498c33.998 0 67.3291 6.66602 99.9941 19.999
c32.665 13.332 60.6631 31.9971 83.9951 55.9961l47.9971 -62.9961c-29.999 -29.3311 -65.1641 -51.6631 -105.495 -66.9961c-40.3311 -15.332 -84.8281 -22.998 -133.492 -22.998c-33.9971 0 -65.1621 4.16602 -93.4941 12.499
c-28.3311 8.33301 -52.6631 20.832 -72.9951 37.498c-20.332 16.665 -36.3311 37.6641 -47.9971 62.9961c-11.666 25.3311 -17.499 54.6621 -17.499 87.9932c0 30.665 8.49902 59.8301 25.498 87.4951s42.498 50.1631 76.4961 67.4951c15.332 8 30.498 15 45.4971 20.999
s28.3311 12.832 39.9971 20.499c11.666 7.66602 21.166 17.165 28.499 28.498s10.999 26.332 10.999 44.9971v40.998h65.9961zM232.017 529.009c-21.332 0 -37.8311 6.33301 -49.4971 18.998c-11.666 12.666 -17.499 28.332 -17.499 46.9971
c0 19.333 5.83301 34.666 17.499 45.999s28.165 16.999 49.4971 16.999s37.6641 -5.66602 48.9971 -16.999s16.999 -26.666 16.999 -45.999c0 -18.665 -5.66602 -34.3311 -16.999 -46.9971c-11.333 -12.665 -27.665 -18.998 -48.9971 -18.998z" />
    <glyph glyph-name="Agrave" unicode="&#xc0;" horiz-adv-x="707" 
d="M406 650l278 -650h-99l-85 197h-299l-81 -197h-98l279 650h105zM232 275h238l-114 283h-9zM379 698h-69l-98 136l78 47z" />
    <glyph glyph-name="Aacute" unicode="&#xc1;" horiz-adv-x="707" 
d="M406 650l278 -650h-99l-85 197h-299l-81 -197h-98l279 650h105zM232 275h238l-114 283h-9zM416 881l78 -47l-98 -136h-69z" />
    <glyph glyph-name="Acircumflex" unicode="&#xc2;" horiz-adv-x="707" 
d="M406 650l278 -650h-99l-85 197h-299l-81 -197h-98l279 650h105zM232 275h238l-114 283h-9zM353 768l-132 -86l-21 54l141 119h23l142 -119l-21 -54z" />
    <glyph glyph-name="Atilde" unicode="&#xc3;" horiz-adv-x="707" 
d="M406 650l278 -650h-99l-85 197h-299l-81 -197h-98l279 650h105zM232 275h238l-114 283h-9zM172 765c14.667 14.667 32.168 25.833 52.501 33.5s41.833 11.5 64.5 11.5c16 0 29.667 -2 41 -6s22 -8.16699 32 -12.5l29.5 -12.5c9.66699 -4 21.167 -6 34.5 -6
c14 0 26 2 36 6s20.667 11.667 32 23l41 -48c-28.667 -36.667 -64.667 -55 -108 -55c-15.333 0 -29 2 -41 6s-23.667 8.5 -35 13.5s-22.5 9.5 -33.5 13.5s-22.5 6 -34.5 6c-32.667 0 -60.334 -13 -83.001 -39z" />
    <glyph glyph-name="Adieresis" unicode="&#xc4;" horiz-adv-x="707" 
d="M406 650l278 -650h-99l-85 197h-299l-81 -197h-98l279 650h105zM232 275h238l-114 283h-9zM243 828c20.667 0 36.5 -5.66699 47.5 -17s16.5 -26 16.5 -44c0 -17.333 -5.5 -31.666 -16.5 -42.999s-26.833 -17 -47.5 -17c-19.333 0 -34.5 5.66699 -45.5 17
s-16.5 25.666 -16.5 42.999c0 18 5.5 32.667 16.5 44s26.167 17 45.5 17zM462 828c19.333 0 34.666 -5.66699 45.999 -17s17 -26 17 -44c0 -17.333 -5.66699 -31.666 -17 -42.999s-26.666 -17 -45.999 -17s-34.666 5.66699 -45.999 17s-17 25.666 -17 42.999
c0 18 5.66699 32.667 17 44s26.666 17 45.999 17z" />
    <glyph glyph-name="Aring" unicode="&#xc5;" horiz-adv-x="707" 
d="M406 650l278 -650h-99l-85 197h-299l-81 -197h-98l279 650h105zM232 275h238l-114 283h-9zM353 674c-34.667 0 -62.8311 10.5 -84.498 31.5s-32.5 47.833 -32.5 80.5c0 15.333 3 29.833 9 43.5s14.167 25.5 24.5 35.5s22.666 17.833 36.999 23.5s29.833 8.5 46.5 8.5
s32.167 -2.83301 46.5 -8.5s26.666 -13.5 36.999 -23.5s18.5 -21.833 24.5 -35.5s9 -28.167 9 -43.5c0 -33.333 -11 -60.333 -33 -81s-50 -31 -84 -31zM409.003 786c0 16 -5.33301 29.167 -16 39.5s-24 15.5 -40 15.5s-29.5 -5.16699 -40.5 -15.5s-16.5 -23.5 -16.5 -39.5
s5.5 -29.333 16.5 -40s24.5 -16 40.5 -16s29.333 5.33301 40 16s16 24 16 40z" />
    <glyph glyph-name="AE" unicode="&#xc6;" horiz-adv-x="951" 
d="M894 650v-79h-323v-194h290v-78h-290v-220h337v-79h-433v140h-272l-86 -140h-102l390 650h489zM245 219h230v345h-27z" />
    <glyph glyph-name="Ccedilla" unicode="&#xc7;" horiz-adv-x="660" 
d="M584 518c-32 23.333 -63.167 40.333 -93.5 51s-63.5 16 -99.5 16c-38.667 0 -73.834 -6.5 -105.501 -19.5s-58.667 -31 -81 -54s-39.5 -50.333 -51.5 -82s-18 -66.167 -18 -103.5c0 -42 6.66699 -78.833 20 -110.5s31.5 -58.334 54.5 -80.001s50 -37.834 81 -48.501
s64.167 -16 99.5 -16c42 0 80.333 5.83301 115 17.5s69.667 30.834 105 57.501l12 -94c-16.667 -11.333 -33.334 -21 -50.001 -29s-34 -14.5 -52 -19.5s-36.667 -8.83301 -56 -11.5s-40 -4.33398 -62 -5.00098l-4 -35c23.333 0 41.333 -6.16699 54 -18.5s19 -29.5 19 -51.5
c0 -18.667 -4.83301 -35.167 -14.5 -49.5s-22 -26.666 -37 -36.999s-31.667 -18.833 -50 -25.5s-35.833 -11.334 -52.5 -14.001l-13 61c27.333 4.66699 50 11.834 68 21.501s27 23.5 27 41.5s-12 27 -36 27h-33l3 83c-39.333 4 -76.666 13.833 -111.999 29.5
s-66.333 37.334 -93 65.001s-48 61.5 -64 101.5s-24 86.667 -24 140c0 50 9.33301 95.833 28 137.5s44 77.167 76 106.5s69.333 52.166 112 68.499s87.667 24.5 135 24.5c48.667 0 90.834 -5.66699 126.501 -17s70.5 -29.666 104.5 -54.999z" />
    <glyph glyph-name="Egrave" unicode="&#xc8;" horiz-adv-x="541" 
d="M65 650h419v-79h-323v-194h290v-78h-290v-220h337v-79h-433v650zM324 698h-69l-98 136l78 47z" />
    <glyph glyph-name="Eacute" unicode="&#xc9;" horiz-adv-x="541" 
d="M65 650h419v-79h-323v-194h290v-78h-290v-220h337v-79h-433v650zM329 881l78 -47l-98 -136h-69z" />
    <glyph glyph-name="Ecircumflex" unicode="&#xca;" horiz-adv-x="541" 
d="M65 650h419v-79h-323v-194h290v-78h-290v-220h337v-79h-433v650zM285 777l-132 -86l-21 54l141 119h23l142 -119l-21 -54z" />
    <glyph glyph-name="Edieresis" unicode="&#xcb;" horiz-adv-x="541" 
d="M65 650h419v-79h-323v-194h290v-78h-290v-220h337v-79h-433v650zM171 828c20.667 0 36.5 -5.66699 47.5 -17s16.5 -26 16.5 -44c0 -17.333 -5.5 -31.666 -16.5 -42.999s-26.833 -17 -47.5 -17c-19.333 0 -34.5 5.66699 -45.5 17s-16.5 25.666 -16.5 42.999
c0 18 5.5 32.667 16.5 44s26.167 17 45.5 17zM390 828c19.333 0 34.666 -5.66699 45.999 -17s17 -26 17 -44c0 -17.333 -5.66699 -31.666 -17 -42.999s-26.666 -17 -45.999 -17s-34.666 5.66699 -45.999 17s-17 25.666 -17 42.999c0 18 5.66699 32.667 17 44
s26.666 17 45.999 17z" />
    <glyph glyph-name="Igrave" unicode="&#xcc;" horiz-adv-x="225" 
d="M160 650v-650h-95v650h95zM149 698h-69l-98 136l78 47z" />
    <glyph glyph-name="Iacute" unicode="&#xcd;" horiz-adv-x="225" 
d="M160 650v-650h-95v650h95zM169 881l78 -47l-98 -136h-69z" />
    <glyph glyph-name="Icircumflex" unicode="&#xce;" horiz-adv-x="225" 
d="M160 650v-650h-95v650h95zM113 768l-132 -86l-21 54l141 119h23l142 -119l-21 -54z" />
    <glyph glyph-name="Idieresis" unicode="&#xcf;" horiz-adv-x="225" 
d="M160 650v-650h-95v650h95zM3 828c20.667 0 36.5 -5.66699 47.5 -17s16.5 -26 16.5 -44c0 -17.333 -5.5 -31.666 -16.5 -42.999s-26.833 -17 -47.5 -17c-19.333 0 -34.5 5.66699 -45.5 17s-16.5 25.666 -16.5 42.999c0 18 5.5 32.667 16.5 44s26.167 17 45.5 17zM222 828
c19.333 0 34.666 -5.66699 45.999 -17s17 -26 17 -44c0 -17.333 -5.66699 -31.666 -17 -42.999s-26.666 -17 -45.999 -17s-34.666 5.66699 -45.999 17s-17 25.666 -17 42.999c0 18 5.66699 32.667 17 44s26.666 17 45.999 17z" />
    <glyph glyph-name="Eth" unicode="&#xd0;" horiz-adv-x="706" 
d="M312 650c54.667 0 103.832 -7.49902 147.499 -22.499s80.834 -36.5 111.501 -64.5s54.167 -62.333 70.5 -103s24.5 -87 24.5 -139c0 -53.333 -9.33301 -100 -28 -140s-44.5 -73.333 -77.5 -100s-72.5 -46.834 -118.5 -60.501s-96 -20.5 -150 -20.5h-221v294h-66v75h66
v281h241zM165.998 369.001h163v-75h-163v-215h134c38.667 0 74.667 4.33301 108 13s62 22.667 86 42s42.833 44.333 56.5 75s20.5 68 20.5 112c0 44.667 -6.16699 82.834 -18.5 114.501s-29.833 57.667 -52.5 78s-50 35.166 -82 44.499s-67.333 14 -106 14h-146v-203z" />
    <glyph glyph-name="Ntilde" unicode="&#xd1;" horiz-adv-x="734" 
d="M164 650l417 -531l-3 170v361h91v-650h-102l-418 533l6 -198v-335h-90v650h99zM186 765c14.667 14.667 32.168 25.833 52.501 33.5s41.833 11.5 64.5 11.5c16 0 29.667 -2 41 -6s22 -8.16699 32 -12.5l29.5 -12.5c9.66699 -4 21.167 -6 34.5 -6c14 0 26 2 36 6
s20.667 11.667 32 23l41 -48c-28.667 -36.667 -64.667 -55 -108 -55c-15.333 0 -29 2 -41 6s-23.667 8.5 -35 13.5s-22.5 9.5 -33.5 13.5s-22.5 6 -34.5 6c-32.667 0 -60.334 -13 -83.001 -39z" />
    <glyph glyph-name="Ograve" unicode="&#xd2;" horiz-adv-x="780" 
d="M740 325c0 -50 -9 -95.667 -27 -137s-42.833 -77 -74.5 -107s-68.834 -53.167 -111.501 -69.5s-88.334 -24.5 -137.001 -24.5c-49.333 0 -95.166 8.16699 -137.499 24.5s-79.333 39.5 -111 69.5s-56.5 65.667 -74.5 107s-27 87 -27 137s9 95.667 27 137
s42.833 77 74.5 107s68.667 53.167 111 69.5s88.166 24.5 137.499 24.5c48.667 0 94.334 -8.16699 137.001 -24.5s79.834 -39.5 111.501 -69.5s56.5 -65.667 74.5 -107s27 -87 27 -137zM136 325c0 -41.333 6.83301 -78 20.5 -110s32 -59 55 -81s49.833 -38.833 80.5 -50.5
s63.334 -17.5 98.001 -17.5s67.334 5.83301 98.001 17.5s57.5 28.5 80.5 50.5s41.333 49 55 81s20.5 68.667 20.5 110s-6.83301 78 -20.5 110s-32 59 -55 81s-49.833 38.833 -80.5 50.5s-63.334 17.5 -98.001 17.5s-67.334 -5.83301 -98.001 -17.5s-57.5 -28.5 -80.5 -50.5
s-41.333 -49 -55 -81s-20.5 -68.667 -20.5 -110zM420 703h-69l-98 136l78 47z" />
    <glyph glyph-name="Oacute" unicode="&#xd3;" horiz-adv-x="780" 
d="M740 325c0 -50 -9 -95.667 -27 -137s-42.833 -77 -74.5 -107s-68.834 -53.167 -111.501 -69.5s-88.334 -24.5 -137.001 -24.5c-49.333 0 -95.166 8.16699 -137.499 24.5s-79.333 39.5 -111 69.5s-56.5 65.667 -74.5 107s-27 87 -27 137s9 95.667 27 137
s42.833 77 74.5 107s68.667 53.167 111 69.5s88.166 24.5 137.499 24.5c48.667 0 94.334 -8.16699 137.001 -24.5s79.834 -39.5 111.501 -69.5s56.5 -65.667 74.5 -107s27 -87 27 -137zM136 325c0 -41.333 6.83301 -78 20.5 -110s32 -59 55 -81s49.833 -38.833 80.5 -50.5
s63.334 -17.5 98.001 -17.5s67.334 5.83301 98.001 17.5s57.5 28.5 80.5 50.5s41.333 49 55 81s20.5 68.667 20.5 110s-6.83301 78 -20.5 110s-32 59 -55 81s-49.833 38.833 -80.5 50.5s-63.334 17.5 -98.001 17.5s-67.334 -5.83301 -98.001 -17.5s-57.5 -28.5 -80.5 -50.5
s-41.333 -49 -55 -81s-20.5 -68.667 -20.5 -110zM441 886l78 -47l-98 -136h-69z" />
    <glyph glyph-name="Ocircumflex" unicode="&#xd4;" horiz-adv-x="780" 
d="M740 325c0 -50 -9 -95.667 -27 -137s-42.833 -77 -74.5 -107s-68.834 -53.167 -111.501 -69.5s-88.334 -24.5 -137.001 -24.5c-49.333 0 -95.166 8.16699 -137.499 24.5s-79.333 39.5 -111 69.5s-56.5 65.667 -74.5 107s-27 87 -27 137s9 95.667 27 137
s42.833 77 74.5 107s68.667 53.167 111 69.5s88.166 24.5 137.499 24.5c48.667 0 94.334 -8.16699 137.001 -24.5s79.834 -39.5 111.501 -69.5s56.5 -65.667 74.5 -107s27 -87 27 -137zM136 325c0 -41.333 6.83301 -78 20.5 -110s32 -59 55 -81s49.833 -38.833 80.5 -50.5
s63.334 -17.5 98.001 -17.5s67.334 5.83301 98.001 17.5s57.5 28.5 80.5 50.5s41.333 49 55 81s20.5 68.667 20.5 110s-6.83301 78 -20.5 110s-32 59 -55 81s-49.833 38.833 -80.5 50.5s-63.334 17.5 -98.001 17.5s-67.334 -5.83301 -98.001 -17.5s-57.5 -28.5 -80.5 -50.5
s-41.333 -49 -55 -81s-20.5 -68.667 -20.5 -110zM390 777l-132 -86l-21 54l141 119h23l142 -119l-21 -54z" />
    <glyph glyph-name="Otilde" unicode="&#xd5;" horiz-adv-x="780" 
d="M740 325c0 -50 -9 -95.667 -27 -137s-42.833 -77 -74.5 -107s-68.834 -53.167 -111.501 -69.5s-88.334 -24.5 -137.001 -24.5c-49.333 0 -95.166 8.16699 -137.499 24.5s-79.333 39.5 -111 69.5s-56.5 65.667 -74.5 107s-27 87 -27 137s9 95.667 27 137
s42.833 77 74.5 107s68.667 53.167 111 69.5s88.166 24.5 137.499 24.5c48.667 0 94.334 -8.16699 137.001 -24.5s79.834 -39.5 111.501 -69.5s56.5 -65.667 74.5 -107s27 -87 27 -137zM136 325c0 -41.333 6.83301 -78 20.5 -110s32 -59 55 -81s49.833 -38.833 80.5 -50.5
s63.334 -17.5 98.001 -17.5s67.334 5.83301 98.001 17.5s57.5 28.5 80.5 50.5s41.333 49 55 81s20.5 68.667 20.5 110s-6.83301 78 -20.5 110s-32 59 -55 81s-49.833 38.833 -80.5 50.5s-63.334 17.5 -98.001 17.5s-67.334 -5.83301 -98.001 -17.5s-57.5 -28.5 -80.5 -50.5
s-41.333 -49 -55 -81s-20.5 -68.667 -20.5 -110zM209 765c14.667 14.667 32.168 25.833 52.501 33.5s41.833 11.5 64.5 11.5c16 0 29.667 -2 41 -6s22 -8.16699 32 -12.5l29.5 -12.5c9.66699 -4 21.167 -6 34.5 -6c14 0 26 2 36 6s20.667 11.667 32 23l41 -48
c-28.667 -36.667 -64.667 -55 -108 -55c-15.333 0 -29 2 -41 6s-23.667 8.5 -35 13.5s-22.5 9.5 -33.5 13.5s-22.5 6 -34.5 6c-32.667 0 -60.334 -13 -83.001 -39z" />
    <glyph glyph-name="Odieresis" unicode="&#xd6;" horiz-adv-x="780" 
d="M740 325c0 -50 -9 -95.667 -27 -137s-42.833 -77 -74.5 -107s-68.834 -53.167 -111.501 -69.5s-88.334 -24.5 -137.001 -24.5c-49.333 0 -95.166 8.16699 -137.499 24.5s-79.333 39.5 -111 69.5s-56.5 65.667 -74.5 107s-27 87 -27 137s9 95.667 27 137
s42.833 77 74.5 107s68.667 53.167 111 69.5s88.166 24.5 137.499 24.5c48.667 0 94.334 -8.16699 137.001 -24.5s79.834 -39.5 111.501 -69.5s56.5 -65.667 74.5 -107s27 -87 27 -137zM136 325c0 -41.333 6.83301 -78 20.5 -110s32 -59 55 -81s49.833 -38.833 80.5 -50.5
s63.334 -17.5 98.001 -17.5s67.334 5.83301 98.001 17.5s57.5 28.5 80.5 50.5s41.333 49 55 81s20.5 68.667 20.5 110s-6.83301 78 -20.5 110s-32 59 -55 81s-49.833 38.833 -80.5 50.5s-63.334 17.5 -98.001 17.5s-67.334 -5.83301 -98.001 -17.5s-57.5 -28.5 -80.5 -50.5
s-41.333 -49 -55 -81s-20.5 -68.667 -20.5 -110zM280 828c20.667 0 36.5 -5.66699 47.5 -17s16.5 -26 16.5 -44c0 -17.333 -5.5 -31.666 -16.5 -42.999s-26.833 -17 -47.5 -17c-19.333 0 -34.5 5.66699 -45.5 17s-16.5 25.666 -16.5 42.999c0 18 5.5 32.667 16.5 44
s26.167 17 45.5 17zM499 828c19.333 0 34.666 -5.66699 45.999 -17s17 -26 17 -44c0 -17.333 -5.66699 -31.666 -17 -42.999s-26.666 -17 -45.999 -17s-34.666 5.66699 -45.999 17s-17 25.666 -17 42.999c0 18 5.66699 32.667 17 44s26.666 17 45.999 17z" />
    <glyph glyph-name="multiply" unicode="&#xd7;" horiz-adv-x="382" 
d="M191 373l103 102l53 -53l-102 -103l102 -103l-53 -53l-103 102l-103 -102l-53 53l102 103l-102 103l53 53z" />
    <glyph glyph-name="Oslash" unicode="&#xd8;" horiz-adv-x="780" 
d="M683 627l-45.9971 -57c32 -30 57.167 -65.833 75.5 -107.5s27.5 -87.5 27.5 -137.5s-9 -95.667 -27 -137s-42.833 -77 -74.5 -107s-68.834 -53.167 -111.501 -69.5s-88.334 -24.5 -137.001 -24.5c-68.667 0 -130 15.333 -184 46l-46 -57l-70 44l50 62
c-31.333 30 -55.833 65.5 -73.5 106.5s-26.5 86.5 -26.5 136.5s9 95.667 27 137s42.833 77 74.5 107s68.667 53.167 111 69.5s88.166 24.5 137.499 24.5c33.333 0 65 -3.83301 95 -11.5s58 -18.5 84 -32.5l42 52zM258.003 98c39.333 -21.333 83.332 -31.999 131.999 -31.999
c34.667 0 67.334 5.83301 98.001 17.5s57.5 28.5 80.5 50.5s41.333 49 55 81s20.5 68.667 20.5 110c0 37.333 -5.5 70.666 -16.5 99.999s-26.167 55 -45.5 77zM517.002 553.001c-39.333 20.667 -81.666 31 -126.999 31c-34.667 0 -67.334 -5.83301 -98.001 -17.5
s-57.5 -28.5 -80.5 -50.5s-41.333 -49 -55 -81s-20.5 -68.667 -20.5 -110c0 -36.667 5.16699 -69.5 15.5 -98.5s24.833 -54.167 43.5 -75.5z" />
    <glyph glyph-name="Ugrave" unicode="&#xd9;" horiz-adv-x="680" 
d="M160 650l-0.00195312 -379c0 -69.333 15.833 -121.333 47.5 -156s75.834 -52 132.501 -52s100.834 17.333 132.501 52s47.5 86.667 47.5 156v379h95v-372c0 -50 -6.5 -93.167 -19.5 -129.5s-31.333 -66.5 -55 -90.5s-52.5 -41.833 -86.5 -53.5s-72 -17.5 -114 -17.5
s-80 5.83301 -114 17.5s-62.833 29.5 -86.5 53.5s-42 54.167 -55 90.5s-19.5 79.5 -19.5 129.5v372h95zM381.998 698h-69l-98 136l78 47z" />
    <glyph glyph-name="Uacute" unicode="&#xda;" horiz-adv-x="680" 
d="M160 650l-0.00195312 -379c0 -69.333 15.833 -121.333 47.5 -156s75.834 -52 132.501 -52s100.834 17.333 132.501 52s47.5 86.667 47.5 156v379h95v-372c0 -50 -6.5 -93.167 -19.5 -129.5s-31.333 -66.5 -55 -90.5s-52.5 -41.833 -86.5 -53.5s-72 -17.5 -114 -17.5
s-80 5.83301 -114 17.5s-62.833 29.5 -86.5 53.5s-42 54.167 -55 90.5s-19.5 79.5 -19.5 129.5v372h95zM379.998 881l78 -47l-98 -136h-69z" />
    <glyph glyph-name="Ucircumflex" unicode="&#xdb;" horiz-adv-x="680" 
d="M160 650l-0.00195312 -379c0 -69.333 15.833 -121.333 47.5 -156s75.834 -52 132.501 -52s100.834 17.333 132.501 52s47.5 86.667 47.5 156v379h95v-372c0 -50 -6.5 -93.167 -19.5 -129.5s-31.333 -66.5 -55 -90.5s-52.5 -41.833 -86.5 -53.5s-72 -17.5 -114 -17.5
s-80 5.83301 -114 17.5s-62.833 29.5 -86.5 53.5s-42 54.167 -55 90.5s-19.5 79.5 -19.5 129.5v372h95zM339.998 777l-132 -86l-21 54l141 119h23l142 -119l-21 -54z" />
    <glyph glyph-name="Udieresis" unicode="&#xdc;" horiz-adv-x="680" 
d="M160 650l-0.00195312 -379c0 -69.333 15.833 -121.333 47.5 -156s75.834 -52 132.501 -52s100.834 17.333 132.501 52s47.5 86.667 47.5 156v379h95v-372c0 -50 -6.5 -93.167 -19.5 -129.5s-31.333 -66.5 -55 -90.5s-52.5 -41.833 -86.5 -53.5s-72 -17.5 -114 -17.5
s-80 5.83301 -114 17.5s-62.833 29.5 -86.5 53.5s-42 54.167 -55 90.5s-19.5 79.5 -19.5 129.5v372h95zM229.998 828c20.667 0 36.5 -5.66699 47.5 -17s16.5 -26 16.5 -44c0 -17.333 -5.5 -31.666 -16.5 -42.999s-26.833 -17 -47.5 -17c-19.333 0 -34.5 5.66699 -45.5 17
s-16.5 25.666 -16.5 42.999c0 18 5.5 32.667 16.5 44s26.167 17 45.5 17zM448.998 828c19.333 0 34.666 -5.66699 45.999 -17s17 -26 17 -44c0 -17.333 -5.66699 -31.666 -17 -42.999s-26.666 -17 -45.999 -17s-34.666 5.66699 -45.999 17s-17 25.666 -17 42.999
c0 18 5.66699 32.667 17 44s26.666 17 45.999 17z" />
    <glyph glyph-name="Yacute" unicode="&#xdd;" horiz-adv-x="646" 
d="M131 650l192 -313h4l190 313h104l-250 -401v-249h-94v247l-252 403h106zM376 881l78 -47l-98 -136h-69z" />
    <glyph glyph-name="Thorn" unicode="&#xde;" 
d="M160 663l0.000976562 -112.004h128c36.667 0 70.5 -4.66699 101.5 -14s57.667 -22.666 80 -39.999s39.666 -38.666 51.999 -63.999s18.5 -54.333 18.5 -87c0 -33.333 -6.16699 -62.666 -18.5 -87.999s-29.5 -46.666 -51.5 -63.999s-48.5 -30.5 -79.5 -39.5
s-65.167 -13.5 -102.5 -13.5h-128v-141h-95v663h95zM160.001 217.996h115c56.667 0 99.167 9.66699 127.5 29s42.5 52.333 42.5 99c0 85.333 -56.667 128 -170 128h-115v-256z" />
    <glyph glyph-name="germandbls" unicode="&#xdf;" horiz-adv-x="992" 
d="M394 447c-27.333 18.667 -52.1689 31.6641 -74.502 38.9971s-47.5 11 -75.5 11c-36 0 -62 -7.16699 -78 -21.5s-24 -31.833 -24 -52.5s5.5 -36.167 16.5 -46.5s28.167 -18.5 51.5 -24.5l93 -24c24.667 -6.66699 46.667 -14.5 66 -23.5s35.833 -20.167 49.5 -33.5
s24 -29.166 31 -47.499s10.5 -40.5 10.5 -66.5c0 -23.333 -4.5 -45.166 -13.5 -65.499s-22.5 -38 -40.5 -53s-40.5 -26.833 -67.5 -35.5s-58.833 -13 -95.5 -13c-21.333 0 -40.833 0.833008 -58.5 2.5s-34.5 4.5 -50.5 8.5s-31.667 9.16699 -47 15.5s-31 14.5 -47 24.5
l31 80c16 -10 30.833 -18.5 44.5 -25.5s27.167 -12.667 40.5 -17s27.333 -7.5 42 -9.5s31 -3 49 -3c42 0 73.667 7.83301 95 23.5s32 37.834 32 66.501c0 28 -7.66699 48.5 -23 61.5s-40.666 23.833 -75.999 32.5l-101 24c-39.333 9.33301 -69.166 26.333 -89.499 51
s-30.5 56.667 -30.5 96c0 44 16.667 79.833 50 107.5s79 41.5 137 41.5c38.667 0 73.667 -4.16699 105 -12.5s60 -21.5 86 -39.5zM885.997 446.997c-27.333 18.667 -52.1689 31.6641 -74.502 38.9971s-47.5 11 -75.5 11c-36 0 -62 -7.16699 -78 -21.5s-24 -31.833 -24 -52.5
s5.5 -36.167 16.5 -46.5s28.167 -18.5 51.5 -24.5l93 -24c24.667 -6.66699 46.667 -14.5 66 -23.5s35.833 -20.167 49.5 -33.5s24 -29.166 31 -47.499s10.5 -40.5 10.5 -66.5c0 -23.333 -4.5 -45.166 -13.5 -65.499s-22.5 -38 -40.5 -53s-40.5 -26.833 -67.5 -35.5
s-58.833 -13 -95.5 -13c-21.333 0 -40.833 0.833008 -58.5 2.5s-34.5 4.5 -50.5 8.5s-31.667 9.16699 -47 15.5s-31 14.5 -47 24.5l31 80c16 -10 30.833 -18.5 44.5 -25.5s27.167 -12.667 40.5 -17s27.333 -7.5 42 -9.5s31 -3 49 -3c42 0 73.667 7.83301 95 23.5
s32 37.834 32 66.501c0 28 -7.66699 48.5 -23 61.5s-40.666 23.833 -75.999 32.5l-101 24c-39.333 9.33301 -69.166 26.333 -89.499 51s-30.5 56.667 -30.5 96c0 44 16.667 79.833 50 107.5s79 41.5 137 41.5c38.667 0 73.667 -4.16699 105 -12.5s60 -21.5 86 -39.5z" />
    <glyph glyph-name="agrave" unicode="&#xe0;" horiz-adv-x="642" 
d="M347 619h-69l-98 136l78 47zM375 560l242 -560h-94l-71 162h-266l-69 -162h-92l244 560h106zM217 239h204l-98 244h-6z" />
    <glyph glyph-name="aacute" unicode="&#xe1;" horiz-adv-x="642" 
d="M375 560l242 -560h-94l-71 162h-266l-69 -162h-92l244 560h106zM217 239h204l-98 244h-6zM379 802l78 -47l-98 -136h-69z" />
    <glyph glyph-name="acircumflex" unicode="&#xe2;" horiz-adv-x="642" 
d="M375 560l242 -560h-94l-71 162h-266l-69 -162h-92l244 560h106zM217 239h204l-98 244h-6zM320 678l-132 -86l-21 54l141 119h23l142 -119l-21 -54z" />
    <glyph glyph-name="atilde" unicode="&#xe3;" horiz-adv-x="642" 
d="M140 686c14.667 14.667 32.168 25.833 52.501 33.5s41.833 11.5 64.5 11.5c16 0 29.667 -2 41 -6s22 -8.16699 32 -12.5l29.5 -12.5c9.66699 -4 21.167 -6 34.5 -6c14 0 26 2 36 6s20.667 11.667 32 23l41 -48c-28.667 -36.667 -64.667 -55 -108 -55
c-15.333 0 -29 2 -41 6s-23.667 8.5 -35 13.5s-22.5 9.5 -33.5 13.5s-22.5 6 -34.5 6c-32.667 0 -60.334 -13 -83.001 -39zM375.001 559.999l242 -560h-94l-71 162h-266l-69 -162h-92l244 560h106zM217.001 238.999h204l-98 244h-6z" />
    <glyph glyph-name="adieresis" unicode="&#xe4;" horiz-adv-x="642" 
d="M211 749c20.667 0 36.5 -5.66699 47.5 -17s16.5 -26 16.5 -44c0 -17.333 -5.5 -31.666 -16.5 -42.999s-26.833 -17 -47.5 -17c-19.333 0 -34.5 5.66699 -45.5 17s-16.5 25.666 -16.5 42.999c0 18 5.5 32.667 16.5 44s26.167 17 45.5 17zM430 749
c19.333 0 34.666 -5.66699 45.999 -17s17 -26 17 -44c0 -17.333 -5.66699 -31.666 -17 -42.999s-26.666 -17 -45.999 -17s-34.666 5.66699 -45.999 17s-17 25.666 -17 42.999c0 18 5.66699 32.667 17 44s26.666 17 45.999 17zM375 560l242 -560h-94l-71 162h-266l-69 -162
h-92l244 560h106zM217 239h204l-98 244h-6z" />
    <glyph glyph-name="aring" unicode="&#xe5;" horiz-adv-x="642" 
d="M375 560l242 -560h-94l-71 162h-266l-69 -162h-92l244 560h106zM217 239h204l-98 244h-6zM320 593c-34.667 0 -62.8311 10.5 -84.498 31.5s-32.5 47.833 -32.5 80.5c0 15.333 3 29.833 9 43.5s14.167 25.5 24.5 35.5s22.666 17.833 36.999 23.5s29.833 8.5 46.5 8.5
s32.167 -2.83301 46.5 -8.5s26.666 -13.5 36.999 -23.5s18.5 -21.833 24.5 -35.5s9 -28.167 9 -43.5c0 -33.333 -11 -60.333 -33 -81s-50 -31 -84 -31zM376.003 705c0 16 -5.33301 29.167 -16 39.5s-24 15.5 -40 15.5s-29.5 -5.16699 -40.5 -15.5s-16.5 -23.5 -16.5 -39.5
s5.5 -29.333 16.5 -40s24.5 -16 40.5 -16s29.333 5.33301 40 16s16 24 16 40z" />
    <glyph glyph-name="ae" unicode="&#xe6;" horiz-adv-x="867" 
d="M816 560v-74h-275v-155h251v-74h-251v-182h296v-75h-387v109h-264l-69 -109h-107l357 560h449zM225 185h225v301h-36z" />
    <glyph glyph-name="ccedilla" unicode="&#xe7;" horiz-adv-x="582" 
d="M497 437c-24 20.667 -49.502 34.998 -76.502 42.998s-55.833 12 -86.5 12c-33.333 0 -63 -5.16699 -89 -15.5s-47.667 -24.833 -65 -43.5s-30.5 -41 -39.5 -67s-13.5 -54.333 -13.5 -85c0 -33.333 5.33301 -63 16 -89s25.334 -48 44.001 -66s40.834 -31.667 66.501 -41
s53.5 -14 83.5 -14c34 0 65 3.83301 93 11.5s55.333 21.167 82 40.5l25 -77c-28.667 -20 -58.167 -34 -88.5 -42s-64.833 -12.667 -103.5 -14l-5 -38c23.333 0 41.333 -6.16699 54 -18.5s19 -29.5 19 -51.5c0 -18.667 -4.83301 -35.167 -14.5 -49.5s-22 -26.666 -37 -36.999
s-31.667 -18.833 -50 -25.5s-35.833 -11.334 -52.5 -14.001l-13 61c27.333 4.66699 50 11.834 68 21.501s27 23.5 27 41.5s-12 27 -36 27h-33l3 87c-32 4.66699 -62.5 14 -91.5 28s-54.5 32.833 -76.5 56.5s-39.5 52.334 -52.5 86.001s-19.5 72.5 -19.5 116.5
c0 43.333 8 82.833 24 118.5s37.667 66.167 65 91.5s59.5 44.833 96.5 58.5s76.167 20.5 117.5 20.5c42 0 78.167 -5 108.5 -15s60.5 -25.667 90.5 -47z" />
    <glyph glyph-name="egrave" unicode="&#xe8;" horiz-adv-x="508" 
d="M65 560h381v-74h-290v-155h265v-74h-265v-182h302v-75h-393v560zM312 619h-69l-98 136l78 47z" />
    <glyph glyph-name="eacute" unicode="&#xe9;" horiz-adv-x="508" 
d="M65 560h381v-74h-290v-155h265v-74h-265v-182h302v-75h-393v560zM310 802l78 -47l-98 -136h-69z" />
    <glyph glyph-name="ecircumflex" unicode="&#xea;" horiz-adv-x="508" 
d="M65 560h381v-74h-290v-155h265v-74h-265v-182h302v-75h-393v560zM265 698l-132 -86l-21 54l141 119h23l142 -119l-21 -54z" />
    <glyph glyph-name="edieresis" unicode="&#xeb;" horiz-adv-x="508" 
d="M65 560h381v-74h-290v-155h265v-74h-265v-182h302v-75h-393v560zM152 749c20.667 0 36.5 -5.66699 47.5 -17s16.5 -26 16.5 -44c0 -17.333 -5.5 -31.666 -16.5 -42.999s-26.833 -17 -47.5 -17c-19.333 0 -34.5 5.66699 -45.5 17s-16.5 25.666 -16.5 42.999
c0 18 5.5 32.667 16.5 44s26.167 17 45.5 17zM371 749c19.333 0 34.666 -5.66699 45.999 -17s17 -26 17 -44c0 -17.333 -5.66699 -31.666 -17 -42.999s-26.666 -17 -45.999 -17s-34.666 5.66699 -45.999 17s-17 25.666 -17 42.999c0 18 5.66699 32.667 17 44
s26.666 17 45.999 17z" />
    <glyph glyph-name="igrave" unicode="&#xec;" horiz-adv-x="221" 
d="M156 560v-560h-91v560h91zM151 619h-69l-98 136l78 47z" />
    <glyph glyph-name="iacute" unicode="&#xed;" horiz-adv-x="221" 
d="M156 560v-560h-91v560h91zM162 802l78 -47l-98 -136h-69z" />
    <glyph glyph-name="icircumflex" unicode="&#xee;" horiz-adv-x="221" 
d="M156 560v-560h-91v560h91zM111 688l-132 -86l-21 54l141 119h23l142 -119l-21 -54z" />
    <glyph glyph-name="idieresis" unicode="&#xef;" horiz-adv-x="221" 
d="M156 560v-560h-91v560h91zM1 749c20.667 0 36.5 -5.66699 47.5 -17s16.5 -26 16.5 -44c0 -17.333 -5.5 -31.666 -16.5 -42.999s-26.833 -17 -47.5 -17c-19.333 0 -34.5 5.66699 -45.5 17s-16.5 25.666 -16.5 42.999c0 18 5.5 32.667 16.5 44s26.167 17 45.5 17zM220 749
c19.333 0 34.666 -5.66699 45.999 -17s17 -26 17 -44c0 -17.333 -5.66699 -31.666 -17 -42.999s-26.666 -17 -45.999 -17s-34.666 5.66699 -45.999 17s-17 25.666 -17 42.999c0 18 5.66699 32.667 17 44s26.666 17 45.999 17z" />
    <glyph glyph-name="eth" unicode="&#xf0;" horiz-adv-x="618" 
d="M65 323v236.999h201c44.667 0 86 -6 124 -18s71 -29.667 99 -53s49.833 -52.166 65.5 -86.499s23.5 -73.833 23.5 -118.5c0 -46 -7.83301 -86.667 -23.5 -122s-37.5 -65 -65.5 -89s-61.167 -42.167 -99.5 -54.5s-79.833 -18.5 -124.5 -18.5h-200v250h-60v73h60z
M157 322.999h146v-73h-146v-175h117c30.667 0 59 4.33301 85 13s48.333 21.667 67 39s33.167 39 43.5 65s15.5 56.667 15.5 92c0 34.667 -5.16699 64.667 -15.5 90s-25 46.333 -44 63s-42 29 -69 37s-56.833 12 -89.5 12h-110v-163z" />
    <glyph glyph-name="ntilde" unicode="&#xf1;" horiz-adv-x="670" 
d="M154 686c14.667 14.667 32.168 25.833 52.501 33.5s41.833 11.5 64.5 11.5c16 0 29.667 -2 41 -6s22 -8.16699 32 -12.5l29.5 -12.5c9.66699 -4 21.167 -6 34.5 -6c14 0 26 2 36 6s20.667 11.667 32 23l41 -48c-28.667 -36.667 -64.667 -55 -108 -55
c-15.333 0 -29 2 -41 6s-23.667 8.5 -35 13.5s-22.5 9.5 -33.5 13.5s-22.5 6 -34.5 6c-32.667 0 -60.334 -13 -83.001 -39zM160.001 559.999l361 -445l-4 134v311h88v-560h-98l-358 448l4 -159v-289h-88v560h95z" />
    <glyph glyph-name="ograve" unicode="&#xf2;" horiz-adv-x="681" 
d="M641 280c0 -43.333 -7.66602 -82.666 -22.999 -117.999s-36.5 -65.833 -63.5 -91.5s-58.833 -45.5 -95.5 -59.5s-76.334 -21 -119.001 -21s-82.334 7 -119.001 21s-68.334 33.833 -95.001 59.5s-47.667 56.167 -63 91.5s-23 74.666 -23 117.999
c0 42.667 7.66699 81.834 23 117.501s36.333 66.334 63 92.001s58.334 45.5 95.001 59.5s76.334 21 119.001 21c43.333 0 83.333 -7 120 -21s68.5 -33.833 95.5 -59.5s48 -56.334 63 -92.001s22.5 -74.834 22.5 -117.501zM132.001 280c0 -34.667 5.5 -65.1689 16.5 -91.502
s26 -48.5 45 -66.5s41.167 -31.5 66.5 -40.5s52 -13.5 80 -13.5c28.667 0 55.5 4.33301 80.5 13s47 21.834 66 39.501s34 39.834 45 66.501s16.5 57.667 16.5 93s-5.5 66.333 -16.5 93s-26 48.834 -45 66.501s-41 30.834 -66 39.501s-51.833 13 -80.5 13
c-28 0 -54.667 -4.33301 -80 -13s-47.5 -21.834 -66.5 -39.501s-34 -39.834 -45 -66.501s-16.5 -57.667 -16.5 -93zM377.001 618.998h-69l-98 136l78 47z" />
    <glyph glyph-name="oacute" unicode="&#xf3;" horiz-adv-x="681" 
d="M641 280c0 -43.333 -7.66602 -82.666 -22.999 -117.999s-36.5 -65.833 -63.5 -91.5s-58.833 -45.5 -95.5 -59.5s-76.334 -21 -119.001 -21s-82.334 7 -119.001 21s-68.334 33.833 -95.001 59.5s-47.667 56.167 -63 91.5s-23 74.666 -23 117.999
c0 42.667 7.66699 81.834 23 117.501s36.333 66.334 63 92.001s58.334 45.5 95.001 59.5s76.334 21 119.001 21c43.333 0 83.333 -7 120 -21s68.5 -33.833 95.5 -59.5s48 -56.334 63 -92.001s22.5 -74.834 22.5 -117.501zM132.001 280c0 -34.667 5.5 -65.1689 16.5 -91.502
s26 -48.5 45 -66.5s41.167 -31.5 66.5 -40.5s52 -13.5 80 -13.5c28.667 0 55.5 4.33301 80.5 13s47 21.834 66 39.501s34 39.834 45 66.501s16.5 57.667 16.5 93s-5.5 66.333 -16.5 93s-26 48.834 -45 66.501s-41 30.834 -66 39.501s-51.833 13 -80.5 13
c-28 0 -54.667 -4.33301 -80 -13s-47.5 -21.834 -66.5 -39.501s-34 -39.834 -45 -66.501s-16.5 -57.667 -16.5 -93zM393.001 801.998l78 -47l-98 -136h-69z" />
    <glyph glyph-name="ocircumflex" unicode="&#xf4;" horiz-adv-x="681" 
d="M641 280c0 -43.333 -7.66602 -82.666 -22.999 -117.999s-36.5 -65.833 -63.5 -91.5s-58.833 -45.5 -95.5 -59.5s-76.334 -21 -119.001 -21s-82.334 7 -119.001 21s-68.334 33.833 -95.001 59.5s-47.667 56.167 -63 91.5s-23 74.666 -23 117.999
c0 42.667 7.66699 81.834 23 117.501s36.333 66.334 63 92.001s58.334 45.5 95.001 59.5s76.334 21 119.001 21c43.333 0 83.333 -7 120 -21s68.5 -33.833 95.5 -59.5s48 -56.334 63 -92.001s22.5 -74.834 22.5 -117.501zM132.001 280c0 -34.667 5.5 -65.1689 16.5 -91.502
s26 -48.5 45 -66.5s41.167 -31.5 66.5 -40.5s52 -13.5 80 -13.5c28.667 0 55.5 4.33301 80.5 13s47 21.834 66 39.501s34 39.834 45 66.501s16.5 57.667 16.5 93s-5.5 66.333 -16.5 93s-26 48.834 -45 66.501s-41 30.834 -66 39.501s-51.833 13 -80.5 13
c-28 0 -54.667 -4.33301 -80 -13s-47.5 -21.834 -66.5 -39.501s-34 -39.834 -45 -66.501s-16.5 -57.667 -16.5 -93zM340.001 687.998l-132 -86l-21 54l141 119h23l142 -119l-21 -54z" />
    <glyph glyph-name="otilde" unicode="&#xf5;" horiz-adv-x="681" 
d="M641 280c0 -43.333 -7.66602 -82.666 -22.999 -117.999s-36.5 -65.833 -63.5 -91.5s-58.833 -45.5 -95.5 -59.5s-76.334 -21 -119.001 -21s-82.334 7 -119.001 21s-68.334 33.833 -95.001 59.5s-47.667 56.167 -63 91.5s-23 74.666 -23 117.999
c0 42.667 7.66699 81.834 23 117.501s36.333 66.334 63 92.001s58.334 45.5 95.001 59.5s76.334 21 119.001 21c43.333 0 83.333 -7 120 -21s68.5 -33.833 95.5 -59.5s48 -56.334 63 -92.001s22.5 -74.834 22.5 -117.501zM132.001 280c0 -34.667 5.5 -65.1689 16.5 -91.502
s26 -48.5 45 -66.5s41.167 -31.5 66.5 -40.5s52 -13.5 80 -13.5c28.667 0 55.5 4.33301 80.5 13s47 21.834 66 39.501s34 39.834 45 66.501s16.5 57.667 16.5 93s-5.5 66.333 -16.5 93s-26 48.834 -45 66.501s-41 30.834 -66 39.501s-51.833 13 -80.5 13
c-28 0 -54.667 -4.33301 -80 -13s-47.5 -21.834 -66.5 -39.501s-34 -39.834 -45 -66.501s-16.5 -57.667 -16.5 -93zM159.001 685.998c14.667 14.667 32.168 25.833 52.501 33.5s41.833 11.5 64.5 11.5c16 0 29.667 -2 41 -6s22 -8.16699 32 -12.5l29.5 -12.5
c9.66699 -4 21.167 -6 34.5 -6c14 0 26 2 36 6s20.667 11.667 32 23l41 -48c-28.667 -36.667 -64.667 -55 -108 -55c-15.333 0 -29 2 -41 6s-23.667 8.5 -35 13.5s-22.5 9.5 -33.5 13.5s-22.5 6 -34.5 6c-32.667 0 -60.334 -13 -83.001 -39z" />
    <glyph glyph-name="odieresis" unicode="&#xf6;" horiz-adv-x="681" 
d="M641 280c0 -43.333 -7.66602 -82.666 -22.999 -117.999s-36.5 -65.833 -63.5 -91.5s-58.833 -45.5 -95.5 -59.5s-76.334 -21 -119.001 -21s-82.334 7 -119.001 21s-68.334 33.833 -95.001 59.5s-47.667 56.167 -63 91.5s-23 74.666 -23 117.999
c0 42.667 7.66699 81.834 23 117.501s36.333 66.334 63 92.001s58.334 45.5 95.001 59.5s76.334 21 119.001 21c43.333 0 83.333 -7 120 -21s68.5 -33.833 95.5 -59.5s48 -56.334 63 -92.001s22.5 -74.834 22.5 -117.501zM132.001 280c0 -34.667 5.5 -65.1689 16.5 -91.502
s26 -48.5 45 -66.5s41.167 -31.5 66.5 -40.5s52 -13.5 80 -13.5c28.667 0 55.5 4.33301 80.5 13s47 21.834 66 39.501s34 39.834 45 66.501s16.5 57.667 16.5 93s-5.5 66.333 -16.5 93s-26 48.834 -45 66.501s-41 30.834 -66 39.501s-51.833 13 -80.5 13
c-28 0 -54.667 -4.33301 -80 -13s-47.5 -21.834 -66.5 -39.501s-34 -39.834 -45 -66.501s-16.5 -57.667 -16.5 -93zM230.001 748.998c20.667 0 36.5 -5.66699 47.5 -17s16.5 -26 16.5 -44c0 -17.333 -5.5 -31.666 -16.5 -42.999s-26.833 -17 -47.5 -17
c-19.333 0 -34.5 5.66699 -45.5 17s-16.5 25.666 -16.5 42.999c0 18 5.5 32.667 16.5 44s26.167 17 45.5 17zM449.001 748.998c19.333 0 34.666 -5.66699 45.999 -17s17 -26 17 -44c0 -17.333 -5.66699 -31.666 -17 -42.999s-26.666 -17 -45.999 -17
s-34.666 5.66699 -45.999 17s-17 25.666 -17 42.999c0 18 5.66699 32.667 17 44s26.666 17 45.999 17z" />
    <glyph glyph-name="divide" unicode="&#xf7;" horiz-adv-x="381" 
d="M190 237c21.333 0 37.833 -6.33301 49.5 -19s17.5 -28.334 17.5 -47.001c0 -19.333 -5.83301 -34.666 -17.5 -45.999s-28.167 -17 -49.5 -17s-37.666 5.66699 -48.999 17s-17 26.666 -17 45.999c0 18.667 5.66699 34.334 17 47.001s27.666 19 48.999 19zM340 367v-76
h-300v76h300zM190 550c21.333 0 37.833 -6.33301 49.5 -19s17.5 -28.334 17.5 -47.001c0 -19.333 -5.83301 -34.666 -17.5 -45.999s-28.167 -17 -49.5 -17s-37.666 5.66699 -48.999 17s-17 26.666 -17 45.999c0 18.667 5.66699 34.334 17 47.001s27.666 19 48.999 19z" />
    <glyph glyph-name="oslash" unicode="&#xf8;" horiz-adv-x="681" 
d="M564 540l-25.002 -37.0029c32 -25.333 57 -57 75 -95s27 -80.667 27 -128c0 -43.333 -7.66699 -82.666 -23 -117.999s-36.5 -65.833 -63.5 -91.5s-58.833 -45.5 -95.5 -59.5s-76.334 -21 -119.001 -21c-49.333 0 -94.666 9.33301 -135.999 28l-32 -46l-65 44l30 44
c-30 25.333 -53.667 56.833 -71 94.5s-26 79.5 -26 125.5c0 42.667 7.66699 81.834 23 117.501s36.333 66.334 63 92.001s58.334 45.5 95.001 59.5s76.334 21 119.001 21c46 0 89.333 -8.33301 130 -25l27 39zM249.998 84.9971
c28.667 -11.333 58.666 -17.002 89.999 -17.002c28.667 0 55.5 4.33301 80.5 13s47 21.834 66 39.501s34 39.834 45 66.501s16.5 57.667 16.5 93c0 34 -5.16699 64 -15.5 90s-24.166 47.667 -41.499 65zM423.997 476.995c-26 10 -54.001 15.002 -84.001 15.002
c-28 0 -54.667 -4.33301 -80 -13s-47.5 -21.834 -66.5 -39.501s-34 -39.834 -45 -66.501s-16.5 -57.667 -16.5 -93c0 -32 4.83301 -60.5 14.5 -85.5s22.834 -46.5 39.501 -64.5z" />
    <glyph glyph-name="ugrave" unicode="&#xf9;" horiz-adv-x="618" 
d="M156 560v-331.998c0 -54 14 -95 42 -123s65 -42 111 -42c22 0 42.333 3.5 61 10.5s34.834 17.5 48.501 31.5s24.334 31.167 32.001 51.5s11.5 44.166 11.5 71.499v332h91v-320c0 -40.667 -6 -76.5 -18 -107.5s-28.833 -57.167 -50.5 -78.5s-47.334 -37.5 -77.001 -48.5
s-62.5 -16.5 -98.5 -16.5c-35.333 0 -67.833 5.16699 -97.5 15.5s-55.334 25.666 -77.001 45.999s-38.667 45.833 -51 76.5s-18.5 66.667 -18.5 108v325h91zM264 798.002l82 -30l-69 -159h-64zM402 788.002l76 -47l-93 -132h-67z" />
    <glyph glyph-name="uacute" unicode="&#xfa;" horiz-adv-x="618" 
d="M156 560v-331.998c0 -54 14 -95 42 -123s65 -42 111 -42c22 0 42.333 3.5 61 10.5s34.834 17.5 48.501 31.5s24.334 31.167 32.001 51.5s11.5 44.166 11.5 71.499v332h91v-320c0 -40.667 -6 -76.5 -18 -107.5s-28.833 -57.167 -50.5 -78.5s-47.334 -37.5 -77.001 -48.5
s-62.5 -16.5 -98.5 -16.5c-35.333 0 -67.833 5.16699 -97.5 15.5s-55.334 25.666 -77.001 45.999s-38.667 45.833 -51 76.5s-18.5 66.667 -18.5 108v325h91zM354 792.002l78 -47l-98 -136h-69z" />
    <glyph glyph-name="ucircumflex" unicode="&#xfb;" horiz-adv-x="618" 
d="M156 560v-331.998c0 -54 14 -95 42 -123s65 -42 111 -42c22 0 42.333 3.5 61 10.5s34.834 17.5 48.501 31.5s24.334 31.167 32.001 51.5s11.5 44.166 11.5 71.499v332h91v-320c0 -40.667 -6 -76.5 -18 -107.5s-28.833 -57.167 -50.5 -78.5s-47.334 -37.5 -77.001 -48.5
s-62.5 -16.5 -98.5 -16.5c-35.333 0 -67.833 5.16699 -97.5 15.5s-55.334 25.666 -77.001 45.999s-38.667 45.833 -51 76.5s-18.5 66.667 -18.5 108v325h91zM309 698.002l-132 -86l-21 54l141 119h23l142 -119l-21 -54z" />
    <glyph glyph-name="udieresis" unicode="&#xfc;" horiz-adv-x="618" 
d="M156 560v-331.998c0 -54 14 -95 42 -123s65 -42 111 -42c22 0 42.333 3.5 61 10.5s34.834 17.5 48.501 31.5s24.334 31.167 32.001 51.5s11.5 44.166 11.5 71.499v332h91v-320c0 -40.667 -6 -76.5 -18 -107.5s-28.833 -57.167 -50.5 -78.5s-47.334 -37.5 -77.001 -48.5
s-62.5 -16.5 -98.5 -16.5c-35.333 0 -67.833 5.16699 -97.5 15.5s-55.334 25.666 -77.001 45.999s-38.667 45.833 -51 76.5s-18.5 66.667 -18.5 108v325h91zM199 749.002c20.667 0 36.5 -5.66699 47.5 -17s16.5 -26 16.5 -44c0 -17.333 -5.5 -31.666 -16.5 -42.999
s-26.833 -17 -47.5 -17c-19.333 0 -34.5 5.66699 -45.5 17s-16.5 25.666 -16.5 42.999c0 18 5.5 32.667 16.5 44s26.167 17 45.5 17zM418 749.002c19.333 0 34.666 -5.66699 45.999 -17s17 -26 17 -44c0 -17.333 -5.66699 -31.666 -17 -42.999s-26.666 -17 -45.999 -17
s-34.666 5.66699 -45.999 17s-17 25.666 -17 42.999c0 18 5.66699 32.667 17 44s26.666 17 45.999 17z" />
    <glyph glyph-name="yacute" unicode="&#xfd;" horiz-adv-x="579" 
d="M246 0v232l-221 328h103l162 -245h5l159 245h100l-219 -328v-232h-89zM332 792l78 -47l-98 -136h-69z" />
    <glyph glyph-name="thorn" unicode="&#xfe;" horiz-adv-x="546" 
d="M155 570v-77.0029h140c30.667 0 59 -5 85 -15s48.333 -23.667 67 -41s33.167 -37.5 43.5 -60.5s15.5 -47.5 15.5 -73.5c0 -29.333 -5.66699 -56.166 -17 -80.499s-26.833 -45.166 -46.5 -62.499s-42.667 -30.666 -69 -39.999s-54.5 -14 -84.5 -14h-134v-106h-90v570h90z
M155 180.997h127c40 0 72 10.5 96 31.5s36 51.167 36 90.5c0 36.667 -11.833 65 -35.5 85s-59.5 30 -107.5 30h-116v-237z" />
    <glyph glyph-name="ydieresis" unicode="&#xff;" horiz-adv-x="579" 
d="M246 0v232l-221 328h103l162 -245h5l159 245h100l-219 -328v-232h-89zM179 749c20.667 0 36.5 -5.66699 47.5 -17s16.5 -26 16.5 -44c0 -17.333 -5.5 -31.666 -16.5 -42.999s-26.833 -17 -47.5 -17c-19.333 0 -34.5 5.66699 -45.5 17s-16.5 25.666 -16.5 42.999
c0 18 5.5 32.667 16.5 44s26.167 17 45.5 17zM398 749c19.333 0 34.666 -5.66699 45.999 -17s17 -26 17 -44c0 -17.333 -5.66699 -31.666 -17 -42.999s-26.666 -17 -45.999 -17s-34.666 5.66699 -45.999 17s-17 25.666 -17 42.999c0 18 5.66699 32.667 17 44
s26.666 17 45.999 17z" />
    <glyph glyph-name="Amacron" unicode="&#x100;" horiz-adv-x="707" 
d="M406 650l278 -650h-99l-85 197h-299l-81 -197h-98l279 650h105zM232 275h238l-114 283h-9zM516 784v-73h-326v73h326z" />
    <glyph glyph-name="amacron" unicode="&#x101;" horiz-adv-x="642" 
d="M484 705v-73h-326v73h326zM375 560l242 -560h-94l-71 162h-266l-69 -162h-92l244 560h106zM217 239h204l-98 244h-6z" />
    <glyph glyph-name="Abreve" unicode="&#x102;" horiz-adv-x="707" 
d="M406 650l278 -650h-99l-85 197h-299l-81 -197h-98l279 650h105zM232 275h238l-114 283h-9zM257 829c9.33301 -19.333 22.5 -34.001 39.5 -44.001s35.833 -15 56.5 -15c45.333 0 77.666 19.667 96.999 59l60 -27c-11.333 -35.333 -30.833 -61.666 -58.5 -78.999
s-60.5 -26 -98.5 -26c-37.333 0 -70.166 9 -98.499 27s-47.5 44 -57.5 78z" />
    <glyph glyph-name="abreve" unicode="&#x103;" horiz-adv-x="642" 
d="M375 560l242 -560h-94l-71 162h-266l-69 -162h-92l244 560h106zM217 239h204l-98 244h-6zM226 751c9.33301 -19.333 22.5 -34.001 39.5 -44.001s35.833 -15 56.5 -15c45.333 0 77.666 19.667 96.999 59l60 -27c-11.333 -35.333 -30.833 -61.666 -58.5 -78.999
s-60.5 -26 -98.5 -26c-37.333 0 -70.166 9 -98.499 27s-47.5 44 -57.5 78z" />
    <glyph glyph-name="Aogonek" unicode="&#x104;" horiz-adv-x="707" 
d="M404 650l277.998 -650c-21.333 -11.333 -35.666 -22.833 -42.999 -34.5s-11 -24.167 -11 -37.5c0 -11.333 3.5 -21.5 10.5 -30.5s19.833 -13.5 38.5 -13.5c4.66699 0 9.5 0.333008 14.5 1s10.5 2 16.5 4l-16 -65c-6.66699 -1.33301 -13.167 -2.33301 -19.5 -3
s-12.166 -1 -17.499 -1c-32 0 -57.333 8.16699 -76 24.5s-28 37.166 -28 62.499c0 16.667 4.5 33.834 13.5 51.501s23.5 31.5 43.5 41.5h-23l-85 197h-300l-80 -197h-95l279 650h100zM229.998 275h240l-114 283h-11z" />
    <glyph glyph-name="aogonek" unicode="&#x105;" horiz-adv-x="642" 
d="M375 560l241.998 -560c-21.333 -11.333 -35.666 -22.833 -42.999 -34.5s-11 -24.167 -11 -37.5c0 -11.333 3.5 -21.5 10.5 -30.5s19.833 -13.5 38.5 -13.5c4.66699 0 9.5 0.333008 14.5 1s10.5 2 16.5 4l-16 -65c-6.66699 -1.33301 -13.167 -2.33301 -19.5 -3
s-12.166 -1 -17.499 -1c-32 0 -57.333 8.16699 -76 24.5s-28 37.166 -28 62.499c0 16.667 4.5 33.834 13.5 51.501s23.5 31.5 43.5 41.5h-20l-71 162h-267l-68 -162h-92l244 560h106zM215.998 239h205l-98 244h-9z" />
    <glyph glyph-name="Cacute" unicode="&#x106;" horiz-adv-x="660" 
d="M584 518c-32 23.333 -63.167 40.333 -93.5 51s-63.5 16 -99.5 16c-38.667 0 -73.834 -6.5 -105.501 -19.5s-58.667 -31 -81 -54s-39.5 -50.333 -51.5 -82s-18 -66.167 -18 -103.5c0 -42 6.66699 -78.833 20 -110.5s31.5 -58.334 54.5 -80.001s50 -37.834 81 -48.501
s64.167 -16 99.5 -16c20 0 38.667 1 56 3s34 5.5 50 10.5s32 11.5 48 19.5s32.667 18 50 30l28 -82c-36 -24.667 -72.833 -41.667 -110.5 -51s-81.5 -14 -131.5 -14c-43.333 0 -85.5 6.83301 -126.5 20.5s-77.333 34.334 -109 62.001s-57 62.834 -76 105.501
s-28.5 93 -28.5 151c0 50 9.33301 95.833 28 137.5s44 77.167 76 106.5s69.333 52.166 112 68.499s87.667 24.5 135 24.5c48.667 0 90.834 -5.66699 126.501 -17s70.5 -29.666 104.5 -54.999zM440 881l78 -47l-98 -136h-69z" />
    <glyph glyph-name="cacute" unicode="&#x107;" horiz-adv-x="582" 
d="M497 437c-24 20.667 -49.5039 34.998 -76.5039 42.998s-55.833 12 -86.5 12c-33.333 0 -63 -5.16699 -89 -15.5s-47.667 -24.833 -65 -43.5s-30.5 -41 -39.5 -67s-13.5 -54.333 -13.5 -85c0 -33.333 5.33301 -63 16 -89s25.334 -48 44.001 -66s40.834 -31.667 66.501 -41
s53.5 -14 83.5 -14c34 0 65 3.83301 93 11.5s55.333 21.167 82 40.5l25 -77c-30.667 -21.333 -62.334 -36 -95.001 -44s-70.667 -12 -114 -12c-37.333 0 -73.666 5.83301 -108.999 17.5s-66.666 29.334 -93.999 53.001s-49.166 53.834 -65.499 90.501s-24.5 80 -24.5 130
c0 43.333 8 82.833 24 118.5s37.667 66.167 65 91.5s59.5 44.833 96.5 58.5s76.167 20.5 117.5 20.5c42 0 78.167 -5 108.5 -15s60.5 -25.667 90.5 -47zM380.996 801.998l78 -47l-98 -136h-69z" />
    <glyph glyph-name="Ccircumflex" unicode="&#x108;" horiz-adv-x="660" 
d="M584 518c-32 23.333 -63.167 40.333 -93.5 51s-63.5 16 -99.5 16c-38.667 0 -73.834 -6.5 -105.501 -19.5s-58.667 -31 -81 -54s-39.5 -50.333 -51.5 -82s-18 -66.167 -18 -103.5c0 -42 6.66699 -78.833 20 -110.5s31.5 -58.334 54.5 -80.001s50 -37.834 81 -48.501
s64.167 -16 99.5 -16c20 0 38.667 1 56 3s34 5.5 50 10.5s32 11.5 48 19.5s32.667 18 50 30l28 -82c-36 -24.667 -72.833 -41.667 -110.5 -51s-81.5 -14 -131.5 -14c-43.333 0 -85.5 6.83301 -126.5 20.5s-77.333 34.334 -109 62.001s-57 62.834 -76 105.501
s-28.5 93 -28.5 151c0 50 9.33301 95.833 28 137.5s44 77.167 76 106.5s69.333 52.166 112 68.499s87.667 24.5 135 24.5c48.667 0 90.834 -5.66699 126.501 -17s70.5 -29.666 104.5 -54.999zM391 777l-132 -86l-21 54l141 119h23l142 -119l-21 -54z" />
    <glyph glyph-name="ccircumflex" unicode="&#x109;" horiz-adv-x="582" 
d="M497 437c-24 20.667 -49.5039 34.998 -76.5039 42.998s-55.833 12 -86.5 12c-33.333 0 -63 -5.16699 -89 -15.5s-47.667 -24.833 -65 -43.5s-30.5 -41 -39.5 -67s-13.5 -54.333 -13.5 -85c0 -33.333 5.33301 -63 16 -89s25.334 -48 44.001 -66s40.834 -31.667 66.501 -41
s53.5 -14 83.5 -14c34 0 65 3.83301 93 11.5s55.333 21.167 82 40.5l25 -77c-30.667 -21.333 -62.334 -36 -95.001 -44s-70.667 -12 -114 -12c-37.333 0 -73.666 5.83301 -108.999 17.5s-66.666 29.334 -93.999 53.001s-49.166 53.834 -65.499 90.501s-24.5 80 -24.5 130
c0 43.333 8 82.833 24 118.5s37.667 66.167 65 91.5s59.5 44.833 96.5 58.5s76.167 20.5 117.5 20.5c42 0 78.167 -5 108.5 -15s60.5 -25.667 90.5 -47zM331.996 687.998l-132 -86l-21 54l141 119h23l142 -119l-21 -54z" />
    <glyph glyph-name="Cdotaccent" unicode="&#x10a;" horiz-adv-x="660" 
d="M584 518c-32 23.333 -63.167 40.333 -93.5 51s-63.5 16 -99.5 16c-38.667 0 -73.834 -6.5 -105.501 -19.5s-58.667 -31 -81 -54s-39.5 -50.333 -51.5 -82s-18 -66.167 -18 -103.5c0 -42 6.66699 -78.833 20 -110.5s31.5 -58.334 54.5 -80.001s50 -37.834 81 -48.501
s64.167 -16 99.5 -16c20 0 38.667 1 56 3s34 5.5 50 10.5s32 11.5 48 19.5s32.667 18 50 30l28 -82c-36 -24.667 -72.833 -41.667 -110.5 -51s-81.5 -14 -131.5 -14c-43.333 0 -85.5 6.83301 -126.5 20.5s-77.333 34.334 -109 62.001s-57 62.834 -76 105.501
s-28.5 93 -28.5 151c0 50 9.33301 95.833 28 137.5s44 77.167 76 106.5s69.333 52.166 112 68.499s87.667 24.5 135 24.5c48.667 0 90.834 -5.66699 126.501 -17s70.5 -29.666 104.5 -54.999zM397 840c21.333 0 37.833 -6.33301 49.5 -19s17.5 -28.334 17.5 -47.001
c0 -19.333 -5.83301 -34.666 -17.5 -45.999s-28.167 -17 -49.5 -17s-37.666 5.66699 -48.999 17s-17 26.666 -17 45.999c0 18.667 5.66699 34.334 17 47.001s27.666 19 48.999 19z" />
    <glyph glyph-name="cdotaccent" unicode="&#x10b;" horiz-adv-x="582" 
d="M497 437c-24 20.667 -49.5039 34.998 -76.5039 42.998s-55.833 12 -86.5 12c-33.333 0 -63 -5.16699 -89 -15.5s-47.667 -24.833 -65 -43.5s-30.5 -41 -39.5 -67s-13.5 -54.333 -13.5 -85c0 -33.333 5.33301 -63 16 -89s25.334 -48 44.001 -66s40.834 -31.667 66.501 -41
s53.5 -14 83.5 -14c34 0 65 3.83301 93 11.5s55.333 21.167 82 40.5l25 -77c-30.667 -21.333 -62.334 -36 -95.001 -44s-70.667 -12 -114 -12c-37.333 0 -73.666 5.83301 -108.999 17.5s-66.666 29.334 -93.999 53.001s-49.166 53.834 -65.499 90.501s-24.5 80 -24.5 130
c0 43.333 8 82.833 24 118.5s37.667 66.167 65 91.5s59.5 44.833 96.5 58.5s76.167 20.5 117.5 20.5c42 0 78.167 -5 108.5 -15s60.5 -25.667 90.5 -47zM337.996 746.998c21.333 0 37.833 -6.33301 49.5 -19s17.5 -28.334 17.5 -47.001
c0 -19.333 -5.83301 -34.666 -17.5 -45.999s-28.167 -17 -49.5 -17s-37.666 5.66699 -48.999 17s-17 26.666 -17 45.999c0 18.667 5.66699 34.334 17 47.001s27.666 19 48.999 19z" />
    <glyph glyph-name="Ccaron" unicode="&#x10c;" horiz-adv-x="660" 
d="M584 518c-32 23.333 -63.167 40.333 -93.5 51s-63.5 16 -99.5 16c-38.667 0 -73.834 -6.5 -105.501 -19.5s-58.667 -31 -81 -54s-39.5 -50.333 -51.5 -82s-18 -66.167 -18 -103.5c0 -42 6.66699 -78.833 20 -110.5s31.5 -58.334 54.5 -80.001s50 -37.834 81 -48.501
s64.167 -16 99.5 -16c20 0 38.667 1 56 3s34 5.5 50 10.5s32 11.5 48 19.5s32.667 18 50 30l28 -82c-36 -24.667 -72.833 -41.667 -110.5 -51s-81.5 -14 -131.5 -14c-43.333 0 -85.5 6.83301 -126.5 20.5s-77.333 34.334 -109 62.001s-57 62.834 -76 105.501
s-28.5 93 -28.5 151c0 50 9.33301 95.833 28 137.5s44 77.167 76 106.5s69.333 52.166 112 68.499s87.667 24.5 135 24.5c48.667 0 90.834 -5.66699 126.501 -17s70.5 -29.666 104.5 -54.999zM395 778l132 86l21 -54l-141 -119h-23l-142 119l21 54z" />
    <glyph glyph-name="ccaron" unicode="&#x10d;" horiz-adv-x="582" 
d="M497 437c-24 20.667 -49.5039 34.998 -76.5039 42.998s-55.833 12 -86.5 12c-33.333 0 -63 -5.16699 -89 -15.5s-47.667 -24.833 -65 -43.5s-30.5 -41 -39.5 -67s-13.5 -54.333 -13.5 -85c0 -33.333 5.33301 -63 16 -89s25.334 -48 44.001 -66s40.834 -31.667 66.501 -41
s53.5 -14 83.5 -14c34 0 65 3.83301 93 11.5s55.333 21.167 82 40.5l25 -77c-30.667 -21.333 -62.334 -36 -95.001 -44s-70.667 -12 -114 -12c-37.333 0 -73.666 5.83301 -108.999 17.5s-66.666 29.334 -93.999 53.001s-49.166 53.834 -65.499 90.501s-24.5 80 -24.5 130
c0 43.333 8 82.833 24 118.5s37.667 66.167 65 91.5s59.5 44.833 96.5 58.5s76.167 20.5 117.5 20.5c42 0 78.167 -5 108.5 -15s60.5 -25.667 90.5 -47zM332.996 698.998l132 86l21 -54l-141 -119h-23l-142 119l21 54z" />
    <glyph glyph-name="Dcaron" unicode="&#x10e;" horiz-adv-x="700" 
d="M306 650c54.667 0 103.832 -7.49902 147.499 -22.499s80.834 -36.5 111.501 -64.5s54.167 -62.333 70.5 -103s24.5 -87 24.5 -139c0 -53.333 -9.33301 -100 -28 -140s-44.5 -73.333 -77.5 -100s-72.5 -46.834 -118.5 -60.501s-96 -20.5 -150 -20.5h-221v650h241z
M159.998 79.001h134c38.667 0 74.667 4.33301 108 13s62 22.667 86 42s42.833 44.333 56.5 75s20.5 68 20.5 112c0 44.667 -6.16699 82.834 -18.5 114.501s-29.833 57.667 -52.5 78s-50 35.166 -82 44.499s-67.333 14 -106 14h-146v-493zM311.998 778.001l132 86l21 -54
l-141 -119h-23l-142 119l21 54z" />
    <glyph glyph-name="dcaron" unicode="&#x10f;" horiz-adv-x="618" 
d="M266 560c44.667 0 86 -6.00098 124 -18.001s71 -29.667 99 -53s49.833 -52.166 65.5 -86.499s23.5 -73.833 23.5 -118.5c0 -46 -7.83301 -86.667 -23.5 -122s-37.5 -65 -65.5 -89s-61.167 -42.167 -99.5 -54.5s-79.833 -18.5 -124.5 -18.5h-200v560h201zM157 74.999h117
c30.667 0 59 4.33301 85 13s48.333 21.667 67 39s33.167 39 43.5 65s15.5 56.667 15.5 92c0 34.667 -5.16699 64.667 -15.5 90s-25 46.333 -44 63s-42 29 -69 37s-56.833 12 -89.5 12h-110v-411zM267 698.999l132 86l21 -54l-141 -119h-23l-142 119l21 54z" />
    <glyph glyph-name="Dcroat" unicode="&#x110;" horiz-adv-x="706" 
d="M312 650c54.667 0 103.832 -7.49902 147.499 -22.499s80.834 -36.5 111.501 -64.5s54.167 -62.333 70.5 -103s24.5 -87 24.5 -139c0 -53.333 -9.33301 -100 -28 -140s-44.5 -73.333 -77.5 -100s-72.5 -46.834 -118.5 -60.501s-96 -20.5 -150 -20.5h-221v294h-66v75h66
v281h241zM165.998 369.001h163v-75h-163v-215h134c38.667 0 74.667 4.33301 108 13s62 22.667 86 42s42.833 44.333 56.5 75s20.5 68 20.5 112c0 44.667 -6.16699 82.834 -18.5 114.501s-29.833 57.667 -52.5 78s-50 35.166 -82 44.499s-67.333 14 -106 14h-146v-203z" />
    <glyph glyph-name="dcroat" unicode="&#x111;" horiz-adv-x="618" 
d="M65 323v236.999h201c44.667 0 86 -6 124 -18s71 -29.667 99 -53s49.833 -52.166 65.5 -86.499s23.5 -73.833 23.5 -118.5c0 -46 -7.83301 -86.667 -23.5 -122s-37.5 -65 -65.5 -89s-61.167 -42.167 -99.5 -54.5s-79.833 -18.5 -124.5 -18.5h-200v250h-60v73h60z
M157 322.999h146v-73h-146v-175h117c30.667 0 59 4.33301 85 13s48.333 21.667 67 39s33.167 39 43.5 65s15.5 56.667 15.5 92c0 34.667 -5.16699 64.667 -15.5 90s-25 46.333 -44 63s-42 29 -69 37s-56.833 12 -89.5 12h-110v-163z" />
    <glyph glyph-name="Emacron" unicode="&#x112;" horiz-adv-x="541" 
d="M65 650h419v-79h-323v-194h290v-78h-290v-220h337v-79h-433v650zM441 784v-73h-326v73h326z" />
    <glyph glyph-name="emacron" unicode="&#x113;" horiz-adv-x="508" 
d="M65 560h381v-74h-290v-155h265v-74h-265v-182h302v-75h-393v560zM423 705v-73h-326v73h326z" />
    <glyph glyph-name="Ebreve" unicode="&#x114;" horiz-adv-x="541" 
d="M65 650h419v-79h-323v-194h290v-78h-290v-220h337v-79h-433v650zM187 829c9.33301 -19.333 22.5 -34.001 39.5 -44.001s35.833 -15 56.5 -15c45.333 0 77.666 19.667 96.999 59l60 -27c-11.333 -35.333 -30.833 -61.666 -58.5 -78.999s-60.5 -26 -98.5 -26
c-37.333 0 -70.166 9 -98.499 27s-47.5 44 -57.5 78z" />
    <glyph glyph-name="ebreve" unicode="&#x115;" horiz-adv-x="508" 
d="M65 560h381v-74h-290v-155h265v-74h-265v-182h302v-75h-393v560zM168 750c9.33301 -19.333 22.5 -34.001 39.5 -44.001s35.833 -15 56.5 -15c45.333 0 77.666 19.667 96.999 59l60 -27c-11.333 -35.333 -30.833 -61.666 -58.5 -78.999s-60.5 -26 -98.5 -26
c-37.333 0 -70.166 9 -98.499 27s-47.5 44 -57.5 78z" />
    <glyph glyph-name="Edotaccent" unicode="&#x116;" horiz-adv-x="541" 
d="M65 650h419v-79h-323v-194h290v-78h-290v-220h337v-79h-433v650zM283 826c21.333 0 37.833 -6.33301 49.5 -19s17.5 -28.334 17.5 -47.001c0 -19.333 -5.83301 -34.666 -17.5 -45.999s-28.167 -17 -49.5 -17s-37.666 5.66699 -48.999 17s-17 26.666 -17 45.999
c0 18.667 5.66699 34.334 17 47.001s27.666 19 48.999 19z" />
    <glyph glyph-name="edotaccent" unicode="&#x117;" horiz-adv-x="508" 
d="M65 560h381v-74h-290v-155h265v-74h-265v-182h302v-75h-393v560zM272 743c21.333 0 37.833 -6.33301 49.5 -19s17.5 -28.334 17.5 -47.001c0 -19.333 -5.83301 -34.666 -17.5 -45.999s-28.167 -17 -49.5 -17s-37.666 5.66699 -48.999 17s-17 26.666 -17 45.999
c0 18.667 5.66699 34.334 17 47.001s27.666 19 48.999 19z" />
    <glyph glyph-name="Eogonek" unicode="&#x118;" horiz-adv-x="541" 
d="M65 650h418.998v-79h-323v-194h290v-78h-290v-220h337v-79c-21.333 -11.333 -35.666 -22.833 -42.999 -34.5s-11 -24.167 -11 -37.5c0 -11.333 3.5 -21.5 10.5 -30.5s19.833 -13.5 38.5 -13.5c4.66699 0 9.5 0.333008 14.5 1s10.5 2 16.5 4l-16 -65
c-6.66699 -1.33301 -13.167 -2.33301 -19.5 -3s-12.166 -1 -17.499 -1c-32 0 -57.333 8.16699 -76 24.5s-28 37.166 -28 62.499c0 16.667 4.5 33.834 13.5 51.501s23.5 31.5 43.5 41.5h-359v650z" />
    <glyph glyph-name="eogonek" unicode="&#x119;" horiz-adv-x="508" 
d="M65 560h380.998v-74h-290v-155h265v-74h-265v-182h302v-75c-21.333 -11.333 -35.666 -22.833 -42.999 -34.5s-11 -24.167 -11 -37.5c0 -11.333 3.5 -21.5 10.5 -30.5s19.833 -13.5 38.5 -13.5c4.66699 0 9.5 0.333008 14.5 1s10.5 2 16.5 4l-16 -65
c-6.66699 -1.33301 -13.167 -2.33301 -19.5 -3s-12.166 -1 -17.499 -1c-32 0 -57.333 8.16699 -76 24.5s-28 37.166 -28 62.499c0 16.667 4.5 33.834 13.5 51.501s23.5 31.5 43.5 41.5h-319v560z" />
    <glyph glyph-name="Ecaron" unicode="&#x11a;" horiz-adv-x="541" 
d="M65 650h419v-79h-323v-194h290v-78h-290v-220h337v-79h-433v650zM285 778l132 86l21 -54l-141 -119h-23l-142 119l21 54z" />
    <glyph glyph-name="ecaron" unicode="&#x11b;" horiz-adv-x="508" 
d="M65 560h381v-74h-290v-155h265v-74h-265v-182h302v-75h-393v560zM271 699l132 86l21 -54l-141 -119h-23l-142 119l21 54z" />
    <glyph glyph-name="Gcircumflex" unicode="&#x11c;" horiz-adv-x="700" 
d="M645 347l-0.00292969 -280.001c-38 -28 -79 -48.333 -123 -61s-92.333 -19 -145 -19c-46 0 -89.5 7.33301 -130.5 22s-76.667 36.167 -107 64.5s-54.5 63.5 -72.5 105.5s-27 90.667 -27 146c0 50 9.16699 95.833 27.5 137.5s43.333 77.334 75 107.001
s68.5 52.667 110.5 69s87 24.5 135 24.5c48.667 0 92.834 -5.66699 132.501 -17s76.834 -29.666 111.501 -54.999l-38 -73c-32 23.333 -65.333 40.166 -100 50.499s-70 15.5 -106 15.5c-38.667 0 -73.667 -6.5 -105 -19.5s-58 -31 -80 -54s-38.833 -50.333 -50.5 -82
s-17.5 -66.167 -17.5 -103.5c0 -39.333 6.5 -74.833 19.5 -106.5s30.833 -58.5 53.5 -80.5s49.334 -39 80.001 -51s63.667 -18 99 -18c34 0 64 2.83301 90 8.5s51.333 15.167 76 28.5v166h-170v75h262zM381.997 776.999l-132 -86l-21 54l141 119h23l142 -119l-21 -54z" />
    <glyph glyph-name="gcircumflex" unicode="&#x11d;" horiz-adv-x="623" 
d="M578 317l-0.00683594 -264.002c-20 -12 -39.5 -22.167 -58.5 -30.5s-38.167 -14.833 -57.5 -19.5s-39.666 -8 -60.999 -10s-44 -3 -68 -3c-37.333 0 -73.666 5.83301 -108.999 17.5s-66.666 29.334 -93.999 53.001s-49.166 53.834 -65.499 90.501s-24.5 80 -24.5 130
c0 43.333 8 82.833 24 118.5s37.833 66.167 65.5 91.5s60.167 44.833 97.5 58.5s77 20.5 119 20.5s80.667 -5 116 -15s68 -25.667 98 -47l-40 -71c-27.333 20 -56.166 34.167 -86.499 42.5s-60.833 12.5 -91.5 12.5c-33.333 0 -63 -5.16699 -89 -15.5s-48 -24.833 -66 -43.5
s-31.667 -41 -41 -67s-14 -54.333 -14 -85c0 -33.333 5.33301 -63 16 -89s25.334 -48 44.001 -66s40.834 -31.667 66.501 -41s53.5 -14 83.5 -14s56.833 2 80.5 6s46.167 11.667 67.5 23v144h-142v73h230zM348.993 687.998l-132 -86l-21 54l141 119h23l142 -119l-21 -54z
" />
    <glyph glyph-name="Gbreve" unicode="&#x11e;" horiz-adv-x="700" 
d="M645 347l-0.00292969 -280.001c-38 -28 -79 -48.333 -123 -61s-92.333 -19 -145 -19c-46 0 -89.5 7.33301 -130.5 22s-76.667 36.167 -107 64.5s-54.5 63.5 -72.5 105.5s-27 90.667 -27 146c0 50 9.16699 95.833 27.5 137.5s43.333 77.334 75 107.001
s68.5 52.667 110.5 69s87 24.5 135 24.5c48.667 0 92.834 -5.66699 132.501 -17s76.834 -29.666 111.501 -54.999l-38 -73c-32 23.333 -65.333 40.166 -100 50.499s-70 15.5 -106 15.5c-38.667 0 -73.667 -6.5 -105 -19.5s-58 -31 -80 -54s-38.833 -50.333 -50.5 -82
s-17.5 -66.167 -17.5 -103.5c0 -39.333 6.5 -74.833 19.5 -106.5s30.833 -58.5 53.5 -80.5s49.334 -39 80.001 -51s63.667 -18 99 -18c34 0 64 2.83301 90 8.5s51.333 15.167 76 28.5v166h-170v75h262zM287.997 838.999c9.33301 -19.333 22.5 -34.001 39.5 -44.001
s35.833 -15 56.5 -15c45.333 0 77.666 19.667 96.999 59l60 -27c-11.333 -35.333 -30.833 -61.666 -58.5 -78.999s-60.5 -26 -98.5 -26c-37.333 0 -70.166 9 -98.499 27s-47.5 44 -57.5 78z" />
    <glyph glyph-name="gbreve" unicode="&#x11f;" horiz-adv-x="623" 
d="M578 317l-0.00683594 -264.002c-20 -12 -39.5 -22.167 -58.5 -30.5s-38.167 -14.833 -57.5 -19.5s-39.666 -8 -60.999 -10s-44 -3 -68 -3c-37.333 0 -73.666 5.83301 -108.999 17.5s-66.666 29.334 -93.999 53.001s-49.166 53.834 -65.499 90.501s-24.5 80 -24.5 130
c0 43.333 8 82.833 24 118.5s37.833 66.167 65.5 91.5s60.167 44.833 97.5 58.5s77 20.5 119 20.5s80.667 -5 116 -15s68 -25.667 98 -47l-40 -71c-27.333 20 -56.166 34.167 -86.499 42.5s-60.833 12.5 -91.5 12.5c-33.333 0 -63 -5.16699 -89 -15.5s-48 -24.833 -66 -43.5
s-31.667 -41 -41 -67s-14 -54.333 -14 -85c0 -33.333 5.33301 -63 16 -89s25.334 -48 44.001 -66s40.834 -31.667 66.501 -41s53.5 -14 83.5 -14s56.833 2 80.5 6s46.167 11.667 67.5 23v144h-142v73h230zM247.993 749.998c9.33301 -19.333 22.5 -34.001 39.5 -44.001
s35.833 -15 56.5 -15c45.333 0 77.666 19.667 96.999 59l60 -27c-11.333 -35.333 -30.833 -61.666 -58.5 -78.999s-60.5 -26 -98.5 -26c-37.333 0 -70.166 9 -98.499 27s-47.5 44 -57.5 78z" />
    <glyph glyph-name="Gdotaccent" unicode="&#x120;" horiz-adv-x="700" 
d="M645 347l-0.00292969 -280.001c-38 -28 -79 -48.333 -123 -61s-92.333 -19 -145 -19c-46 0 -89.5 7.33301 -130.5 22s-76.667 36.167 -107 64.5s-54.5 63.5 -72.5 105.5s-27 90.667 -27 146c0 50 9.16699 95.833 27.5 137.5s43.333 77.334 75 107.001
s68.5 52.667 110.5 69s87 24.5 135 24.5c48.667 0 92.834 -5.66699 132.501 -17s76.834 -29.666 111.501 -54.999l-38 -73c-32 23.333 -65.333 40.166 -100 50.499s-70 15.5 -106 15.5c-38.667 0 -73.667 -6.5 -105 -19.5s-58 -31 -80 -54s-38.833 -50.333 -50.5 -82
s-17.5 -66.167 -17.5 -103.5c0 -39.333 6.5 -74.833 19.5 -106.5s30.833 -58.5 53.5 -80.5s49.334 -39 80.001 -51s63.667 -18 99 -18c34 0 64 2.83301 90 8.5s51.333 15.167 76 28.5v166h-170v75h262zM392.997 839.999c21.333 0 37.833 -6.33301 49.5 -19
s17.5 -28.334 17.5 -47.001c0 -19.333 -5.83301 -34.666 -17.5 -45.999s-28.167 -17 -49.5 -17s-37.666 5.66699 -48.999 17s-17 26.666 -17 45.999c0 18.667 5.66699 34.334 17 47.001s27.666 19 48.999 19z" />
    <glyph glyph-name="gdotaccent" unicode="&#x121;" horiz-adv-x="623" 
d="M578 317l-0.00683594 -264.002c-20 -12 -39.5 -22.167 -58.5 -30.5s-38.167 -14.833 -57.5 -19.5s-39.666 -8 -60.999 -10s-44 -3 -68 -3c-37.333 0 -73.666 5.83301 -108.999 17.5s-66.666 29.334 -93.999 53.001s-49.166 53.834 -65.499 90.501s-24.5 80 -24.5 130
c0 43.333 8 82.833 24 118.5s37.833 66.167 65.5 91.5s60.167 44.833 97.5 58.5s77 20.5 119 20.5s80.667 -5 116 -15s68 -25.667 98 -47l-40 -71c-27.333 20 -56.166 34.167 -86.499 42.5s-60.833 12.5 -91.5 12.5c-33.333 0 -63 -5.16699 -89 -15.5s-48 -24.833 -66 -43.5
s-31.667 -41 -41 -67s-14 -54.333 -14 -85c0 -33.333 5.33301 -63 16 -89s25.334 -48 44.001 -66s40.834 -31.667 66.501 -41s53.5 -14 83.5 -14s56.833 2 80.5 6s46.167 11.667 67.5 23v144h-142v73h230zM350.993 743.998c21.333 0 37.833 -6.33301 49.5 -19
s17.5 -28.334 17.5 -47.001c0 -19.333 -5.83301 -34.666 -17.5 -45.999s-28.167 -17 -49.5 -17s-37.666 5.66699 -48.999 17s-17 26.666 -17 45.999c0 18.667 5.66699 34.334 17 47.001s27.666 19 48.999 19z" />
    <glyph glyph-name="Gcommaaccent" unicode="&#x122;" horiz-adv-x="700" 
d="M645 347l-0.00292969 -280.001c-38 -28 -79 -48.333 -123 -61s-92.333 -19 -145 -19c-46 0 -89.5 7.33301 -130.5 22s-76.667 36.167 -107 64.5s-54.5 63.5 -72.5 105.5s-27 90.667 -27 146c0 50 9.16699 95.833 27.5 137.5s43.333 77.334 75 107.001
s68.5 52.667 110.5 69s87 24.5 135 24.5c48.667 0 92.834 -5.66699 132.501 -17s76.834 -29.666 111.501 -54.999l-38 -73c-32 23.333 -65.333 40.166 -100 50.499s-70 15.5 -106 15.5c-38.667 0 -73.667 -6.5 -105 -19.5s-58 -31 -80 -54s-38.833 -50.333 -50.5 -82
s-17.5 -66.167 -17.5 -103.5c0 -39.333 6.5 -74.833 19.5 -106.5s30.833 -58.5 53.5 -80.5s49.334 -39 80.001 -51s63.667 -18 99 -18c34 0 64 2.83301 90 8.5s51.333 15.167 76 28.5v166h-170v75h262zM328.997 -229.001c41.333 16 61.999 38.6641 61.999 67.9971
c-20 0 -34.5 5.5 -43.5 16.5s-13.5 23.5 -13.5 37.5c0 6.66699 1 13.334 3 20.001s5.33301 12.834 10 18.501s10.834 10.334 18.501 14.001s17.167 5.5 28.5 5.5c23.333 0 41 -8.5 53 -25.5s18 -37.833 18 -62.5c0 -12.667 -2.33301 -25.834 -7 -39.501
s-11.5 -26.667 -20.5 -39s-20.5 -23.666 -34.5 -33.999s-30.333 -18.5 -49 -24.5z" />
    <glyph glyph-name="gcommaaccent" unicode="&#x123;" horiz-adv-x="623" 
d="M578 317l-0.00683594 -264.002c-20 -12 -39.5 -22.167 -58.5 -30.5s-38.167 -14.833 -57.5 -19.5s-39.666 -8 -60.999 -10s-44 -3 -68 -3c-37.333 0 -73.666 5.83301 -108.999 17.5s-66.666 29.334 -93.999 53.001s-49.166 53.834 -65.499 90.501s-24.5 80 -24.5 130
c0 43.333 8 82.833 24 118.5s37.833 66.167 65.5 91.5s60.167 44.833 97.5 58.5s77 20.5 119 20.5s80.667 -5 116 -15s68 -25.667 98 -47l-40 -71c-27.333 20 -56.166 34.167 -86.499 42.5s-60.833 12.5 -91.5 12.5c-33.333 0 -63 -5.16699 -89 -15.5s-48 -24.833 -66 -43.5
s-31.667 -41 -41 -67s-14 -54.333 -14 -85c0 -33.333 5.33301 -63 16 -89s25.334 -48 44.001 -66s40.834 -31.667 66.501 -41s53.5 -14 83.5 -14s56.833 2 80.5 6s46.167 11.667 67.5 23v144h-142v73h230zM280.993 -227.002c41.333 16 61.999 38.6641 61.999 67.9971
c-20 0 -34.5 5.5 -43.5 16.5s-13.5 23.5 -13.5 37.5c0 6.66699 1 13.334 3 20.001s5.33301 12.834 10 18.501s10.834 10.334 18.501 14.001s17.167 5.5 28.5 5.5c23.333 0 41 -8.5 53 -25.5s18 -37.833 18 -62.5c0 -12.667 -2.33301 -25.834 -7 -39.501
s-11.5 -26.667 -20.5 -39s-20.5 -23.666 -34.5 -33.999s-30.333 -18.5 -49 -24.5z" />
    <glyph glyph-name="Hcircumflex" unicode="&#x124;" horiz-adv-x="669" 
d="M604 650v-650h-95v303h-349v-303h-95v650h95v-270h349v270h95zM334 777l-132 -86l-21 54l141 119h23l142 -119l-21 -54z" />
    <glyph glyph-name="hcircumflex" unicode="&#x125;" horiz-adv-x="623" 
d="M156 560v-230h311v230h91v-560h-91v254h-311v-254h-91v560h91zM311 698l-132 -86l-21 54l141 119h23l142 -119l-21 -54z" />
    <glyph glyph-name="Hbar" unicode="&#x126;" horiz-adv-x="669" 
d="M160 650v-102h349v102h95v-102h45v-70h-45v-478h-95v303h-349v-303h-95v478h-45v70h45v102h95zM160 380h349v98h-349v-98z" />
    <glyph glyph-name="hbar" unicode="&#x127;" horiz-adv-x="623" 
d="M156 560v-79h311v79h91v-79h44v-68h-44v-413h-91v254h-311v-254h-91v413h-44v68h44v79h91zM467 330v83h-311v-83h311z" />
    <glyph glyph-name="Itilde" unicode="&#x128;" horiz-adv-x="225" 
d="M160 650v-650h-95v650h95zM-68 765c14.667 14.667 32.168 25.833 52.501 33.5s41.833 11.5 64.5 11.5c16 0 29.667 -2 41 -6s22 -8.16699 32 -12.5l29.5 -12.5c9.66699 -4 21.167 -6 34.5 -6c14 0 26 2 36 6s20.667 11.667 32 23l41 -48
c-28.667 -36.667 -64.667 -55 -108 -55c-15.333 0 -29 2 -41 6s-23.667 8.5 -35 13.5s-22.5 9.5 -33.5 13.5s-22.5 6 -34.5 6c-32.667 0 -60.334 -13 -83.001 -39z" />
    <glyph glyph-name="itilde" unicode="&#x129;" horiz-adv-x="221" 
d="M156 560v-560h-91v560h91zM-71 686c14.667 14.667 32.168 25.833 52.501 33.5s41.833 11.5 64.5 11.5c16 0 29.667 -2 41 -6s22 -8.16699 32 -12.5l29.5 -12.5c9.66699 -4 21.167 -6 34.5 -6c14 0 26 2 36 6s20.667 11.667 32 23l41 -48
c-28.667 -36.667 -64.667 -55 -108 -55c-15.333 0 -29 2 -41 6s-23.667 8.5 -35 13.5s-22.5 9.5 -33.5 13.5s-22.5 6 -34.5 6c-32.667 0 -60.334 -13 -83.001 -39z" />
    <glyph glyph-name="uni012A" unicode="&#x12a;" horiz-adv-x="225" 
d="M160 650v-650h-95v650h95zM277 791v-73h-326v73h326z" />
    <glyph glyph-name="imacron" unicode="&#x12b;" horiz-adv-x="221" 
d="M156 560v-560h-91v560h91zM274 705v-73h-326v73h326z" />
    <glyph glyph-name="Ibreve" unicode="&#x12c;" horiz-adv-x="225" 
d="M160 650v-650h-95v650h95zM17 829c9.33301 -19.333 22.5 -34.001 39.5 -44.001s35.833 -15 56.5 -15c45.333 0 77.666 19.667 96.999 59l60 -27c-11.333 -35.333 -30.833 -61.666 -58.5 -78.999s-60.5 -26 -98.5 -26c-37.333 0 -70.166 9 -98.499 27s-47.5 44 -57.5 78z
" />
    <glyph glyph-name="Iogonek" unicode="&#x12e;" horiz-adv-x="225" 
d="M160 650l-0.00195312 -650c-21.333 -11.333 -35.666 -22.833 -42.999 -34.5s-11 -24.167 -11 -37.5c0 -11.333 3.5 -21.5 10.5 -30.5s19.833 -13.5 38.5 -13.5c4.66699 0 9.5 0.333008 14.5 1s10.5 2 16.5 4l-16 -65c-6.66699 -1.33301 -13.167 -2.33301 -19.5 -3
s-12.166 -1 -17.499 -1c-32 0 -57.333 8.16699 -76 24.5s-28 37.166 -28 62.499c0 16.667 4.5 33.834 13.5 51.501s23.5 31.5 43.5 41.5h-21v650h95z" />
    <glyph glyph-name="iogonek" unicode="&#x12f;" horiz-adv-x="221" 
d="M156 560l-0.00195312 -560c-21.333 -11.333 -35.666 -22.833 -42.999 -34.5s-11 -24.167 -11 -37.5c0 -11.333 3.5 -21.5 10.5 -30.5s19.833 -13.5 38.5 -13.5c4.66699 0 9.5 0.333008 14.5 1s10.5 2 16.5 4l-16 -65c-6.66699 -1.33301 -13.167 -2.33301 -19.5 -3
s-12.166 -1 -17.499 -1c-32 0 -57.333 8.16699 -76 24.5s-28 37.166 -28 62.499c0 16.667 4.5 33.834 13.5 51.501s23.5 31.5 43.5 41.5h-17v560h91z" />
    <glyph glyph-name="Idotaccent" unicode="&#x130;" horiz-adv-x="225" 
d="M160 650v-650h-95v650h95zM116 841c21.333 0 37.833 -6.33301 49.5 -19s17.5 -28.334 17.5 -47.001c0 -19.333 -5.83301 -34.666 -17.5 -45.999s-28.167 -17 -49.5 -17s-37.666 5.66699 -48.999 17s-17 26.666 -17 45.999c0 18.667 5.66699 34.334 17 47.001
s27.666 19 48.999 19z" />
    <glyph glyph-name="dotlessi" unicode="&#x131;" horiz-adv-x="221" 
d="M156 560v-560h-91v560h91z" />
    <glyph glyph-name="Jcircumflex" unicode="&#x134;" horiz-adv-x="244" 
d="M179 650l-0.00292969 -631.999c0 -44.667 -5.66699 -82.5 -17 -113.5s-27.166 -56.667 -47.499 -77s-44.5 -36 -72.5 -47s-58.333 -18.833 -91 -23.5l-30 78c26.667 4 50.334 9.5 71.001 16.5s37.834 17.167 51.501 30.5s24 31.166 31 53.499s10.5 50.833 10.5 85.5v629
h94zM133.997 769.001l-132 -86l-21 54l141 119h23l142 -119l-21 -54z" />
    <glyph glyph-name="jcircumflex" unicode="&#x135;" horiz-adv-x="231" 
d="M166 560l0.00195312 -547.998c0 -30 -4.33301 -58.667 -13 -86s-21.834 -51.833 -39.501 -73.5s-39.834 -39.834 -66.501 -54.501s-58 -24 -94 -28l-24 77c50.667 8.66699 87.667 26.167 111 52.5s35 66.166 35 119.499v541h91zM116.002 688.002l-132 -86l-21 54l141 119
h23l142 -119l-21 -54z" />
    <glyph glyph-name="Kcommaaccent" unicode="&#x136;" horiz-adv-x="634" 
d="M161 650v-341l313 341h119l-252 -265l279 -385h-113l-229 320l-117 -111v-209h-96v650h96zM237 -170c41.333 16 61.999 38.6641 61.999 67.9971c-20 0 -34.5 5.5 -43.5 16.5s-13.5 23.5 -13.5 37.5c0 6.66699 1 13.334 3 20.001s5.33301 12.834 10 18.501
s10.834 10.334 18.501 14.001s17.167 5.5 28.5 5.5c23.333 0 41 -8.5 53 -25.5s18 -37.833 18 -62.5c0 -12.667 -2.33301 -25.834 -7 -39.501s-11.5 -26.667 -20.5 -39s-20.5 -23.666 -34.5 -33.999s-30.333 -18.5 -49 -24.5z" />
    <glyph glyph-name="kcommaaccent" unicode="&#x137;" horiz-adv-x="583" 
d="M148 560v-276l270 276h113l-212 -218l244 -342h-107l-201 287l-107 -99v-188h-90v560h90zM220 -180c41.333 16 61.999 38.6641 61.999 67.9971c-20 0 -34.5 5.5 -43.5 16.5s-13.5 23.5 -13.5 37.5c0 6.66699 1 13.334 3 20.001s5.33301 12.834 10 18.501
s10.834 10.334 18.501 14.001s17.167 5.5 28.5 5.5c23.333 0 41 -8.5 53 -25.5s18 -37.833 18 -62.5c0 -12.667 -2.33301 -25.834 -7 -39.501s-11.5 -26.667 -20.5 -39s-20.5 -23.666 -34.5 -33.999s-30.333 -18.5 -49 -24.5z" />
    <glyph glyph-name="kgreenlandic" unicode="&#x138;" horiz-adv-x="583" 
d="M148 560v-276l270 276h113l-212 -218l244 -342h-107l-201 287l-107 -99v-188h-90v560h90z" />
    <glyph glyph-name="Lacute" unicode="&#x139;" horiz-adv-x="504" 
d="M467 80v-80h-402v650h96v-570h306zM167 881l78 -47l-98 -136h-69z" />
    <glyph glyph-name="lacute" unicode="&#x13a;" horiz-adv-x="471" 
d="M156 560v-485h285v-75h-376v560h91zM162 802l78 -47l-98 -136h-69z" />
    <glyph glyph-name="Lcommaaccent" unicode="&#x13b;" horiz-adv-x="504" 
d="M467 80v-80h-402v650h96v-570h306zM192 -223c41.333 16 61.999 38.6641 61.999 67.9971c-20 0 -34.5 5.5 -43.5 16.5s-13.5 23.5 -13.5 37.5c0 6.66699 1 13.334 3 20.001s5.33301 12.834 10 18.501s10.834 10.334 18.501 14.001s17.167 5.5 28.5 5.5
c23.333 0 41 -8.5 53 -25.5s18 -37.833 18 -62.5c0 -12.667 -2.33301 -25.834 -7 -39.501s-11.5 -26.667 -20.5 -39s-20.5 -23.666 -34.5 -33.999s-30.333 -18.5 -49 -24.5z" />
    <glyph glyph-name="lcommaaccent" unicode="&#x13c;" horiz-adv-x="471" 
d="M156 560v-485h285v-75h-376v560h91zM200 -217c41.333 16 61.999 38.6641 61.999 67.9971c-20 0 -34.5 5.5 -43.5 16.5s-13.5 23.5 -13.5 37.5c0 6.66699 1 13.334 3 20.001s5.33301 12.834 10 18.501s10.834 10.334 18.501 14.001s17.167 5.5 28.5 5.5
c23.333 0 41 -8.5 53 -25.5s18 -37.833 18 -62.5c0 -12.667 -2.33301 -25.834 -7 -39.501s-11.5 -26.667 -20.5 -39s-20.5 -23.666 -34.5 -33.999s-30.333 -18.5 -49 -24.5z" />
    <glyph glyph-name="Lcaron" unicode="&#x13d;" horiz-adv-x="504" 
d="M467 80v-80h-402v650h96v-570h306zM290 472c41.333 16 61.999 38.6641 61.999 67.9971c-20 0 -34.5 5.5 -43.5 16.5s-13.5 23.5 -13.5 37.5c0 6.66699 1 13.334 3 20.001s5.33301 12.834 10 18.501s10.834 10.334 18.501 14.001s17.167 5.5 28.5 5.5
c23.333 0 41 -8.5 53 -25.5s18 -37.833 18 -62.5c0 -12.667 -2.33301 -25.834 -7 -39.501s-11.5 -26.667 -20.5 -39s-20.5 -23.666 -34.5 -33.999s-30.333 -18.5 -49 -24.5z" />
    <glyph glyph-name="lcaron" unicode="&#x13e;" horiz-adv-x="471" 
d="M156 560v-485h285v-75h-376v560h91zM306 388c41.333 16 61.999 38.6641 61.999 67.9971c-20 0 -34.5 5.5 -43.5 16.5s-13.5 23.5 -13.5 37.5c0 6.66699 1 13.334 3 20.001s5.33301 12.834 10 18.501s10.834 10.334 18.501 14.001s17.167 5.5 28.5 5.5
c23.333 0 41 -8.5 53 -25.5s18 -37.833 18 -62.5c0 -12.667 -2.33301 -25.834 -7 -39.501s-11.5 -26.667 -20.5 -39s-20.5 -23.666 -34.5 -33.999s-30.333 -18.5 -49 -24.5z" />
    <glyph glyph-name="Ldot" unicode="&#x13f;" horiz-adv-x="504" 
d="M467 80v-80h-402v650h96v-570h306zM351 417c21.333 0 37.833 -6.33301 49.5 -19s17.5 -28.334 17.5 -47.001c0 -19.333 -5.83301 -34.666 -17.5 -45.999s-28.167 -17 -49.5 -17s-37.666 5.66699 -48.999 17s-17 26.666 -17 45.999c0 18.667 5.66699 34.334 17 47.001
s27.666 19 48.999 19z" />
    <glyph glyph-name="ldot" unicode="&#x140;" horiz-adv-x="471" 
d="M156 560v-485h285v-75h-376v560h91zM345 392c21.333 0 37.833 -6.33301 49.5 -19s17.5 -28.334 17.5 -47.001c0 -19.333 -5.83301 -34.666 -17.5 -45.999s-28.167 -17 -49.5 -17s-37.666 5.66699 -48.999 17s-17 26.666 -17 45.999c0 18.667 5.66699 34.334 17 47.001
s27.666 19 48.999 19z" />
    <glyph glyph-name="Lslash" unicode="&#x141;" horiz-adv-x="521" 
d="M484 80v-80h-402v267l-56 -22l-26 65l82 32v308h96v-270l114 45l26 -65l-140 -55v-225h306z" />
    <glyph glyph-name="lslash" unicode="&#x142;" horiz-adv-x="484" 
d="M169 560v-226l106 40l19 -68l-125 -47v-184h285v-75h-376v225l-53 -19l-19 68l72 27v259h91z" />
    <glyph glyph-name="Nacute" unicode="&#x143;" horiz-adv-x="734" 
d="M164 650l417 -531l-3 170v361h91v-650h-102l-418 533l6 -198v-335h-90v650h99zM418 881l78 -47l-98 -136h-69z" />
    <glyph glyph-name="nacute" unicode="&#x144;" horiz-adv-x="670" 
d="M160 560l361 -445l-4 134v311h88v-560h-98l-358 448l4 -159v-289h-88v560h95zM381 802l78 -47l-98 -136h-69z" />
    <glyph glyph-name="Ncommaaccent" unicode="&#x145;" horiz-adv-x="734" 
d="M164 650l417 -531l-3 170v361h91v-650h-102l-418 533l6 -198v-335h-90v650h99zM285 -177c41.333 16 61.999 38.6641 61.999 67.9971c-20 0 -34.5 5.5 -43.5 16.5s-13.5 23.5 -13.5 37.5c0 6.66699 1 13.334 3 20.001s5.33301 12.834 10 18.501
s10.834 10.334 18.501 14.001s17.167 5.5 28.5 5.5c23.333 0 41 -8.5 53 -25.5s18 -37.833 18 -62.5c0 -12.667 -2.33301 -25.834 -7 -39.501s-11.5 -26.667 -20.5 -39s-20.5 -23.666 -34.5 -33.999s-30.333 -18.5 -49 -24.5z" />
    <glyph glyph-name="ncommaaccent" unicode="&#x146;" horiz-adv-x="670" 
d="M253 -179c41.333 16 61.999 38.6641 61.999 67.9971c-20 0 -34.5 5.5 -43.5 16.5s-13.5 23.5 -13.5 37.5c0 6.66699 1 13.334 3 20.001s5.33301 12.834 10 18.501s10.834 10.334 18.501 14.001s17.167 5.5 28.5 5.5c23.333 0 41 -8.5 53 -25.5s18 -37.833 18 -62.5
c0 -12.667 -2.33301 -25.834 -7 -39.501s-11.5 -26.667 -20.5 -39s-20.5 -23.666 -34.5 -33.999s-30.333 -18.5 -49 -24.5zM159.999 559.997l361 -445l-4 134v311h88v-560h-98l-358 448l4 -159v-289h-88v560h95z" />
    <glyph glyph-name="Ncaron" unicode="&#x147;" horiz-adv-x="734" 
d="M164 650l417 -531l-3 170v361h91v-650h-102l-418 533l6 -198v-335h-90v650h99zM367 778l132 86l21 -54l-141 -119h-23l-142 119l21 54z" />
    <glyph glyph-name="ncaron" unicode="&#x148;" horiz-adv-x="670" 
d="M335 689l132 86l21 -54l-141 -119h-23l-142 119l21 54zM160 560l361 -445l-4 134v311h88v-560h-98l-358 448l4 -159v-289h-88v560h95z" />
    <glyph glyph-name="Omacron" unicode="&#x14c;" horiz-adv-x="780" 
d="M740 325c0 -50 -9 -95.667 -27 -137s-42.833 -77 -74.5 -107s-68.834 -53.167 -111.501 -69.5s-88.334 -24.5 -137.001 -24.5c-49.333 0 -95.166 8.16699 -137.499 24.5s-79.333 39.5 -111 69.5s-56.5 65.667 -74.5 107s-27 87 -27 137s9 95.667 27 137
s42.833 77 74.5 107s68.667 53.167 111 69.5s88.166 24.5 137.499 24.5c48.667 0 94.334 -8.16699 137.001 -24.5s79.834 -39.5 111.501 -69.5s56.5 -65.667 74.5 -107s27 -87 27 -137zM136 325c0 -41.333 6.83301 -78 20.5 -110s32 -59 55 -81s49.833 -38.833 80.5 -50.5
s63.334 -17.5 98.001 -17.5s67.334 5.83301 98.001 17.5s57.5 28.5 80.5 50.5s41.333 49 55 81s20.5 68.667 20.5 110s-6.83301 78 -20.5 110s-32 59 -55 81s-49.833 38.833 -80.5 50.5s-63.334 17.5 -98.001 17.5s-67.334 -5.83301 -98.001 -17.5s-57.5 -28.5 -80.5 -50.5
s-41.333 -49 -55 -81s-20.5 -68.667 -20.5 -110zM553 784v-73h-326v73h326z" />
    <glyph glyph-name="omacron" unicode="&#x14d;" horiz-adv-x="681" 
d="M641 280c0 -43.333 -7.66602 -82.666 -22.999 -117.999s-36.5 -65.833 -63.5 -91.5s-58.833 -45.5 -95.5 -59.5s-76.334 -21 -119.001 -21s-82.334 7 -119.001 21s-68.334 33.833 -95.001 59.5s-47.667 56.167 -63 91.5s-23 74.666 -23 117.999
c0 42.667 7.66699 81.834 23 117.501s36.333 66.334 63 92.001s58.334 45.5 95.001 59.5s76.334 21 119.001 21c43.333 0 83.333 -7 120 -21s68.5 -33.833 95.5 -59.5s48 -56.334 63 -92.001s22.5 -74.834 22.5 -117.501zM132.001 280c0 -34.667 5.5 -65.1689 16.5 -91.502
s26 -48.5 45 -66.5s41.167 -31.5 66.5 -40.5s52 -13.5 80 -13.5c28.667 0 55.5 4.33301 80.5 13s47 21.834 66 39.501s34 39.834 45 66.501s16.5 57.667 16.5 93s-5.5 66.333 -16.5 93s-26 48.834 -45 66.501s-41 30.834 -66 39.501s-51.833 13 -80.5 13
c-28 0 -54.667 -4.33301 -80 -13s-47.5 -21.834 -66.5 -39.501s-34 -39.834 -45 -66.501s-16.5 -57.667 -16.5 -93zM503.001 704.998v-73h-326v73h326z" />
    <glyph glyph-name="Obreve" unicode="&#x14e;" horiz-adv-x="780" 
d="M740 325c0 -50 -9 -95.667 -27 -137s-42.833 -77 -74.5 -107s-68.834 -53.167 -111.501 -69.5s-88.334 -24.5 -137.001 -24.5c-49.333 0 -95.166 8.16699 -137.499 24.5s-79.333 39.5 -111 69.5s-56.5 65.667 -74.5 107s-27 87 -27 137s9 95.667 27 137
s42.833 77 74.5 107s68.667 53.167 111 69.5s88.166 24.5 137.499 24.5c48.667 0 94.334 -8.16699 137.001 -24.5s79.834 -39.5 111.501 -69.5s56.5 -65.667 74.5 -107s27 -87 27 -137zM136 325c0 -41.333 6.83301 -78 20.5 -110s32 -59 55 -81s49.833 -38.833 80.5 -50.5
s63.334 -17.5 98.001 -17.5s67.334 5.83301 98.001 17.5s57.5 28.5 80.5 50.5s41.333 49 55 81s20.5 68.667 20.5 110s-6.83301 78 -20.5 110s-32 59 -55 81s-49.833 38.833 -80.5 50.5s-63.334 17.5 -98.001 17.5s-67.334 -5.83301 -98.001 -17.5s-57.5 -28.5 -80.5 -50.5
s-41.333 -49 -55 -81s-20.5 -68.667 -20.5 -110zM294 839c9.33301 -19.333 22.5 -34.001 39.5 -44.001s35.833 -15 56.5 -15c45.333 0 77.666 19.667 96.999 59l60 -27c-11.333 -35.333 -30.833 -61.666 -58.5 -78.999s-60.5 -26 -98.5 -26c-37.333 0 -70.166 9 -98.499 27
s-47.5 44 -57.5 78z" />
    <glyph glyph-name="obreve" unicode="&#x14f;" horiz-adv-x="681" 
d="M641 280c0 -43.333 -7.66602 -82.666 -22.999 -117.999s-36.5 -65.833 -63.5 -91.5s-58.833 -45.5 -95.5 -59.5s-76.334 -21 -119.001 -21s-82.334 7 -119.001 21s-68.334 33.833 -95.001 59.5s-47.667 56.167 -63 91.5s-23 74.666 -23 117.999
c0 42.667 7.66699 81.834 23 117.501s36.333 66.334 63 92.001s58.334 45.5 95.001 59.5s76.334 21 119.001 21c43.333 0 83.333 -7 120 -21s68.5 -33.833 95.5 -59.5s48 -56.334 63 -92.001s22.5 -74.834 22.5 -117.501zM132.001 280c0 -34.667 5.5 -65.1689 16.5 -91.502
s26 -48.5 45 -66.5s41.167 -31.5 66.5 -40.5s52 -13.5 80 -13.5c28.667 0 55.5 4.33301 80.5 13s47 21.834 66 39.501s34 39.834 45 66.501s16.5 57.667 16.5 93s-5.5 66.333 -16.5 93s-26 48.834 -45 66.501s-41 30.834 -66 39.501s-51.833 13 -80.5 13
c-28 0 -54.667 -4.33301 -80 -13s-47.5 -21.834 -66.5 -39.501s-34 -39.834 -45 -66.501s-16.5 -57.667 -16.5 -93zM244.001 749.998c9.33301 -19.333 22.5 -34.001 39.5 -44.001s35.833 -15 56.5 -15c45.333 0 77.666 19.667 96.999 59l60 -27
c-11.333 -35.333 -30.833 -61.666 -58.5 -78.999s-60.5 -26 -98.5 -26c-37.333 0 -70.166 9 -98.499 27s-47.5 44 -57.5 78z" />
    <glyph glyph-name="Ohungarumlaut" unicode="&#x150;" horiz-adv-x="780" 
d="M740 325c0 -50 -9 -95.667 -27 -137s-42.833 -77 -74.5 -107s-68.834 -53.167 -111.501 -69.5s-88.334 -24.5 -137.001 -24.5c-49.333 0 -95.166 8.16699 -137.499 24.5s-79.333 39.5 -111 69.5s-56.5 65.667 -74.5 107s-27 87 -27 137s9 95.667 27 137
s42.833 77 74.5 107s68.667 53.167 111 69.5s88.166 24.5 137.499 24.5c48.667 0 94.334 -8.16699 137.001 -24.5s79.834 -39.5 111.501 -69.5s56.5 -65.667 74.5 -107s27 -87 27 -137zM136 325c0 -41.333 6.83301 -78 20.5 -110s32 -59 55 -81s49.833 -38.833 80.5 -50.5
s63.334 -17.5 98.001 -17.5s67.334 5.83301 98.001 17.5s57.5 28.5 80.5 50.5s41.333 49 55 81s20.5 68.667 20.5 110s-6.83301 78 -20.5 110s-32 59 -55 81s-49.833 38.833 -80.5 50.5s-63.334 17.5 -98.001 17.5s-67.334 -5.83301 -98.001 -17.5s-57.5 -28.5 -80.5 -50.5
s-41.333 -49 -55 -81s-20.5 -68.667 -20.5 -110zM345 893l82 -30l-69 -159h-64zM483 883l76 -47l-93 -132h-67z" />
    <glyph glyph-name="ohungarumlaut" unicode="&#x151;" horiz-adv-x="681" 
d="M641 280c0 -43.333 -7.66602 -82.666 -22.999 -117.999s-36.5 -65.833 -63.5 -91.5s-58.833 -45.5 -95.5 -59.5s-76.334 -21 -119.001 -21s-82.334 7 -119.001 21s-68.334 33.833 -95.001 59.5s-47.667 56.167 -63 91.5s-23 74.666 -23 117.999
c0 42.667 7.66699 81.834 23 117.501s36.333 66.334 63 92.001s58.334 45.5 95.001 59.5s76.334 21 119.001 21c43.333 0 83.333 -7 120 -21s68.5 -33.833 95.5 -59.5s48 -56.334 63 -92.001s22.5 -74.834 22.5 -117.501zM132.001 280c0 -34.667 5.5 -65.1689 16.5 -91.502
s26 -48.5 45 -66.5s41.167 -31.5 66.5 -40.5s52 -13.5 80 -13.5c28.667 0 55.5 4.33301 80.5 13s47 21.834 66 39.501s34 39.834 45 66.501s16.5 57.667 16.5 93s-5.5 66.333 -16.5 93s-26 48.834 -45 66.501s-41 30.834 -66 39.501s-51.833 13 -80.5 13
c-28 0 -54.667 -4.33301 -80 -13s-47.5 -21.834 -66.5 -39.501s-34 -39.834 -45 -66.501s-16.5 -57.667 -16.5 -93zM303.001 807.998l82 -30l-69 -159h-64zM441.001 797.998l76 -47l-93 -132h-67z" />
    <glyph glyph-name="OE" unicode="&#x152;" horiz-adv-x="1070" 
d="M1013 650v-79h-319v-194h286v-78h-286v-220h333v-79h-424v89c-28 -32 -61.333 -57 -100 -75s-83 -27 -133 -27c-49.333 0 -94.166 8.16699 -134.499 24.5s-75 39.5 -104 69.5s-51.5 65.667 -67.5 107s-24 87 -24 137s8 95.667 24 137s38.5 77 67.5 107
s63.667 53.167 104 69.5s85.166 24.5 134.499 24.5c48 0 91.5 -8.83301 130.5 -26.5s73.167 -42.5 102.5 -74.5v88h410zM136 325c0 -41.333 5.66699 -78 17 -110s27.333 -59 48 -81s45.334 -38.833 74.001 -50.5s60.334 -17.5 95.001 -17.5s66.334 5.83301 95.001 17.5
s53.334 28.5 74.001 50.5s36.667 49 48 81s17 68.667 17 110s-5.66699 78 -17 110s-27.333 59 -48 81s-45.334 38.833 -74.001 50.5s-60.334 17.5 -95.001 17.5s-66.334 -5.83301 -95.001 -17.5s-53.334 -28.5 -74.001 -50.5s-36.667 -49 -48 -81s-17 -68.667 -17 -110z" />
    <glyph glyph-name="oe" unicode="&#x153;" horiz-adv-x="965" 
d="M903 560v-74.001h-290v-155h265v-74h-265v-182h302v-75h-389v73c-24.667 -30.667 -54 -52.167 -88 -64.5s-70 -18.5 -108 -18.5c-42.667 0 -81.834 7 -117.501 21s-66.167 33.833 -91.5 59.5s-45.166 56.167 -59.499 91.5s-21.5 74.666 -21.5 117.999
c0 42.667 7.16699 81.834 21.5 117.501s34.166 66.334 59.499 92.001s55.833 45.5 91.5 59.5s74.834 21 117.501 21c38 0 74 -5.66699 108 -17s63.333 -31 88 -59v66h377zM132 279.999c0 -34.667 5 -65.1689 15 -91.502s24 -48.5 42 -66.5s39 -31.5 63 -40.5
s50 -13.5 78 -13.5c28.667 0 55 4.33301 79 13s44.833 21.834 62.5 39.501s31.5 39.834 41.5 66.501s15 57.667 15 93s-5 66.333 -15 93s-23.833 48.834 -41.5 66.501s-38.5 30.834 -62.5 39.501s-50.333 13 -79 13c-28 0 -54.167 -4.33301 -78.5 -13
s-45.333 -21.834 -63 -39.501s-31.5 -39.834 -41.5 -66.501s-15 -57.667 -15 -93z" />
    <glyph glyph-name="Racute" unicode="&#x154;" horiz-adv-x="636" 
d="M330 650c32.667 0 62.833 -4.16602 90.5 -12.499s51.5 -20.5 71.5 -36.5s35.667 -35.333 47 -58s17 -48.334 17 -77.001c0 -38.667 -12 -73.5 -36 -104.5s-59.667 -52.833 -107 -65.5l188 -296h-111l-174 279h-156v-279h-95v650h265zM159.999 356.001h156
c42.667 0 77.5 9.33301 104.5 28s40.5 46 40.5 82s-13 62.833 -39 80.5s-61.667 26.5 -107 26.5h-155v-217zM333.999 881.001l78 -47l-98 -136h-69z" />
    <glyph glyph-name="racute" unicode="&#x155;" horiz-adv-x="565" 
d="M291 560c30 0 57.4961 -3.66699 82.4961 -11s46.333 -18 64 -32s31.334 -30.833 41.001 -50.5s14.5 -41.834 14.5 -66.501c0 -21.333 -3.16699 -40.666 -9.5 -57.999s-15.166 -32.5 -26.499 -45.5s-24.666 -24 -39.999 -33s-31.666 -16.167 -48.999 -21.5l159 -242h-105
l-148 234h-119v-234h-90v560h226zM154.996 308h127.999c16.667 0 32.334 1.5 47.001 4.5s27.5 8 38.5 15s19.667 16.5 26 28.5s9.5 26.667 9.5 44c0 32 -11 54.333 -33 67s-53 19 -93 19h-123v-178zM302.995 802l78 -47l-98 -136h-69z" />
    <glyph glyph-name="Rcommaaccent" unicode="&#x156;" horiz-adv-x="636" 
d="M330 650c32.667 0 62.833 -4.16602 90.5 -12.499s51.5 -20.5 71.5 -36.5s35.667 -35.333 47 -58s17 -48.334 17 -77.001c0 -38.667 -12 -73.5 -36 -104.5s-59.667 -52.833 -107 -65.5l188 -296h-111l-174 279h-156v-279h-95v650h265zM159.999 356.001h156
c42.667 0 77.5 9.33301 104.5 28s40.5 46 40.5 82s-13 62.833 -39 80.5s-61.667 26.5 -107 26.5h-155v-217zM248.999 -176.999c41.333 16 61.999 38.6641 61.999 67.9971c-20 0 -34.5 5.5 -43.5 16.5s-13.5 23.5 -13.5 37.5c0 6.66699 1 13.334 3 20.001
s5.33301 12.834 10 18.501s10.834 10.334 18.501 14.001s17.167 5.5 28.5 5.5c23.333 0 41 -8.5 53 -25.5s18 -37.833 18 -62.5c0 -12.667 -2.33301 -25.834 -7 -39.501s-11.5 -26.667 -20.5 -39s-20.5 -23.666 -34.5 -33.999s-30.333 -18.5 -49 -24.5z" />
    <glyph glyph-name="rcommaaccent" unicode="&#x157;" horiz-adv-x="565" 
d="M291 560c30 0 57.4961 -3.66699 82.4961 -11s46.333 -18 64 -32s31.334 -30.833 41.001 -50.5s14.5 -41.834 14.5 -66.501c0 -21.333 -3.16699 -40.666 -9.5 -57.999s-15.166 -32.5 -26.499 -45.5s-24.666 -24 -39.999 -33s-31.666 -16.167 -48.999 -21.5l159 -242h-105
l-148 234h-119v-234h-90v560h226zM154.996 308h127.999c16.667 0 32.334 1.5 47.001 4.5s27.5 8 38.5 15s19.667 16.5 26 28.5s9.5 26.667 9.5 44c0 32 -11 54.333 -33 67s-53 19 -93 19h-123v-178zM212.995 -178c41.333 16 61.999 38.6641 61.999 67.9971
c-20 0 -34.5 5.5 -43.5 16.5s-13.5 23.5 -13.5 37.5c0 6.66699 1 13.334 3 20.001s5.33301 12.834 10 18.501s10.834 10.334 18.501 14.001s17.167 5.5 28.5 5.5c23.333 0 41 -8.5 53 -25.5s18 -37.833 18 -62.5c0 -12.667 -2.33301 -25.834 -7 -39.501
s-11.5 -26.667 -20.5 -39s-20.5 -23.666 -34.5 -33.999s-30.333 -18.5 -49 -24.5z" />
    <glyph glyph-name="Rcaron" unicode="&#x158;" horiz-adv-x="636" 
d="M330 650c32.667 0 62.833 -4.16602 90.5 -12.499s51.5 -20.5 71.5 -36.5s35.667 -35.333 47 -58s17 -48.334 17 -77.001c0 -38.667 -12 -73.5 -36 -104.5s-59.667 -52.833 -107 -65.5l188 -296h-111l-174 279h-156v-279h-95v650h265zM159.999 356.001h156
c42.667 0 77.5 9.33301 104.5 28s40.5 46 40.5 82s-13 62.833 -39 80.5s-61.667 26.5 -107 26.5h-155v-217zM288.999 778.001l132 86l21 -54l-141 -119h-23l-142 119l21 54z" />
    <glyph glyph-name="rcaron" unicode="&#x159;" horiz-adv-x="565" 
d="M291 560c30 0 57.4961 -3.66699 82.4961 -11s46.333 -18 64 -32s31.334 -30.833 41.001 -50.5s14.5 -41.834 14.5 -66.501c0 -21.333 -3.16699 -40.666 -9.5 -57.999s-15.166 -32.5 -26.499 -45.5s-24.666 -24 -39.999 -33s-31.666 -16.167 -48.999 -21.5l159 -242h-105
l-148 234h-119v-234h-90v560h226zM154.996 308h127.999c16.667 0 32.334 1.5 47.001 4.5s27.5 8 38.5 15s19.667 16.5 26 28.5s9.5 26.667 9.5 44c0 32 -11 54.333 -33 67s-53 19 -93 19h-123v-178zM263.995 699l132 86l21 -54l-141 -119h-23l-142 119l21 54z" />
    <glyph glyph-name="Sacute" unicode="&#x15a;" horiz-adv-x="574" 
d="M453 531c-27.333 19.333 -54.335 33.168 -81.002 41.501s-57 12.5 -91 12.5c-25.333 0 -46 -2.83301 -62 -8.5s-28.667 -12.834 -38 -21.501s-15.833 -18.667 -19.5 -30s-5.5 -22.333 -5.5 -33c0 -24 7.83301 -44 23.5 -60s42.167 -27.667 79.5 -35l93 -19
c54.667 -11.333 98.167 -33.333 130.5 -66s48.5 -76.667 48.5 -132c0 -28 -5.83301 -53.667 -17.5 -77s-28.5 -43.666 -50.5 -60.999s-48.833 -30.833 -80.5 -40.5s-67.5 -14.5 -107.5 -14.5c-24 0 -45.833 1 -65.5 3s-38.5 5.33301 -56.5 10s-35.833 10.667 -53.5 18
s-36.167 16.333 -55.5 27l32 87c37.333 -23.333 71 -39.333 101 -48s62 -13 96 -13c55.333 0 96.833 10.333 124.5 31s41.5 46.334 41.5 77.001c0 34.667 -9.16699 60.834 -27.5 78.501s-49.166 30.5 -92.499 38.5l-102 19c-48 9.33301 -85.167 30.166 -111.5 62.499
s-39.5 69.166 -39.5 110.499c0 26 4.66699 49.667 14 71s23.166 39.666 41.499 54.999s40.833 27.333 67.5 36s57.334 13 92.001 13c42.667 0 80.334 -4 113.001 -12s65.667 -23 99 -45zM344.998 886.002l78 -47l-98 -136h-69z" />
    <glyph glyph-name="sacute" unicode="&#x15b;" horiz-adv-x="500" 
d="M394 447c-27.333 18.667 -52.1689 31.6641 -74.502 38.9971s-47.5 11 -75.5 11c-36 0 -62 -7.16699 -78 -21.5s-24 -31.833 -24 -52.5s5.5 -36.167 16.5 -46.5s28.167 -18.5 51.5 -24.5l93 -24c24.667 -6.66699 46.667 -14.5 66 -23.5s35.833 -20.167 49.5 -33.5
s24 -29.166 31 -47.499s10.5 -40.5 10.5 -66.5c0 -23.333 -4.5 -45.166 -13.5 -65.499s-22.5 -38 -40.5 -53s-40.5 -26.833 -67.5 -35.5s-58.833 -13 -95.5 -13c-21.333 0 -40.833 0.833008 -58.5 2.5s-34.5 4.5 -50.5 8.5s-31.667 9.16699 -47 15.5s-31 14.5 -47 24.5
l31 80c16 -10 30.833 -18.5 44.5 -25.5s27.167 -12.667 40.5 -17s27.333 -7.5 42 -9.5s31 -3 49 -3c42 0 73.667 7.83301 95 23.5s32 37.834 32 66.501c0 28 -7.66699 48.5 -23 61.5s-40.666 23.833 -75.999 32.5l-101 24c-39.333 9.33301 -69.166 26.333 -89.499 51
s-30.5 56.667 -30.5 96c0 44 16.667 79.833 50 107.5s79 41.5 137 41.5c38.667 0 73.667 -4.16699 105 -12.5s60 -21.5 86 -39.5zM298.997 801.997l78 -47l-98 -136h-69z" />
    <glyph glyph-name="Scircumflex" unicode="&#x15c;" horiz-adv-x="574" 
d="M453 531c-27.333 19.333 -54.335 33.168 -81.002 41.501s-57 12.5 -91 12.5c-25.333 0 -46 -2.83301 -62 -8.5s-28.667 -12.834 -38 -21.501s-15.833 -18.667 -19.5 -30s-5.5 -22.333 -5.5 -33c0 -24 7.83301 -44 23.5 -60s42.167 -27.667 79.5 -35l93 -19
c54.667 -11.333 98.167 -33.333 130.5 -66s48.5 -76.667 48.5 -132c0 -28 -5.83301 -53.667 -17.5 -77s-28.5 -43.666 -50.5 -60.999s-48.833 -30.833 -80.5 -40.5s-67.5 -14.5 -107.5 -14.5c-24 0 -45.833 1 -65.5 3s-38.5 5.33301 -56.5 10s-35.833 10.667 -53.5 18
s-36.167 16.333 -55.5 27l32 87c37.333 -23.333 71 -39.333 101 -48s62 -13 96 -13c55.333 0 96.833 10.333 124.5 31s41.5 46.334 41.5 77.001c0 34.667 -9.16699 60.834 -27.5 78.501s-49.166 30.5 -92.499 38.5l-102 19c-48 9.33301 -85.167 30.166 -111.5 62.499
s-39.5 69.166 -39.5 110.499c0 26 4.66699 49.667 14 71s23.166 39.666 41.499 54.999s40.833 27.333 67.5 36s57.334 13 92.001 13c42.667 0 80.334 -4 113.001 -12s65.667 -23 99 -45zM292.998 777.002l-132 -86l-21 54l141 119h23l142 -119l-21 -54z" />
    <glyph glyph-name="scircumflex" unicode="&#x15d;" horiz-adv-x="500" 
d="M394 447c-27.333 18.667 -52.1689 31.6641 -74.502 38.9971s-47.5 11 -75.5 11c-36 0 -62 -7.16699 -78 -21.5s-24 -31.833 -24 -52.5s5.5 -36.167 16.5 -46.5s28.167 -18.5 51.5 -24.5l93 -24c24.667 -6.66699 46.667 -14.5 66 -23.5s35.833 -20.167 49.5 -33.5
s24 -29.166 31 -47.499s10.5 -40.5 10.5 -66.5c0 -23.333 -4.5 -45.166 -13.5 -65.499s-22.5 -38 -40.5 -53s-40.5 -26.833 -67.5 -35.5s-58.833 -13 -95.5 -13c-21.333 0 -40.833 0.833008 -58.5 2.5s-34.5 4.5 -50.5 8.5s-31.667 9.16699 -47 15.5s-31 14.5 -47 24.5
l31 80c16 -10 30.833 -18.5 44.5 -25.5s27.167 -12.667 40.5 -17s27.333 -7.5 42 -9.5s31 -3 49 -3c42 0 73.667 7.83301 95 23.5s32 37.834 32 66.501c0 28 -7.66699 48.5 -23 61.5s-40.666 23.833 -75.999 32.5l-101 24c-39.333 9.33301 -69.166 26.333 -89.499 51
s-30.5 56.667 -30.5 96c0 44 16.667 79.833 50 107.5s79 41.5 137 41.5c38.667 0 73.667 -4.16699 105 -12.5s60 -21.5 86 -39.5zM249.997 687.997l-132 -86l-21 54l141 119h23l142 -119l-21 -54z" />
    <glyph glyph-name="Scedilla" unicode="&#x15e;" horiz-adv-x="574" 
d="M453 531c-27.333 19.333 -54.3359 33.165 -81.0029 41.498s-57 12.5 -91 12.5c-25.333 0 -46 -2.83301 -62 -8.5s-28.667 -12.834 -38 -21.501s-15.833 -18.667 -19.5 -30s-5.5 -22.333 -5.5 -33c0 -24 7.83301 -44 23.5 -60s42.167 -27.667 79.5 -35l93 -19
c54.667 -11.333 98.167 -33.333 130.5 -66s48.5 -76.667 48.5 -132c0 -26 -5 -50.167 -15 -72.5s-24.667 -42 -44 -59s-43 -30.667 -71 -41s-59.667 -16.833 -95 -19.5l-4 -36c23.333 0 41.333 -6.16699 54 -18.5s19 -29.5 19 -51.5c0 -18.667 -4.83301 -35.167 -14.5 -49.5
s-22 -26.666 -37 -36.999s-31.667 -18.833 -50 -25.5s-35.833 -11.334 -52.5 -14.001l-13 61c27.333 4.66699 50 11.834 68 21.501s27 23.5 27 41.5s-12 27 -36 27h-33l3 81c-18.667 0.666992 -36 2.33398 -52 5.00098s-31.667 6.33398 -47 11.001
s-30.666 10.334 -45.999 17.001s-31.333 14.667 -48 24l32 87c37.333 -23.333 71 -39.333 101 -48s62 -13 96 -13c55.333 0 96.833 10.333 124.5 31s41.5 46.334 41.5 77.001c0 34.667 -9.16699 60.834 -27.5 78.501s-49.166 30.5 -92.499 38.5l-102 19
c-48 9.33301 -85.167 30.166 -111.5 62.499s-39.5 69.166 -39.5 110.499c0 26 4.66699 49.667 14 71s23.166 39.666 41.499 54.999s40.833 27.333 67.5 36s57.334 13 92.001 13c42.667 0 80.334 -4 113.001 -12s65.667 -23 99 -45z" />
    <glyph glyph-name="scedilla" unicode="&#x15f;" horiz-adv-x="500" 
d="M394 447c-27.333 18.667 -52.168 31.665 -74.501 38.998s-47.5 11 -75.5 11c-36 0 -62 -7.16699 -78 -21.5s-24 -31.833 -24 -52.5s5.5 -36.167 16.5 -46.5s28.167 -18.5 51.5 -24.5l93 -24c24.667 -6.66699 46.667 -14.5 66 -23.5s35.833 -20.333 49.5 -34
s24 -29.667 31 -48s10.5 -40.166 10.5 -65.499c0 -22.667 -4.16699 -43.834 -12.5 -63.501s-21 -37 -38 -52s-38.333 -27.167 -64 -36.5s-55.5 -14.333 -89.5 -15l-5 -38c23.333 0 41.333 -6.16699 54 -18.5s19 -29.5 19 -51.5c0 -18.667 -4.83301 -35.167 -14.5 -49.5
s-22 -26.666 -37 -36.999s-31.667 -18.833 -50 -25.5s-35.833 -11.334 -52.5 -14.001l-13 61c27.333 4.66699 50 11.834 68 21.501s27 23.5 27 41.5s-12 27 -36 27h-33l3 86c-27.333 2.66699 -52.333 7.5 -75 14.5s-46.334 18.167 -71.001 33.5l31 80
c16 -10 30.833 -18.5 44.5 -25.5s27.167 -12.667 40.5 -17s27.333 -7.5 42 -9.5s31 -3 49 -3c42 0 73.667 7.83301 95 23.5s32 37.834 32 66.501c0 28 -7.66699 48.5 -23 61.5s-40.666 23.833 -75.999 32.5l-101 24c-39.333 9.33301 -69.166 26.333 -89.499 51
s-30.5 56.667 -30.5 96c0 44 16.667 79.833 50 107.5s79 41.5 137 41.5c38.667 0 73.667 -4.16699 105 -12.5s60 -21.5 86 -39.5z" />
    <glyph glyph-name="Scaron" unicode="&#x160;" horiz-adv-x="574" 
d="M453 531c-27.333 19.333 -54.335 33.168 -81.002 41.501s-57 12.5 -91 12.5c-25.333 0 -46 -2.83301 -62 -8.5s-28.667 -12.834 -38 -21.501s-15.833 -18.667 -19.5 -30s-5.5 -22.333 -5.5 -33c0 -24 7.83301 -44 23.5 -60s42.167 -27.667 79.5 -35l93 -19
c54.667 -11.333 98.167 -33.333 130.5 -66s48.5 -76.667 48.5 -132c0 -28 -5.83301 -53.667 -17.5 -77s-28.5 -43.666 -50.5 -60.999s-48.833 -30.833 -80.5 -40.5s-67.5 -14.5 -107.5 -14.5c-24 0 -45.833 1 -65.5 3s-38.5 5.33301 -56.5 10s-35.833 10.667 -53.5 18
s-36.167 16.333 -55.5 27l32 87c37.333 -23.333 71 -39.333 101 -48s62 -13 96 -13c55.333 0 96.833 10.333 124.5 31s41.5 46.334 41.5 77.001c0 34.667 -9.16699 60.834 -27.5 78.501s-49.166 30.5 -92.499 38.5l-102 19c-48 9.33301 -85.167 30.166 -111.5 62.499
s-39.5 69.166 -39.5 110.499c0 26 4.66699 49.667 14 71s23.166 39.666 41.499 54.999s40.833 27.333 67.5 36s57.334 13 92.001 13c42.667 0 80.334 -4 113.001 -12s65.667 -23 99 -45zM284.998 783.002l132 86l21 -54l-141 -119h-23l-142 119l21 54z" />
    <glyph glyph-name="scaron" unicode="&#x161;" horiz-adv-x="500" 
d="M394 447c-27.333 18.667 -52.1689 31.6641 -74.502 38.9971s-47.5 11 -75.5 11c-36 0 -62 -7.16699 -78 -21.5s-24 -31.833 -24 -52.5s5.5 -36.167 16.5 -46.5s28.167 -18.5 51.5 -24.5l93 -24c24.667 -6.66699 46.667 -14.5 66 -23.5s35.833 -20.167 49.5 -33.5
s24 -29.166 31 -47.499s10.5 -40.5 10.5 -66.5c0 -23.333 -4.5 -45.166 -13.5 -65.499s-22.5 -38 -40.5 -53s-40.5 -26.833 -67.5 -35.5s-58.833 -13 -95.5 -13c-21.333 0 -40.833 0.833008 -58.5 2.5s-34.5 4.5 -50.5 8.5s-31.667 9.16699 -47 15.5s-31 14.5 -47 24.5
l31 80c16 -10 30.833 -18.5 44.5 -25.5s27.167 -12.667 40.5 -17s27.333 -7.5 42 -9.5s31 -3 49 -3c42 0 73.667 7.83301 95 23.5s32 37.834 32 66.501c0 28 -7.66699 48.5 -23 61.5s-40.666 23.833 -75.999 32.5l-101 24c-39.333 9.33301 -69.166 26.333 -89.499 51
s-30.5 56.667 -30.5 96c0 44 16.667 79.833 50 107.5s79 41.5 137 41.5c38.667 0 73.667 -4.16699 105 -12.5s60 -21.5 86 -39.5zM249.997 698.997l132 86l21 -54l-141 -119h-23l-142 119l21 54z" />
    <glyph glyph-name="Tcommaaccent" unicode="&#x162;" horiz-adv-x="544" 
d="M30 650h484v-76h-194v-574h-96v574h-194v76zM209 -223c41.333 16 61.999 38.6641 61.999 67.9971c-20 0 -34.5 5.5 -43.5 16.5s-13.5 23.5 -13.5 37.5c0 6.66699 1 13.334 3 20.001s5.33301 12.834 10 18.501s10.834 10.334 18.501 14.001s17.167 5.5 28.5 5.5
c23.333 0 41 -8.5 53 -25.5s18 -37.833 18 -62.5c0 -12.667 -2.33301 -25.834 -7 -39.501s-11.5 -26.667 -20.5 -39s-20.5 -23.666 -34.5 -33.999s-30.333 -18.5 -49 -24.5z" />
    <glyph glyph-name="tcommaaccent" unicode="&#x163;" horiz-adv-x="496" 
d="M466 560v-75h-172v-485h-92v485h-172v75h436zM183 -218c41.333 16 61.999 38.6641 61.999 67.9971c-20 0 -34.5 5.5 -43.5 16.5s-13.5 23.5 -13.5 37.5c0 6.66699 1 13.334 3 20.001s5.33301 12.834 10 18.501s10.834 10.334 18.501 14.001s17.167 5.5 28.5 5.5
c23.333 0 41 -8.5 53 -25.5s18 -37.833 18 -62.5c0 -12.667 -2.33301 -25.834 -7 -39.501s-11.5 -26.667 -20.5 -39s-20.5 -23.666 -34.5 -33.999s-30.333 -18.5 -49 -24.5z" />
    <glyph glyph-name="Tcaron" unicode="&#x164;" horiz-adv-x="544" 
d="M30 650h484v-76h-194v-574h-96v574h-194v76zM272 778l132 86l21 -54l-141 -119h-23l-142 119l21 54z" />
    <glyph glyph-name="tcaron" unicode="&#x165;" horiz-adv-x="496" 
d="M466 560v-75h-172v-485h-92v485h-172v75h436zM248 699l132 86l21 -54l-141 -119h-23l-142 119l21 54z" />
    <glyph glyph-name="Utilde" unicode="&#x168;" horiz-adv-x="680" 
d="M160 650l-0.00195312 -379c0 -69.333 15.833 -121.333 47.5 -156s75.834 -52 132.501 -52s100.834 17.333 132.501 52s47.5 86.667 47.5 156v379h95v-372c0 -50 -6.5 -93.167 -19.5 -129.5s-31.333 -66.5 -55 -90.5s-52.5 -41.833 -86.5 -53.5s-72 -17.5 -114 -17.5
s-80 5.83301 -114 17.5s-62.833 29.5 -86.5 53.5s-42 54.167 -55 90.5s-19.5 79.5 -19.5 129.5v372h95zM158.998 765c14.667 14.667 32.168 25.833 52.501 33.5s41.833 11.5 64.5 11.5c16 0 29.667 -2 41 -6s22 -8.16699 32 -12.5l29.5 -12.5c9.66699 -4 21.167 -6 34.5 -6
c14 0 26 2 36 6s20.667 11.667 32 23l41 -48c-28.667 -36.667 -64.667 -55 -108 -55c-15.333 0 -29 2 -41 6s-23.667 8.5 -35 13.5s-22.5 9.5 -33.5 13.5s-22.5 6 -34.5 6c-32.667 0 -60.334 -13 -83.001 -39z" />
    <glyph glyph-name="utilde" unicode="&#x169;" horiz-adv-x="618" 
d="M156 560v-331.998c0 -54 14 -95 42 -123s65 -42 111 -42c22 0 42.333 3.5 61 10.5s34.834 17.5 48.501 31.5s24.334 31.167 32.001 51.5s11.5 44.166 11.5 71.499v332h91v-320c0 -40.667 -6 -76.5 -18 -107.5s-28.833 -57.167 -50.5 -78.5s-47.334 -37.5 -77.001 -48.5
s-62.5 -16.5 -98.5 -16.5c-35.333 0 -67.833 5.16699 -97.5 15.5s-55.334 25.666 -77.001 45.999s-38.667 45.833 -51 76.5s-18.5 66.667 -18.5 108v325h91zM128 686.002c14.667 14.667 32.168 25.833 52.501 33.5s41.833 11.5 64.5 11.5c16 0 29.667 -2 41 -6
s22 -8.16699 32 -12.5l29.5 -12.5c9.66699 -4 21.167 -6 34.5 -6c14 0 26 2 36 6s20.667 11.667 32 23l41 -48c-28.667 -36.667 -64.667 -55 -108 -55c-15.333 0 -29 2 -41 6s-23.667 8.5 -35 13.5s-22.5 9.5 -33.5 13.5s-22.5 6 -34.5 6c-32.667 0 -60.334 -13 -83.001 -39
z" />
    <glyph glyph-name="Umacron" unicode="&#x16a;" horiz-adv-x="680" 
d="M160 650l-0.00195312 -379c0 -69.333 15.833 -121.333 47.5 -156s75.834 -52 132.501 -52s100.834 17.333 132.501 52s47.5 86.667 47.5 156v379h95v-372c0 -50 -6.5 -93.167 -19.5 -129.5s-31.333 -66.5 -55 -90.5s-52.5 -41.833 -86.5 -53.5s-72 -17.5 -114 -17.5
s-80 5.83301 -114 17.5s-62.833 29.5 -86.5 53.5s-42 54.167 -55 90.5s-19.5 79.5 -19.5 129.5v372h95zM502.998 784v-73h-326v73h326z" />
    <glyph glyph-name="umacron" unicode="&#x16b;" horiz-adv-x="618" 
d="M156 560v-331.998c0 -54 14 -95 42 -123s65 -42 111 -42c22 0 42.333 3.5 61 10.5s34.834 17.5 48.501 31.5s24.334 31.167 32.001 51.5s11.5 44.166 11.5 71.499v332h91v-320c0 -40.667 -6 -76.5 -18 -107.5s-28.833 -57.167 -50.5 -78.5s-47.334 -37.5 -77.001 -48.5
s-62.5 -16.5 -98.5 -16.5c-35.333 0 -67.833 5.16699 -97.5 15.5s-55.334 25.666 -77.001 45.999s-38.667 45.833 -51 76.5s-18.5 66.667 -18.5 108v325h91zM472 705.002v-73h-326v73h326z" />
    <glyph glyph-name="Ubreve" unicode="&#x16c;" horiz-adv-x="680" 
d="M160 650l-0.00195312 -379c0 -69.333 15.833 -121.333 47.5 -156s75.834 -52 132.501 -52s100.834 17.333 132.501 52s47.5 86.667 47.5 156v379h95v-372c0 -50 -6.5 -93.167 -19.5 -129.5s-31.333 -66.5 -55 -90.5s-52.5 -41.833 -86.5 -53.5s-72 -17.5 -114 -17.5
s-80 5.83301 -114 17.5s-62.833 29.5 -86.5 53.5s-42 54.167 -55 90.5s-19.5 79.5 -19.5 129.5v372h95zM243.998 826c9.33301 -19.333 22.5 -34.001 39.5 -44.001s35.833 -15 56.5 -15c45.333 0 77.666 19.667 96.999 59l60 -27
c-11.333 -35.333 -30.833 -61.666 -58.5 -78.999s-60.5 -26 -98.5 -26c-37.333 0 -70.166 9 -98.499 27s-47.5 44 -57.5 78z" />
    <glyph glyph-name="ubreve" unicode="&#x16d;" horiz-adv-x="618" 
d="M156 560v-331.998c0 -54 14 -95 42 -123s65 -42 111 -42c22 0 42.333 3.5 61 10.5s34.834 17.5 48.501 31.5s24.334 31.167 32.001 51.5s11.5 44.166 11.5 71.499v332h91v-320c0 -40.667 -6 -76.5 -18 -107.5s-28.833 -57.167 -50.5 -78.5s-47.334 -37.5 -77.001 -48.5
s-62.5 -16.5 -98.5 -16.5c-35.333 0 -67.833 5.16699 -97.5 15.5s-55.334 25.666 -77.001 45.999s-38.667 45.833 -51 76.5s-18.5 66.667 -18.5 108v325h91zM213 740.002c9.33301 -19.333 22.5 -34.001 39.5 -44.001s35.833 -15 56.5 -15c45.333 0 77.666 19.667 96.999 59
l60 -27c-11.333 -35.333 -30.833 -61.666 -58.5 -78.999s-60.5 -26 -98.5 -26c-37.333 0 -70.166 9 -98.499 27s-47.5 44 -57.5 78z" />
    <glyph glyph-name="Uring" unicode="&#x16e;" horiz-adv-x="680" 
d="M160 650l-0.00195312 -379c0 -69.333 15.833 -121.333 47.5 -156s75.834 -52 132.501 -52s100.834 17.333 132.501 52s47.5 86.667 47.5 156v379h95v-372c0 -50 -6.5 -93.167 -19.5 -129.5s-31.333 -66.5 -55 -90.5s-52.5 -41.833 -86.5 -53.5s-72 -17.5 -114 -17.5
s-80 5.83301 -114 17.5s-62.833 29.5 -86.5 53.5s-42 54.167 -55 90.5s-19.5 79.5 -19.5 129.5v372h95zM339.998 670c-34.667 0 -62.8311 10.5 -84.498 31.5s-32.5 47.833 -32.5 80.5c0 15.333 3 29.833 9 43.5s14.167 25.5 24.5 35.5s22.666 17.833 36.999 23.5
s29.833 8.5 46.5 8.5s32.167 -2.83301 46.5 -8.5s26.666 -13.5 36.999 -23.5s18.5 -21.833 24.5 -35.5s9 -28.167 9 -43.5c0 -33.333 -11 -60.333 -33 -81s-50 -31 -84 -31zM396.001 782c0 16 -5.33301 29.167 -16 39.5s-24 15.5 -40 15.5s-29.5 -5.16699 -40.5 -15.5
s-16.5 -23.5 -16.5 -39.5s5.5 -29.333 16.5 -40s24.5 -16 40.5 -16s29.333 5.33301 40 16s16 24 16 40z" />
    <glyph glyph-name="uring" unicode="&#x16f;" horiz-adv-x="618" 
d="M156 560v-331.998c0 -54 14 -95 42 -123s65 -42 111 -42c22 0 42.333 3.5 61 10.5s34.834 17.5 48.501 31.5s24.334 31.167 32.001 51.5s11.5 44.166 11.5 71.499v332h91v-320c0 -40.667 -6 -76.5 -18 -107.5s-28.833 -57.167 -50.5 -78.5s-47.334 -37.5 -77.001 -48.5
s-62.5 -16.5 -98.5 -16.5c-35.333 0 -67.833 5.16699 -97.5 15.5s-55.334 25.666 -77.001 45.999s-38.667 45.833 -51 76.5s-18.5 66.667 -18.5 108v325h91zM309 585.002c-34.667 0 -62.8311 10.5 -84.498 31.5s-32.5 47.833 -32.5 80.5c0 15.333 3 29.833 9 43.5
s14.167 25.5 24.5 35.5s22.666 17.833 36.999 23.5s29.833 8.5 46.5 8.5s32.167 -2.83301 46.5 -8.5s26.666 -13.5 36.999 -23.5s18.5 -21.833 24.5 -35.5s9 -28.167 9 -43.5c0 -33.333 -11 -60.333 -33 -81s-50 -31 -84 -31zM365.003 697.002
c0 16 -5.33301 29.167 -16 39.5s-24 15.5 -40 15.5s-29.5 -5.16699 -40.5 -15.5s-16.5 -23.5 -16.5 -39.5s5.5 -29.333 16.5 -40s24.5 -16 40.5 -16s29.333 5.33301 40 16s16 24 16 40z" />
    <glyph glyph-name="Uhungarumlaut" unicode="&#x170;" horiz-adv-x="680" 
d="M160 650l-0.00195312 -379c0 -69.333 15.833 -121.333 47.5 -156s75.834 -52 132.501 -52s100.834 17.333 132.501 52s47.5 86.667 47.5 156v379h95v-372c0 -50 -6.5 -93.167 -19.5 -129.5s-31.333 -66.5 -55 -90.5s-52.5 -41.833 -86.5 -53.5s-72 -17.5 -114 -17.5
s-80 5.83301 -114 17.5s-62.833 29.5 -86.5 53.5s-42 54.167 -55 90.5s-19.5 79.5 -19.5 129.5v372h95zM293.998 881l82 -30l-69 -159h-64zM431.998 871l76 -47l-93 -132h-67z" />
    <glyph glyph-name="uhungarumlaut" unicode="&#x171;" horiz-adv-x="618" 
d="M156 560v-331.998c0 -54 14 -95 42 -123s65 -42 111 -42c22 0 42.333 3.5 61 10.5s34.834 17.5 48.501 31.5s24.334 31.167 32.001 51.5s11.5 44.166 11.5 71.499v332h91v-320c0 -40.667 -6 -76.5 -18 -107.5s-28.833 -57.167 -50.5 -78.5s-47.334 -37.5 -77.001 -48.5
s-62.5 -16.5 -98.5 -16.5c-35.333 0 -67.833 5.16699 -97.5 15.5s-55.334 25.666 -77.001 45.999s-38.667 45.833 -51 76.5s-18.5 66.667 -18.5 108v325h91zM351 609.002h-69l-98 136l78 47z" />
    <glyph glyph-name="Uogonek" unicode="&#x172;" horiz-adv-x="680" 
d="M160 650v-378.999c0 -69.333 15.833 -121.333 47.5 -156s75.834 -52 132.501 -52s100.834 17.333 132.501 52s47.5 86.667 47.5 156v379h95v-372c0 -86 -18.5 -152.167 -55.5 -198.5s-87.833 -75.166 -152.5 -86.499c-20.667 -10.667 -34.334 -21.834 -41.001 -33.501
s-10 -24.167 -10 -37.5c0 -11.333 3.5 -21.5 10.5 -30.5s19.833 -13.5 38.5 -13.5c4.66699 0 9.5 0.333008 14.5 1s10.5 2 16.5 4l-16 -65c-6.66699 -1.33301 -13.167 -2.33301 -19.5 -3s-12.166 -1 -17.499 -1c-32 0 -57.333 8.16699 -76 24.5s-28 37.166 -28 62.499
c0 14.667 3.66699 29.834 11 45.501s18.666 29.167 33.999 40.5c-40 1.33301 -75.833 8.16602 -107.5 20.499s-58.834 30.5 -81.501 54.5s-40 54 -52 90s-18 78 -18 126v372h95z" />
    <glyph glyph-name="uogonek" unicode="&#x173;" horiz-adv-x="618" 
d="M156 560l-0.00390625 -331.996c0 -54 14 -95 42 -123s65 -42 111 -42c22 0 42.333 3.5 61 10.5s34.834 17.5 48.501 31.5s24.334 31.167 32.001 51.5s11.5 44.166 11.5 71.499v332h91v-320c0 -70 -17.167 -125.833 -51.5 -167.5s-79.5 -67.834 -135.5 -78.501
c-17.333 -10 -28.833 -20.333 -34.5 -31s-8.5 -22.334 -8.5 -35.001c0 -11.333 3.5 -21.5 10.5 -30.5s19.833 -13.5 38.5 -13.5c4.66699 0 9.5 0.333008 14.5 1s10.5 2 16.5 4l-16 -65c-6.66699 -1.33301 -13.167 -2.33301 -19.5 -3s-12.166 -1 -17.499 -1
c-32 0 -57.333 8.16699 -76 24.5s-28 37.166 -28 62.499c0 14 3.16699 28.5 9.5 43.5s16.5 28.167 30.5 39.5c-32 2 -61.667 8.66699 -89 20s-50.666 27.166 -69.999 47.499s-34.5 45.333 -45.5 75s-16.5 63.834 -16.5 102.501v325h91z" />
    <glyph glyph-name="Wcircumflex" unicode="&#x174;" horiz-adv-x="1009" 
d="M231 0l-206 650h103l169 -555h4l162 555h85l171 -555h4l165 555h96l-205 -650h-128l-144 483h-4l-145 -483h-127zM504 775l-132 -86l-21 54l141 119h23l142 -119l-21 -54z" />
    <glyph glyph-name="wcircumflex" unicode="&#x175;" horiz-adv-x="925" 
d="M124 560l140 -480h7l131 480h120l133 -480h7l140 480h98l-177 -560h-135l-126 456h-5l-125 -456h-134l-173 560h99zM462 688l-132 -86l-21 54l141 119h23l142 -119l-21 -54z" />
    <glyph glyph-name="Ycircumflex" unicode="&#x176;" horiz-adv-x="646" 
d="M131 650l192 -313h4l190 313h104l-250 -401v-249h-94v247l-252 403h106zM323 771l-132 -86l-21 54l141 119h23l142 -119l-21 -54z" />
    <glyph glyph-name="ycircumflex" unicode="&#x177;" horiz-adv-x="579" 
d="M246 0v232l-221 328h103l162 -245h5l159 245h100l-219 -328v-232h-89zM289 698l-132 -86l-21 54l141 119h23l142 -119l-21 -54z" />
    <glyph glyph-name="Ydieresis" unicode="&#x178;" horiz-adv-x="646" 
d="M131 650l192 -313h4l190 313h104l-250 -401v-249h-94v247l-252 403h106zM213 828c20.667 0 36.5 -5.66699 47.5 -17s16.5 -26 16.5 -44c0 -17.333 -5.5 -31.666 -16.5 -42.999s-26.833 -17 -47.5 -17c-19.333 0 -34.5 5.66699 -45.5 17s-16.5 25.666 -16.5 42.999
c0 18 5.5 32.667 16.5 44s26.167 17 45.5 17zM432 828c19.333 0 34.666 -5.66699 45.999 -17s17 -26 17 -44c0 -17.333 -5.66699 -31.666 -17 -42.999s-26.666 -17 -45.999 -17s-34.666 5.66699 -45.999 17s-17 25.666 -17 42.999c0 18 5.66699 32.667 17 44
s26.666 17 45.999 17z" />
    <glyph glyph-name="Zacute" unicode="&#x179;" horiz-adv-x="617" 
d="M573 650v-68l-417 -503h425v-79h-544v65l420 508h-393v77h509zM364 881l78 -47l-98 -136h-69z" />
    <glyph glyph-name="zacute" unicode="&#x17a;" horiz-adv-x="542" 
d="M500 560v-57l-340 -428h342v-75h-462v60l341 426h-331v74h450zM305 802l78 -47l-98 -136h-69z" />
    <glyph glyph-name="Zdotaccent" unicode="&#x17b;" horiz-adv-x="617" 
d="M573 650v-68l-417 -503h425v-79h-544v65l420 508h-393v77h509zM313 830c21.333 0 37.833 -6.33301 49.5 -19s17.5 -28.334 17.5 -47.001c0 -19.333 -5.83301 -34.666 -17.5 -45.999s-28.167 -17 -49.5 -17s-37.666 5.66699 -48.999 17s-17 26.666 -17 45.999
c0 18.667 5.66699 34.334 17 47.001s27.666 19 48.999 19z" />
    <glyph glyph-name="zdotaccent" unicode="&#x17c;" horiz-adv-x="542" 
d="M500 560v-57l-340 -428h342v-75h-462v60l341 426h-331v74h450zM268 742c21.333 0 37.833 -6.33301 49.5 -19s17.5 -28.334 17.5 -47.001c0 -19.333 -5.83301 -34.666 -17.5 -45.999s-28.167 -17 -49.5 -17s-37.666 5.66699 -48.999 17s-17 26.666 -17 45.999
c0 18.667 5.66699 34.334 17 47.001s27.666 19 48.999 19z" />
    <glyph glyph-name="Zcaron" unicode="&#x17d;" horiz-adv-x="617" 
d="M573 650v-68l-417 -503h425v-79h-544v65l420 508h-393v77h509zM316 778l132 86l21 -54l-141 -119h-23l-142 119l21 54z" />
    <glyph glyph-name="zcaron" unicode="&#x17e;" horiz-adv-x="542" 
d="M500 560v-57l-340 -428h342v-75h-462v60l341 426h-331v74h450zM271 699l132 86l21 -54l-141 -119h-23l-142 119l21 54z" />
    <glyph glyph-name="longs" unicode="&#x17f;" horiz-adv-x="500" 
d="M394 447c-27.333 18.667 -52.1689 31.6641 -74.502 38.9971s-47.5 11 -75.5 11c-36 0 -62 -7.16699 -78 -21.5s-24 -31.833 -24 -52.5s5.5 -36.167 16.5 -46.5s28.167 -18.5 51.5 -24.5l93 -24c24.667 -6.66699 46.667 -14.5 66 -23.5s35.833 -20.167 49.5 -33.5
s24 -29.166 31 -47.499s10.5 -40.5 10.5 -66.5c0 -23.333 -4.5 -45.166 -13.5 -65.499s-22.5 -38 -40.5 -53s-40.5 -26.833 -67.5 -35.5s-58.833 -13 -95.5 -13c-21.333 0 -40.833 0.833008 -58.5 2.5s-34.5 4.5 -50.5 8.5s-31.667 9.16699 -47 15.5s-31 14.5 -47 24.5
l31 80c16 -10 30.833 -18.5 44.5 -25.5s27.167 -12.667 40.5 -17s27.333 -7.5 42 -9.5s31 -3 49 -3c42 0 73.667 7.83301 95 23.5s32 37.834 32 66.501c0 28 -7.66699 48.5 -23 61.5s-40.666 23.833 -75.999 32.5l-101 24c-39.333 9.33301 -69.166 26.333 -89.499 51
s-30.5 56.667 -30.5 96c0 44 16.667 79.833 50 107.5s79 41.5 137 41.5c38.667 0 73.667 -4.16699 105 -12.5s60 -21.5 86 -39.5z" />
    <glyph glyph-name="florin" unicode="&#x192;" horiz-adv-x="367" 
d="M110 500l0.00195312 32.998c0 28.667 4.5 55 13.5 79s22 44.833 39 62.5s37.5 31.334 61.5 41.001s51 14.5 81 14.5c33.333 0 62.333 -3.33301 87 -10s49.334 -17.667 74.001 -33l-39 -71c-32.667 22.667 -69.334 34 -110.001 34c-41.333 0 -70.5 -10.333 -87.5 -31
s-25.5 -48.334 -25.5 -83.001v-36h152l-4 -77l-148 5v-397c0 -67.333 -17.333 -119.5 -52 -156.5s-84.334 -56.167 -149.001 -57.5l-7 79c39.333 2.66699 68.166 13.334 86.499 32.001s27.5 47.334 27.5 86.001v409l-87 12v65h87z" />
    <glyph glyph-name="uni0200" unicode="&#x200;" horiz-adv-x="707" 
d="M406 650l278 -650h-99l-85 197h-299l-81 -197h-98l279 650h105zM232 275h238l-114 283h-9zM420 698h-64l-69 159l82 30zM315 698h-67l-93 132l76 47z" />
    <glyph glyph-name="uni0201" unicode="&#x201;" horiz-adv-x="642" 
d="M375 560l242 -560h-94l-71 162h-266l-69 -162h-92l244 560h106zM217 239h204l-98 244h-6zM400 618h-64l-69 159l82 30zM295 618h-67l-93 132l76 47z" />
    <glyph glyph-name="uni0202" unicode="&#x202;" horiz-adv-x="707" 
d="M406 650l278 -650h-99l-85 197h-299l-81 -197h-98l279 650h105zM232 275h238l-114 283h-9zM353 768l-132 -86l-21 54l141 119h23l142 -119l-21 -54z" />
    <glyph glyph-name="uni0203" unicode="&#x203;" horiz-adv-x="642" 
d="M375 560l242 -560h-94l-71 162h-266l-69 -162h-92l244 560h106zM217 239h204l-98 244h-6zM321 687l-132 -86l-21 54l141 119h23l142 -119l-21 -54z" />
    <glyph glyph-name="uni0204" unicode="&#x204;" horiz-adv-x="541" 
d="M65 650h419v-79h-323v-194h290v-78h-290v-220h337v-79h-433v650zM375 698h-64l-69 159l82 30zM270 698h-67l-93 132l76 47z" />
    <glyph glyph-name="uni0205" unicode="&#x205;" horiz-adv-x="508" 
d="M65 560h381v-74h-290v-155h265v-74h-265v-182h302v-75h-393v560zM359 618h-64l-69 159l82 30zM254 618h-67l-93 132l76 47z" />
    <glyph glyph-name="uni0206" unicode="&#x206;" horiz-adv-x="541" 
d="M65 650h419v-79h-323v-194h290v-78h-290v-220h337v-79h-433v650zM275 782l-132 -86l-21 54l141 119h23l142 -119l-21 -54z" />
    <glyph glyph-name="uni0207" unicode="&#x207;" horiz-adv-x="508" 
d="M65 560h381v-74h-290v-155h265v-74h-265v-182h302v-75h-393v560zM263 697l-132 -86l-21 54l141 119h23l142 -119l-21 -54z" />
    <glyph glyph-name="uni0208" unicode="&#x208;" horiz-adv-x="225" 
d="M160 650v-650h-95v650h95zM206 698h-64l-69 159l82 30zM101 698h-67l-93 132l76 47z" />
    <glyph glyph-name="uni0209" unicode="&#x209;" horiz-adv-x="221" 
d="M156 560v-560h-91v560h91zM202 618h-64l-69 159l82 30zM97 618h-67l-93 132l76 47z" />
    <glyph glyph-name="uni020A" unicode="&#x20a;" horiz-adv-x="225" 
d="M160 650v-650h-95v650h95zM113 768l-132 -86l-21 54l141 119h23l142 -119l-21 -54z" />
    <glyph glyph-name="uni020B" unicode="&#x20b;" horiz-adv-x="221" 
d="M156 560v-560h-91v560h91zM110 687l-132 -86l-21 54l141 119h23l142 -119l-21 -54z" />
    <glyph glyph-name="uni020C" unicode="&#x20c;" horiz-adv-x="780" 
d="M740 325c0 -50 -9 -95.667 -27 -137s-42.833 -77 -74.5 -107s-68.834 -53.167 -111.501 -69.5s-88.334 -24.5 -137.001 -24.5c-49.333 0 -95.166 8.16699 -137.499 24.5s-79.333 39.5 -111 69.5s-56.5 65.667 -74.5 107s-27 87 -27 137s9 95.667 27 137
s42.833 77 74.5 107s68.667 53.167 111 69.5s88.166 24.5 137.499 24.5c48.667 0 94.334 -8.16699 137.001 -24.5s79.834 -39.5 111.501 -69.5s56.5 -65.667 74.5 -107s27 -87 27 -137zM136 325c0 -41.333 6.83301 -78 20.5 -110s32 -59 55 -81s49.833 -38.833 80.5 -50.5
s63.334 -17.5 98.001 -17.5s67.334 5.83301 98.001 17.5s57.5 28.5 80.5 50.5s41.333 49 55 81s20.5 68.667 20.5 110s-6.83301 78 -20.5 110s-32 59 -55 81s-49.833 38.833 -80.5 50.5s-63.334 17.5 -98.001 17.5s-67.334 -5.83301 -98.001 -17.5s-57.5 -28.5 -80.5 -50.5
s-41.333 -49 -55 -81s-20.5 -68.667 -20.5 -110zM467 708h-64l-69 159l82 30zM362 708h-67l-93 132l76 47z" />
    <glyph glyph-name="uni020D" unicode="&#x20d;" horiz-adv-x="681" 
d="M641 280c0 -43.333 -7.66602 -82.666 -22.999 -117.999s-36.5 -65.833 -63.5 -91.5s-58.833 -45.5 -95.5 -59.5s-76.334 -21 -119.001 -21s-82.334 7 -119.001 21s-68.334 33.833 -95.001 59.5s-47.667 56.167 -63 91.5s-23 74.666 -23 117.999
c0 42.667 7.66699 81.834 23 117.501s36.333 66.334 63 92.001s58.334 45.5 95.001 59.5s76.334 21 119.001 21c43.333 0 83.333 -7 120 -21s68.5 -33.833 95.5 -59.5s48 -56.334 63 -92.001s22.5 -74.834 22.5 -117.501zM132.001 280c0 -34.667 5.5 -65.1689 16.5 -91.502
s26 -48.5 45 -66.5s41.167 -31.5 66.5 -40.5s52 -13.5 80 -13.5c28.667 0 55.5 4.33301 80.5 13s47 21.834 66 39.501s34 39.834 45 66.501s16.5 57.667 16.5 93s-5.5 66.333 -16.5 93s-26 48.834 -45 66.501s-41 30.834 -66 39.501s-51.833 13 -80.5 13
c-28 0 -54.667 -4.33301 -80 -13s-47.5 -21.834 -66.5 -39.501s-34 -39.834 -45 -66.501s-16.5 -57.667 -16.5 -93zM430.001 617.998h-64l-69 159l82 30zM325.001 617.998h-67l-93 132l76 47z" />
    <glyph glyph-name="uni020E" unicode="&#x20e;" horiz-adv-x="780" 
d="M740 325c0 -50 -9 -95.667 -27 -137s-42.833 -77 -74.5 -107s-68.834 -53.167 -111.501 -69.5s-88.334 -24.5 -137.001 -24.5c-49.333 0 -95.166 8.16699 -137.499 24.5s-79.333 39.5 -111 69.5s-56.5 65.667 -74.5 107s-27 87 -27 137s9 95.667 27 137
s42.833 77 74.5 107s68.667 53.167 111 69.5s88.166 24.5 137.499 24.5c48.667 0 94.334 -8.16699 137.001 -24.5s79.834 -39.5 111.501 -69.5s56.5 -65.667 74.5 -107s27 -87 27 -137zM136 325c0 -41.333 6.83301 -78 20.5 -110s32 -59 55 -81s49.833 -38.833 80.5 -50.5
s63.334 -17.5 98.001 -17.5s67.334 5.83301 98.001 17.5s57.5 28.5 80.5 50.5s41.333 49 55 81s20.5 68.667 20.5 110s-6.83301 78 -20.5 110s-32 59 -55 81s-49.833 38.833 -80.5 50.5s-63.334 17.5 -98.001 17.5s-67.334 -5.83301 -98.001 -17.5s-57.5 -28.5 -80.5 -50.5
s-41.333 -49 -55 -81s-20.5 -68.667 -20.5 -110zM390 781l-132 -86l-21 54l141 119h23l142 -119l-21 -54z" />
    <glyph glyph-name="uni020F" unicode="&#x20f;" horiz-adv-x="681" 
d="M641 280c0 -43.333 -7.66602 -82.666 -22.999 -117.999s-36.5 -65.833 -63.5 -91.5s-58.833 -45.5 -95.5 -59.5s-76.334 -21 -119.001 -21s-82.334 7 -119.001 21s-68.334 33.833 -95.001 59.5s-47.667 56.167 -63 91.5s-23 74.666 -23 117.999
c0 42.667 7.66699 81.834 23 117.501s36.333 66.334 63 92.001s58.334 45.5 95.001 59.5s76.334 21 119.001 21c43.333 0 83.333 -7 120 -21s68.5 -33.833 95.5 -59.5s48 -56.334 63 -92.001s22.5 -74.834 22.5 -117.501zM132.001 280c0 -34.667 5.5 -65.1689 16.5 -91.502
s26 -48.5 45 -66.5s41.167 -31.5 66.5 -40.5s52 -13.5 80 -13.5c28.667 0 55.5 4.33301 80.5 13s47 21.834 66 39.501s34 39.834 45 66.501s16.5 57.667 16.5 93s-5.5 66.333 -16.5 93s-26 48.834 -45 66.501s-41 30.834 -66 39.501s-51.833 13 -80.5 13
c-28 0 -54.667 -4.33301 -80 -13s-47.5 -21.834 -66.5 -39.501s-34 -39.834 -45 -66.501s-16.5 -57.667 -16.5 -93zM340.001 686.998l-132 -86l-21 54l141 119h23l142 -119l-21 -54z" />
    <glyph glyph-name="uni0210" unicode="&#x210;" horiz-adv-x="636" 
d="M330 650c32.667 0 62.833 -4.16602 90.5 -12.499s51.5 -20.5 71.5 -36.5s35.667 -35.333 47 -58s17 -48.334 17 -77.001c0 -38.667 -12 -73.5 -36 -104.5s-59.667 -52.833 -107 -65.5l188 -296h-111l-174 279h-156v-279h-95v650h265zM159.999 356.001h156
c42.667 0 77.5 9.33301 104.5 28s40.5 46 40.5 82s-13 62.833 -39 80.5s-61.667 26.5 -107 26.5h-155v-217zM375.999 698.001h-64l-69 159l82 30zM270.999 698.001h-67l-93 132l76 47z" />
    <glyph glyph-name="uni0211" unicode="&#x211;" horiz-adv-x="565" 
d="M291 560c30 0 57.4961 -3.66699 82.4961 -11s46.333 -18 64 -32s31.334 -30.833 41.001 -50.5s14.5 -41.834 14.5 -66.501c0 -21.333 -3.16699 -40.666 -9.5 -57.999s-15.166 -32.5 -26.499 -45.5s-24.666 -24 -39.999 -33s-31.666 -16.167 -48.999 -21.5l159 -242h-105
l-148 234h-119v-234h-90v560h226zM154.996 308h127.999c16.667 0 32.334 1.5 47.001 4.5s27.5 8 38.5 15s19.667 16.5 26 28.5s9.5 26.667 9.5 44c0 32 -11 54.333 -33 67s-53 19 -93 19h-123v-178zM349.995 618h-64l-69 159l82 30zM244.995 618h-67l-93 132l76 47z" />
    <glyph glyph-name="uni0212" unicode="&#x212;" horiz-adv-x="636" 
d="M330 650c32.667 0 62.833 -4.16602 90.5 -12.499s51.5 -20.5 71.5 -36.5s35.667 -35.333 47 -58s17 -48.334 17 -77.001c0 -38.667 -12 -73.5 -36 -104.5s-59.667 -52.833 -107 -65.5l188 -296h-111l-174 279h-156v-279h-95v650h265zM159.999 356.001h156
c42.667 0 77.5 9.33301 104.5 28s40.5 46 40.5 82s-13 62.833 -39 80.5s-61.667 26.5 -107 26.5h-155v-217zM296.999 780.001l-132 -86l-21 54l141 119h23l142 -119l-21 -54z" />
    <glyph glyph-name="uni0213" unicode="&#x213;" horiz-adv-x="565" 
d="M291 560c30 0 57.4961 -3.66699 82.4961 -11s46.333 -18 64 -32s31.334 -30.833 41.001 -50.5s14.5 -41.834 14.5 -66.501c0 -21.333 -3.16699 -40.666 -9.5 -57.999s-15.166 -32.5 -26.499 -45.5s-24.666 -24 -39.999 -33s-31.666 -16.167 -48.999 -21.5l159 -242h-105
l-148 234h-119v-234h-90v560h226zM154.996 308h127.999c16.667 0 32.334 1.5 47.001 4.5s27.5 8 38.5 15s19.667 16.5 26 28.5s9.5 26.667 9.5 44c0 32 -11 54.333 -33 67s-53 19 -93 19h-123v-178zM260.995 697l-132 -86l-21 54l141 119h23l142 -119l-21 -54z" />
    <glyph glyph-name="uni0214" unicode="&#x214;" horiz-adv-x="680" 
d="M160 650l-0.00195312 -379c0 -69.333 15.833 -121.333 47.5 -156s75.834 -52 132.501 -52s100.834 17.333 132.501 52s47.5 86.667 47.5 156v379h95v-372c0 -50 -6.5 -93.167 -19.5 -129.5s-31.333 -66.5 -55 -90.5s-52.5 -41.833 -86.5 -53.5s-72 -17.5 -114 -17.5
s-80 5.83301 -114 17.5s-62.833 29.5 -86.5 53.5s-42 54.167 -55 90.5s-19.5 79.5 -19.5 129.5v372h95zM436.998 687h-64l-69 159l82 30zM331.998 687h-67l-93 132l76 47z" />
    <glyph glyph-name="uni0215" unicode="&#x215;" horiz-adv-x="618" 
d="M156 560v-331.998c0 -54 14 -95 42 -123s65 -42 111 -42c22 0 42.333 3.5 61 10.5s34.834 17.5 48.501 31.5s24.334 31.167 32.001 51.5s11.5 44.166 11.5 71.499v332h91v-320c0 -40.667 -6 -76.5 -18 -107.5s-28.833 -57.167 -50.5 -78.5s-47.334 -37.5 -77.001 -48.5
s-62.5 -16.5 -98.5 -16.5c-35.333 0 -67.833 5.16699 -97.5 15.5s-55.334 25.666 -77.001 45.999s-38.667 45.833 -51 76.5s-18.5 66.667 -18.5 108v325h91zM401 608.002h-64l-69 159l82 30zM296 608.002h-67l-93 132l76 47z" />
    <glyph glyph-name="uni0216" unicode="&#x216;" horiz-adv-x="680" 
d="M160 650l-0.00195312 -379c0 -69.333 15.833 -121.333 47.5 -156s75.834 -52 132.501 -52s100.834 17.333 132.501 52s47.5 86.667 47.5 156v379h95v-372c0 -50 -6.5 -93.167 -19.5 -129.5s-31.333 -66.5 -55 -90.5s-52.5 -41.833 -86.5 -53.5s-72 -17.5 -114 -17.5
s-80 5.83301 -114 17.5s-62.833 29.5 -86.5 53.5s-42 54.167 -55 90.5s-19.5 79.5 -19.5 129.5v372h95zM339.998 772l-132 -86l-21 54l141 119h23l142 -119l-21 -54z" />
    <glyph glyph-name="uni0217" unicode="&#x217;" horiz-adv-x="618" 
d="M156 560v-331.998c0 -54 14 -95 42 -123s65 -42 111 -42c22 0 42.333 3.5 61 10.5s34.834 17.5 48.501 31.5s24.334 31.167 32.001 51.5s11.5 44.166 11.5 71.499v332h91v-320c0 -40.667 -6 -76.5 -18 -107.5s-28.833 -57.167 -50.5 -78.5s-47.334 -37.5 -77.001 -48.5
s-62.5 -16.5 -98.5 -16.5c-35.333 0 -67.833 5.16699 -97.5 15.5s-55.334 25.666 -77.001 45.999s-38.667 45.833 -51 76.5s-18.5 66.667 -18.5 108v325h91zM309 697.002l-132 -86l-21 54l141 119h23l142 -119l-21 -54z" />
    <glyph glyph-name="Scommaaccent" unicode="&#x218;" horiz-adv-x="574" 
d="M453 531c-27.333 19.333 -54.335 33.168 -81.002 41.501s-57 12.5 -91 12.5c-25.333 0 -46 -2.83301 -62 -8.5s-28.667 -12.834 -38 -21.501s-15.833 -18.667 -19.5 -30s-5.5 -22.333 -5.5 -33c0 -24 7.83301 -44 23.5 -60s42.167 -27.667 79.5 -35l93 -19
c54.667 -11.333 98.167 -33.333 130.5 -66s48.5 -76.667 48.5 -132c0 -28 -5.83301 -53.667 -17.5 -77s-28.5 -43.666 -50.5 -60.999s-48.833 -30.833 -80.5 -40.5s-67.5 -14.5 -107.5 -14.5c-24 0 -45.833 1 -65.5 3s-38.5 5.33301 -56.5 10s-35.833 10.667 -53.5 18
s-36.167 16.333 -55.5 27l32 87c37.333 -23.333 71 -39.333 101 -48s62 -13 96 -13c55.333 0 96.833 10.333 124.5 31s41.5 46.334 41.5 77.001c0 34.667 -9.16699 60.834 -27.5 78.501s-49.166 30.5 -92.499 38.5l-102 19c-48 9.33301 -85.167 30.166 -111.5 62.499
s-39.5 69.166 -39.5 110.499c0 26 4.66699 49.667 14 71s23.166 39.666 41.499 54.999s40.833 27.333 67.5 36s57.334 13 92.001 13c42.667 0 80.334 -4 113.001 -12s65.667 -23 99 -45zM220.998 -228.998c41.333 16 61.999 38.6641 61.999 67.9971
c-20 0 -34.5 5.5 -43.5 16.5s-13.5 23.5 -13.5 37.5c0 6.66699 1 13.334 3 20.001s5.33301 12.834 10 18.501s10.834 10.334 18.501 14.001s17.167 5.5 28.5 5.5c23.333 0 41 -8.5 53 -25.5s18 -37.833 18 -62.5c0 -12.667 -2.33301 -25.834 -7 -39.501
s-11.5 -26.667 -20.5 -39s-20.5 -23.666 -34.5 -33.999s-30.333 -18.5 -49 -24.5z" />
    <glyph glyph-name="scommaaccent" unicode="&#x219;" horiz-adv-x="500" 
d="M394 447c-27.333 18.667 -52.1689 31.6641 -74.502 38.9971s-47.5 11 -75.5 11c-36 0 -62 -7.16699 -78 -21.5s-24 -31.833 -24 -52.5s5.5 -36.167 16.5 -46.5s28.167 -18.5 51.5 -24.5l93 -24c24.667 -6.66699 46.667 -14.5 66 -23.5s35.833 -20.167 49.5 -33.5
s24 -29.166 31 -47.499s10.5 -40.5 10.5 -66.5c0 -23.333 -4.5 -45.166 -13.5 -65.499s-22.5 -38 -40.5 -53s-40.5 -26.833 -67.5 -35.5s-58.833 -13 -95.5 -13c-21.333 0 -40.833 0.833008 -58.5 2.5s-34.5 4.5 -50.5 8.5s-31.667 9.16699 -47 15.5s-31 14.5 -47 24.5
l31 80c16 -10 30.833 -18.5 44.5 -25.5s27.167 -12.667 40.5 -17s27.333 -7.5 42 -9.5s31 -3 49 -3c42 0 73.667 7.83301 95 23.5s32 37.834 32 66.501c0 28 -7.66699 48.5 -23 61.5s-40.666 23.833 -75.999 32.5l-101 24c-39.333 9.33301 -69.166 26.333 -89.499 51
s-30.5 56.667 -30.5 96c0 44 16.667 79.833 50 107.5s79 41.5 137 41.5c38.667 0 73.667 -4.16699 105 -12.5s60 -21.5 86 -39.5zM174.997 -225.003c41.333 16 61.999 38.6641 61.999 67.9971c-20 0 -34.5 5.5 -43.5 16.5s-13.5 23.5 -13.5 37.5
c0 6.66699 1 13.334 3 20.001s5.33301 12.834 10 18.501s10.834 10.334 18.501 14.001s17.167 5.5 28.5 5.5c23.333 0 41 -8.5 53 -25.5s18 -37.833 18 -62.5c0 -12.667 -2.33301 -25.834 -7 -39.501s-11.5 -26.667 -20.5 -39s-20.5 -23.666 -34.5 -33.999
s-30.333 -18.5 -49 -24.5z" />
    <glyph glyph-name="uni021A" unicode="&#x21a;" horiz-adv-x="544" 
d="M30 650h484v-76h-194v-574h-96v574h-194v76zM208 -219c41.333 16 61.999 38.6641 61.999 67.9971c-20 0 -34.5 5.5 -43.5 16.5s-13.5 23.5 -13.5 37.5c0 6.66699 1 13.334 3 20.001s5.33301 12.834 10 18.501s10.834 10.334 18.501 14.001s17.167 5.5 28.5 5.5
c23.333 0 41 -8.5 53 -25.5s18 -37.833 18 -62.5c0 -12.667 -2.33301 -25.834 -7 -39.501s-11.5 -26.667 -20.5 -39s-20.5 -23.666 -34.5 -33.999s-30.333 -18.5 -49 -24.5z" />
    <glyph glyph-name="uni021B" unicode="&#x21b;" horiz-adv-x="496" 
d="M466 560v-75h-172v-485h-92v485h-172v75h436zM175 -227c41.333 16 61.999 38.6641 61.999 67.9971c-20 0 -34.5 5.5 -43.5 16.5s-13.5 23.5 -13.5 37.5c0 6.66699 1 13.334 3 20.001s5.33301 12.834 10 18.501s10.834 10.334 18.501 14.001s17.167 5.5 28.5 5.5
c23.333 0 41 -8.5 53 -25.5s18 -37.833 18 -62.5c0 -12.667 -2.33301 -25.834 -7 -39.501s-11.5 -26.667 -20.5 -39s-20.5 -23.666 -34.5 -33.999s-30.333 -18.5 -49 -24.5z" />
    <glyph glyph-name="dotlessj" unicode="&#x237;" horiz-adv-x="231" 
d="M166 560l0.00195312 -547.998c0 -30 -4.33301 -58.667 -13 -86s-21.834 -51.833 -39.501 -73.5s-39.834 -39.834 -66.501 -54.501s-58 -24 -94 -28l-24 77c50.667 8.66699 87.667 26.167 111 52.5s35 66.166 35 119.499v541h91z" />
    <glyph glyph-name="uni02C9" unicode="&#x2c9;" horiz-adv-x="363" 
d="M363 650v-71h-363v71h363z" />
    <glyph glyph-name="tilde" unicode="&#x2dc;" horiz-adv-x="421" 
d="M30 625c28.667 32 66.6699 47.999 114.003 47.999c16.667 0 30.5 -2 41.5 -6s21.167 -8.5 30.5 -13.5s18.666 -9.5 27.999 -13.5s20.666 -6 33.999 -6c14 0 26 2.33301 36 7s20.667 12.667 32 24l41 -46c-15.333 -19.333 -31.5 -33.5 -48.5 -42.5
s-36.833 -13.5 -59.5 -13.5c-15.333 0 -28.833 2.16699 -40.5 6.5s-23 9 -34 14s-21.833 9.66699 -32.5 14s-22 6.5 -34 6.5c-17.333 0 -32.333 -3.16699 -45 -9.5s-24.334 -16.166 -35.001 -29.499z" />
    <glyph glyph-name="pi" unicode="&#x3c0;" horiz-adv-x="583" 
d="M503 500l0.00195312 -378c0 -20.667 4.16699 -34.834 12.5 -42.501s24.833 -11.5 49.5 -11.5l-7 -68c-18.667 -4.66699 -35.667 -7 -51 -7c-20.667 0 -37.334 3.33301 -50.001 10s-22.334 15.834 -29.001 27.501s-11.167 25.5 -13.5 41.5s-3.5 33.333 -3.5 52v303h-239
v-427h-92v423l-72 13v64h495z" />
    <glyph glyph-name="afii10023" unicode="&#x401;" horiz-adv-x="541" 
d="M65 650h419v-79h-323v-194h290v-78h-290v-220h337v-79h-433v650zM165 828c20.667 0 36.5 -5.66699 47.5 -17s16.5 -26 16.5 -44c0 -17.333 -5.5 -31.666 -16.5 -42.999s-26.833 -17 -47.5 -17c-19.333 0 -34.5 5.66699 -45.5 17s-16.5 25.666 -16.5 42.999
c0 18 5.5 32.667 16.5 44s26.167 17 45.5 17zM384 828c19.333 0 34.666 -5.66699 45.999 -17s17 -26 17 -44c0 -17.333 -5.66699 -31.666 -17 -42.999s-26.666 -17 -45.999 -17s-34.666 5.66699 -45.999 17s-17 25.666 -17 42.999c0 18 5.66699 32.667 17 44
s26.666 17 45.999 17z" />
    <glyph glyph-name="afii10051" unicode="&#x402;" horiz-adv-x="765" 
d="M509 650v-75.999h-192v-186c23.333 28 50.833 48.667 82.5 62s64.5 20 98.5 20c69.333 0 122 -18.833 158 -56.5s54 -91.834 54 -162.501v-230c0 -65.333 -17.5 -119.5 -52.5 -162.5s-84.833 -70.167 -149.5 -81.5l-17 79c44 12.667 75.833 32.5 95.5 59.5
s29.5 59.833 29.5 98.5v238c0 44 -9 78.667 -27 104s-48.333 38 -91 38c-37.333 0 -70.833 -7.33301 -100.5 -22s-56.5 -36.667 -80.5 -66v-306h-94v574h-198v76h484z" />
    <glyph glyph-name="afii10052" unicode="&#x403;" horiz-adv-x="516" 
d="M477 650v-77h-316v-573h-96v650h412zM325 881l78 -47l-98 -136h-69z" />
    <glyph glyph-name="afii10053" unicode="&#x404;" horiz-adv-x="660" 
d="M472 302l-336.003 -0.00195312c2.66699 -38 11 -71.5 25 -100.5s32.333 -53.167 55 -72.5s48.834 -33.833 78.501 -43.5s61.5 -14.5 95.5 -14.5c20 0 38.667 1 56 3s34 5.5 50 10.5s32 11.5 48 19.5s32.667 18 50 30l28 -82c-36 -24.667 -72.833 -41.667 -110.5 -51
s-81.5 -14 -131.5 -14c-43.333 0 -85.5 6.83301 -126.5 20.5s-77.333 34.334 -109 62.001s-57 62.834 -76 105.501s-28.5 93 -28.5 151c0 50 9.33301 95.833 28 137.5s44 77.167 76 106.5s69.333 52.166 112 68.499s87.667 24.5 135 24.5
c48.667 0 90.834 -5.66699 126.501 -17s70.5 -29.666 104.5 -54.999l-38 -73c-32 23.333 -63.167 40.333 -93.5 51s-63.5 16 -99.5 16c-34 0 -65.167 -5 -93.5 -15s-53.333 -24 -75 -42s-39.667 -39.667 -54 -65s-24.166 -53 -29.499 -83h333v-78z" />
    <glyph glyph-name="afii10054" unicode="&#x405;" horiz-adv-x="574" 
d="M453 531c-27.333 19.333 -54.335 33.168 -81.002 41.501s-57 12.5 -91 12.5c-25.333 0 -46 -2.83301 -62 -8.5s-28.667 -12.834 -38 -21.501s-15.833 -18.667 -19.5 -30s-5.5 -22.333 -5.5 -33c0 -24 7.83301 -44 23.5 -60s42.167 -27.667 79.5 -35l93 -19
c54.667 -11.333 98.167 -33.333 130.5 -66s48.5 -76.667 48.5 -132c0 -28 -5.83301 -53.667 -17.5 -77s-28.5 -43.666 -50.5 -60.999s-48.833 -30.833 -80.5 -40.5s-67.5 -14.5 -107.5 -14.5c-24 0 -45.833 1 -65.5 3s-38.5 5.33301 -56.5 10s-35.833 10.667 -53.5 18
s-36.167 16.333 -55.5 27l32 87c37.333 -23.333 71 -39.333 101 -48s62 -13 96 -13c55.333 0 96.833 10.333 124.5 31s41.5 46.334 41.5 77.001c0 34.667 -9.16699 60.834 -27.5 78.501s-49.166 30.5 -92.499 38.5l-102 19c-48 9.33301 -85.167 30.166 -111.5 62.499
s-39.5 69.166 -39.5 110.499c0 26 4.66699 49.667 14 71s23.166 39.666 41.499 54.999s40.833 27.333 67.5 36s57.334 13 92.001 13c42.667 0 80.334 -4 113.001 -12s65.667 -23 99 -45z" />
    <glyph glyph-name="uni0406" unicode="&#x406;" horiz-adv-x="225" 
d="M160 650v-650h-95v650h95z" />
    <glyph glyph-name="afii10056" unicode="&#x407;" horiz-adv-x="225" 
d="M160 650v-650h-95v650h95zM3 829c20.667 0 36.5 -5.66699 47.5 -17s16.5 -26 16.5 -44c0 -17.333 -5.5 -31.666 -16.5 -42.999s-26.833 -17 -47.5 -17c-19.333 0 -34.5 5.66699 -45.5 17s-16.5 25.666 -16.5 42.999c0 18 5.5 32.667 16.5 44s26.167 17 45.5 17zM222 829
c19.333 0 34.666 -5.66699 45.999 -17s17 -26 17 -44c0 -17.333 -5.66699 -31.666 -17 -42.999s-26.666 -17 -45.999 -17s-34.666 5.66699 -45.999 17s-17 25.666 -17 42.999c0 18 5.66699 32.667 17 44s26.666 17 45.999 17z" />
    <glyph glyph-name="afii10057" unicode="&#x408;" horiz-adv-x="244" 
d="M179 650l-0.00292969 -631.999c0 -44.667 -5.66699 -82.5 -17 -113.5s-27.166 -56.667 -47.499 -77s-44.5 -36 -72.5 -47s-58.333 -18.833 -91 -23.5l-30 78c26.667 4 50.334 9.5 71.001 16.5s37.834 17.167 51.501 30.5s24 31.166 31 53.499s10.5 50.833 10.5 85.5v629
h94z" />
    <glyph glyph-name="afii10058" unicode="&#x409;" horiz-adv-x="1051" 
d="M635 650v-243.002h137c36 0 68.833 -4.16699 98.5 -12.5s55.334 -21 77.001 -38s38.5 -38.167 50.5 -63.5s18 -55 18 -89c0 -33.333 -6 -62.666 -18 -87.999s-28.667 -46.5 -50 -63.5s-47 -30 -77 -39s-63 -13.5 -99 -13.5h-232v574h-238v-151
c0 -148.667 -17.333 -258 -52 -328c-34.667 -68.667 -87 -103 -157 -103c-16.667 0 -31.334 1 -44.001 3s-24.667 5.66699 -36 11l14 77c10 -3.33301 19.5 -5.66602 28.5 -6.99902s18.167 -2 27.5 -2c36 0 64 20.667 84 62c28.667 60 43 169 43 327v187h425zM635 77.998
h132.999c22 0 42.333 2.16699 61 6.5s34.834 11.5 48.501 21.5s24.334 23 32.001 39s11.5 35.667 11.5 59s-3.83301 43 -11.5 59s-18.334 28.833 -32.001 38.5s-30 16.667 -49 21s-39.833 6.5 -62.5 6.5h-131v-251z" />
    <glyph glyph-name="afii10059" unicode="&#x40a;" horiz-adv-x="1000" 
d="M160 650l-0.000976562 -252.999h324v253h95v-253h142c36 0 68.833 -4 98.5 -12s55.334 -20 77.001 -36s38.5 -36.5 50.5 -61.5s18 -54.5 18 -88.5c0 -33.333 -6 -62.333 -18 -87s-28.667 -45.334 -50 -62.001s-47 -29.167 -77 -37.5s-63 -12.5 -99 -12.5h-237v320h-324
v-320h-95v650h95zM578.999 78.001l137.999 0.00195312c22 0 42.333 2 61 6s34.834 10.667 48.501 20s24.334 21.666 32.001 36.999s11.5 34.666 11.5 57.999s-3.83301 42.833 -11.5 58.5s-18.334 28 -32.001 37s-30 15.333 -49 19s-39.833 5.5 -62.5 5.5h-136v-241z" />
    <glyph glyph-name="afii10060" unicode="&#x40b;" horiz-adv-x="765" 
d="M509 650v-75.999h-192v-186c23.333 28 50.833 48.667 82.5 62s64.5 20 98.5 20c69.333 0 122 -18.833 158 -56.5s54 -91.834 54 -162.501v-251h-94v252c0 44 -9 78.667 -27 104s-48.333 38 -91 38c-37.333 0 -70.833 -7.33301 -100.5 -22s-56.5 -36.667 -80.5 -66v-306
h-94v574h-198v76h484z" />
    <glyph glyph-name="afii10061" unicode="&#x40c;" horiz-adv-x="659" 
d="M161 650l-0.000976562 -239h139l104 167c16.667 26.667 36.167 47 58.5 61s46.833 21 73.5 21c23.333 0 46.333 -3.33301 69 -10l-14 -80c-11.333 3.33301 -23 5 -35 5c-17.333 0 -32.666 -3.5 -45.999 -10.5s-26.333 -20.5 -39 -40.5l-95 -149l244 -375h-109l-211 332
h-139v-332h-96v650h96zM349.999 881l78 -47l-98 -136h-69z" />
    <glyph glyph-name="afii10062" unicode="&#x40e;" horiz-adv-x="682" 
d="M132 650l226.998 -519.001h6l194 519h98l-237 -601c-11.333 -29.333 -23.333 -55.166 -36 -77.499s-26.5 -41 -41.5 -56s-31.667 -26.5 -50 -34.5s-39.166 -12 -62.499 -12c-18.667 0 -35.167 1.83301 -49.5 5.5s-28.5 9.83398 -42.5 18.501l22 75
c10.667 -5.33301 20.334 -9 29.001 -11s17.667 -3 27 -3c20.667 0 39.667 5.16699 57 15.5s31.333 31.166 42 62.499l-290 618h107zM247.998 828.999c9.33301 -19.333 22.5 -34.001 39.5 -44.001s35.833 -15 56.5 -15c45.333 0 77.666 19.667 96.999 59l60 -27
c-11.333 -35.333 -30.833 -61.666 -58.5 -78.999s-60.5 -26 -98.5 -26c-37.333 0 -70.166 9 -98.499 27s-47.5 44 -57.5 78z" />
    <glyph glyph-name="afii10145" unicode="&#x40f;" horiz-adv-x="656" 
d="M161 650v-572h334v572h96v-650h-208l-12 -141h-70l-12 141h-224v650h96z" />
    <glyph glyph-name="afii10017" unicode="&#x410;" horiz-adv-x="707" 
d="M406 650l278 -650h-99l-85 197h-299l-81 -197h-98l279 650h105zM232 275h238l-114 283h-9z" />
    <glyph glyph-name="afii10018" unicode="&#x411;" horiz-adv-x="594" 
d="M500 650v-75.999h-340v-174h138c37.333 0 71.333 -4.16699 102 -12.5s57 -20.833 79 -37.5s39 -37.5 51 -62.5s18 -54.167 18 -87.5c0 -32.667 -6 -61.334 -18 -86.001s-28.833 -45.5 -50.5 -62.5s-47.667 -29.833 -78 -38.5s-63.833 -13 -100.5 -13h-236v650h435z
M160 77.001h128.001c58 0 100 9.66699 126 29s39 50.666 39 93.999c0 46.667 -13.833 78.834 -41.5 96.501s-69.834 26.5 -126.501 26.5h-125v-246z" />
    <glyph glyph-name="afii10019" unicode="&#x412;" horiz-adv-x="601" 
d="M292 650c30 0 58.499 -3.16699 85.499 -9.5s50.5 -16.5 70.5 -30.5s36 -32 48 -54s18 -48.333 18 -79c0 -25.333 -5.16699 -48.333 -15.5 -69s-27.166 -37.667 -50.499 -51v-4c74 -37.333 111 -93.333 111 -168c0 -30 -6.33301 -56.5 -19 -79.5s-29.5 -42.333 -50.5 -58
s-45.5 -27.5 -73.5 -35.5s-57 -12 -87 -12h-264v650h227zM158.999 77l160.999 -0.000976562c18.667 0 36.834 1.83301 54.501 5.5s33.167 9.83398 46.5 18.501s24 20 32 34s12 31.333 12 52c0 40 -12.667 69.833 -38 89.5s-58.333 29.5 -99 29.5h-169v-229zM158.998 379.999
h147.999c36.667 0 64.834 8.5 84.501 25.5s29.5 39.833 29.5 68.5c0 34 -10.833 59.167 -32.5 75.5s-50.5 24.5 -86.5 24.5h-143v-194z" />
    <glyph glyph-name="afii10020" unicode="&#x413;" horiz-adv-x="516" 
d="M477 650v-77h-316v-573h-96v650h412z" />
    <glyph glyph-name="afii10021" unicode="&#x414;" horiz-adv-x="731" 
d="M630 650v-572.001h70l-8 -219h-74l-12 141h-485l-15 -141h-76v217c10 2.66699 20.5 6.33398 31.5 11.001s20.167 10.667 27.5 18c16 14.667 30 33.667 42 57s21.667 49.5 29 78.5s12.833 60.667 16.5 95s5.5 69.833 5.5 106.5v208h448zM274 572.999v-120
c0 -86 -8.33301 -162 -25 -228s-41.667 -115 -75 -147h362v495h-262z" />
    <glyph glyph-name="afii10022" unicode="&#x415;" horiz-adv-x="541" 
d="M65 650h419v-79h-323v-194h290v-78h-290v-220h337v-79h-433v650z" />
    <glyph glyph-name="afii10024" unicode="&#x416;" horiz-adv-x="1011" 
d="M552 650l-0.00195312 -244h109l84 172c13.333 28 32 48.667 56 62s49.333 20 76 20c23.333 0 46.333 -3.33301 69 -10l-12 -80c-11.333 3.33301 -23 5 -35 5c-17.333 0 -33.666 -3.33301 -48.999 -10s-28 -20.334 -38 -41.001l-75 -154l234 -370h-109l-203 330h-107v-330
h-94v330h-107l-203 -330h-109l234 370l-75 154c-10 20.667 -22.667 34.334 -38 41.001s-31.666 10 -48.999 10c-12 0 -23.667 -1.66699 -35 -5l-12 80c22.667 6.66699 45.667 10 69 10c26.667 0 52 -6.66699 76 -20s42.667 -34 56 -62l84 -172h109v244h94z" />
    <glyph glyph-name="afii10025" unicode="&#x417;" horiz-adv-x="566" 
d="M293 395c34 0 60.668 7.99902 80.001 23.999s29 38.667 29 68c0 12 -2.33301 24 -7 36s-12.167 22.667 -22.5 32s-23.666 17 -39.999 23s-36.5 9 -60.5 9c-18 0 -34.333 -1 -49 -3s-28.667 -5.33301 -42 -10s-26.333 -11 -39 -19s-26 -17.667 -40 -29l-38 66
c31.333 26.667 64 45.167 98 55.5s71.667 15.5 113 15.5c32 0 61.5 -4.33301 88.5 -13s50.167 -20.667 69.5 -36s34.333 -33.5 45 -54.5s16 -43.833 16 -68.5c0 -26 -6.5 -50 -19.5 -72s-31.5 -38.333 -55.5 -49v-4c32 -14 58.667 -36 80 -66s32 -64 32 -102
c0 -32.667 -6.33301 -62 -19 -88s-30.334 -48.167 -53.001 -66.5s-49.667 -32.333 -81 -42s-65.333 -14.5 -102 -14.5c-24.667 0 -47 0.833008 -67 2.5s-39 4.83398 -57 9.50098s-35.667 11 -53 19s-35.333 18 -54 30l31 84c16.667 -14 32.334 -25.167 47.001 -33.5
s29.5 -15 44.5 -20s30.667 -8.33301 47 -10s34.166 -2.5 53.499 -2.5c22 0 43.333 2.66699 64 8s38.667 13.333 54 24s27.666 24.167 36.999 40.5s14 35.5 14 57.5c0 42 -11.667 73.167 -35 93.5s-55.333 30.5 -96 30.5h-130v75h117z" />
    <glyph glyph-name="afii10026" unicode="&#x418;" horiz-adv-x="702" 
d="M158 650v-522h4l386 522h89v-650h-93v503h-4l-376 -503h-99v650h93z" />
    <glyph glyph-name="afii10027" unicode="&#x419;" horiz-adv-x="702" 
d="M158 650v-522h4l386 522h89v-650h-93v503h-4l-376 -503h-99v650h93zM255 829c9.33301 -19.333 22.5 -34.001 39.5 -44.001s35.833 -15 56.5 -15c45.333 0 77.666 19.667 96.999 59l60 -27c-11.333 -35.333 -30.833 -61.666 -58.5 -78.999s-60.5 -26 -98.5 -26
c-37.333 0 -70.166 9 -98.499 27s-47.5 44 -57.5 78z" />
    <glyph glyph-name="afii10028" unicode="&#x41a;" horiz-adv-x="659" 
d="M161 650l-0.000976562 -239h139l104 167c16.667 26.667 36.167 47 58.5 61s46.833 21 73.5 21c23.333 0 46.333 -3.33301 69 -10l-14 -80c-11.333 3.33301 -23 5 -35 5c-17.333 0 -32.666 -3.5 -45.999 -10.5s-26.333 -20.5 -39 -40.5l-95 -149l244 -375h-109l-211 332
h-139v-332h-96v650h96z" />
    <glyph glyph-name="afii10029" unicode="&#x41b;" horiz-adv-x="720" 
d="M655 650l0.000976562 -650.001h-95v574h-258v-151c0 -148.667 -17.333 -258 -52 -328c-34.667 -68.667 -87 -103 -157 -103c-16.667 0 -31.334 1 -44.001 3s-24.667 5.66699 -36 11l14 77c10 -3.33301 19.5 -5.66602 28.5 -6.99902s18.167 -2 27.5 -2
c36 0 64 20.667 84 62c28.667 60 43 169 43 327v187h445z" />
    <glyph glyph-name="afii10030" unicode="&#x41c;" horiz-adv-x="761" 
d="M182 650l198 -296l202 296h114v-650h-92v368l2 164h-9l-199 -291h-39l-197 291h-8l1 -164v-368h-90v650h117z" />
    <glyph glyph-name="afii10031" unicode="&#x41d;" horiz-adv-x="669" 
d="M604 650v-650h-95v303h-349v-303h-95v650h95v-270h349v270h95z" />
    <glyph glyph-name="afii10032" unicode="&#x41e;" horiz-adv-x="780" 
d="M740 325c0 -50 -9 -95.667 -27 -137s-42.833 -77 -74.5 -107s-68.834 -53.167 -111.501 -69.5s-88.334 -24.5 -137.001 -24.5c-49.333 0 -95.166 8.16699 -137.499 24.5s-79.333 39.5 -111 69.5s-56.5 65.667 -74.5 107s-27 87 -27 137s9 95.667 27 137
s42.833 77 74.5 107s68.667 53.167 111 69.5s88.166 24.5 137.499 24.5c48.667 0 94.334 -8.16699 137.001 -24.5s79.834 -39.5 111.501 -69.5s56.5 -65.667 74.5 -107s27 -87 27 -137zM136 325c0 -41.333 6.83301 -78 20.5 -110s32 -59 55 -81s49.833 -38.833 80.5 -50.5
s63.334 -17.5 98.001 -17.5s67.334 5.83301 98.001 17.5s57.5 28.5 80.5 50.5s41.333 49 55 81s20.5 68.667 20.5 110s-6.83301 78 -20.5 110s-32 59 -55 81s-49.833 38.833 -80.5 50.5s-63.334 17.5 -98.001 17.5s-67.334 -5.83301 -98.001 -17.5s-57.5 -28.5 -80.5 -50.5
s-41.333 -49 -55 -81s-20.5 -68.667 -20.5 -110z" />
    <glyph glyph-name="afii10033" unicode="&#x41f;" horiz-adv-x="650" 
d="M585 650v-650h-94v573h-332v-573h-94v650h520z" />
    <glyph glyph-name="afii10034" unicode="&#x420;" horiz-adv-x="594" 
d="M291 650c36.667 0 70.6689 -4.6709 102.002 -14.0039s58.5 -22.666 81.5 -39.999s41 -38.666 54 -63.999s19.5 -54.333 19.5 -87c0 -33.333 -6.33301 -62.666 -19 -87.999s-30.334 -46.666 -53.001 -63.999s-49.834 -30.5 -81.501 -39.5s-66.167 -13.5 -103.5 -13.5h-131
v-240h-95v650h226zM160.002 316.996h118c56.667 0 100 9.66699 130 29s45 52.333 45 99c0 43.333 -15 75.5 -45 96.5s-73.333 31.5 -130 31.5h-118v-256z" />
    <glyph glyph-name="afii10035" unicode="&#x421;" horiz-adv-x="660" 
d="M584 518c-32 23.333 -63.167 40.333 -93.5 51s-63.5 16 -99.5 16c-38.667 0 -73.834 -6.5 -105.501 -19.5s-58.667 -31 -81 -54s-39.5 -50.333 -51.5 -82s-18 -66.167 -18 -103.5c0 -42 6.66699 -78.833 20 -110.5s31.5 -58.334 54.5 -80.001s50 -37.834 81 -48.501
s64.167 -16 99.5 -16c20 0 38.667 1 56 3s34 5.5 50 10.5s32 11.5 48 19.5s32.667 18 50 30l28 -82c-36 -24.667 -72.833 -41.667 -110.5 -51s-81.5 -14 -131.5 -14c-43.333 0 -85.5 6.83301 -126.5 20.5s-77.333 34.334 -109 62.001s-57 62.834 -76 105.501
s-28.5 93 -28.5 151c0 50 9.33301 95.833 28 137.5s44 77.167 76 106.5s69.333 52.166 112 68.499s87.667 24.5 135 24.5c48.667 0 90.834 -5.66699 126.501 -17s70.5 -29.666 104.5 -54.999z" />
    <glyph glyph-name="afii10036" unicode="&#x422;" horiz-adv-x="544" 
d="M30 650h484v-76h-194v-574h-96v574h-194v76z" />
    <glyph glyph-name="afii10037" unicode="&#x423;" horiz-adv-x="682" 
d="M132 650l226.998 -519.001h6l194 519h98l-237 -601c-11.333 -29.333 -23.333 -55.166 -36 -77.499s-26.5 -41 -41.5 -56s-31.667 -26.5 -50 -34.5s-39.166 -12 -62.499 -12c-18.667 0 -35.167 1.83301 -49.5 5.5s-28.5 9.83398 -42.5 18.501l22 75
c10.667 -5.33301 20.334 -9 29.001 -11s17.667 -3 27 -3c20.667 0 39.667 5.16699 57 15.5s31.333 31.166 42 62.499l-290 618h107z" />
    <glyph glyph-name="afii10038" unicode="&#x424;" horiz-adv-x="838" 
d="M466 663v-92c24.667 4 51 6 79 6c40.667 0 76.834 -6.33301 108.501 -19s58.167 -30 79.5 -52s37.5 -48 48.5 -78s16.5 -62.333 16.5 -97s-5.5 -67 -16.5 -97s-27.167 -56.167 -48.5 -78.5s-47.833 -39.833 -79.5 -52.5s-67.834 -19 -108.501 -19c-28 0 -54.333 2 -79 6
v-90h-94v90c-25.333 -4 -51.666 -6 -78.999 -6c-41.333 0 -77.666 6.33301 -108.999 19s-57.666 30.167 -78.999 52.5s-37.5 48.5 -48.5 78.5s-16.5 62.333 -16.5 97s5.5 67 16.5 97s27.167 56 48.5 78s47.666 39.333 78.999 52s67.666 19 108.999 19
c27.333 0 53.666 -2 78.999 -6v92h94zM372 494c-13.333 2.66699 -26.833 4.33203 -40.5 4.99902s-27.167 1 -40.5 1c-50 0 -88.667 -14.5 -116 -43.5s-41 -70.833 -41 -125.5s13.667 -96.5 41 -125.5s66 -43.5 116 -43.5c13.333 0 26.833 0.333008 40.5 1
s27.167 2.33398 40.5 5.00098v326zM466 167.998c13.333 -2.66699 26.833 -4.33203 40.5 -4.99902s27.167 -1 40.5 -1c50 0 88.667 14.5 116 43.5s41 70.833 41 125.5s-13.667 96.5 -41 125.5s-66 43.5 -116 43.5c-13.333 0 -26.833 -0.333008 -40.5 -1
s-27.167 -2.33398 -40.5 -5.00098v-326z" />
    <glyph glyph-name="afii10039" unicode="&#x425;" horiz-adv-x="682" 
d="M162 650l178 -257l182 257h107l-226 -307l254 -343h-115l-205 289l-204 -289h-108l249 343l-226 307h114z" />
    <glyph glyph-name="afii10040" unicode="&#x426;" horiz-adv-x="693" 
d="M160 650v-573h335v573h95v-573h73l-8 -218h-75l-12 141h-503v650h95z" />
    <glyph glyph-name="afii10041" unicode="&#x427;" horiz-adv-x="626" 
d="M465 0v206.001c-48 -6 -93 -9 -135 -9c-43.333 0 -82.166 5 -116.499 15s-63.666 25.333 -87.999 46s-43 47.167 -56 79.5s-19.5 70.833 -19.5 115.5v197h96v-189c0 -30.667 3.83301 -57.334 11.5 -80.001s20.167 -41.5 37.5 -56.5s40.166 -26.167 68.499 -33.5
s63.5 -11 105.5 -11c16 0 32.167 0.333008 48.5 1s32.166 1.66699 47.499 3v366h96v-650h-96z" />
    <glyph glyph-name="afii10042" unicode="&#x428;" horiz-adv-x="921" 
d="M65 650h95v-573h253v573h95v-573h253v573h95v-650h-791v650z" />
    <glyph glyph-name="afii10043" unicode="&#x429;" horiz-adv-x="959" 
d="M65 650h95v-574h253v574h95v-574h253v574h95v-574h73l-9 -217h-75l-12 141h-768v650z" />
    <glyph glyph-name="afii10044" unicode="&#x42a;" horiz-adv-x="681" 
d="M240 650l-0.000976562 -243.001h157c36 0 68.833 -4.16699 98.5 -12.5s55.334 -21 77.001 -38s38.5 -38.167 50.5 -63.5s18 -55 18 -89c0 -33.333 -6 -62.666 -18 -87.999s-28.667 -46.5 -50 -63.5s-47 -30 -77 -39s-63 -13.5 -99 -13.5h-252v570l-130 8v72h225z
M239.999 77.999h152.999c22 0 42.333 2.16699 61 6.5s34.834 11.5 48.501 21.5s24.334 23 32.001 39s11.5 35.667 11.5 59s-3.83301 43 -11.5 59s-18.334 28.833 -32.001 38.5s-30 16.667 -49 21s-39.833 6.5 -62.5 6.5h-151v-251z" />
    <glyph glyph-name="afii10045" unicode="&#x42b;" horiz-adv-x="782" 
d="M622 650h95v-650h-95v650zM160 650l-0.000976562 -243.001h157c36 0 68.833 -4.16699 98.5 -12.5s55.334 -21 77.001 -38s38.5 -38.167 50.5 -63.5s18 -55 18 -89c0 -33.333 -6 -62.666 -18 -87.999s-28.667 -46.5 -50 -63.5s-47 -30 -77 -39s-63 -13.5 -99 -13.5h-252
v650h95zM159.999 77.999h152.999c22 0 42.333 2.16699 61 6.5s34.834 11.5 48.501 21.5s24.5 23 32.5 39s12 35.667 12 59s-3.83301 43 -11.5 59s-18.5 28.833 -32.5 38.5s-30.5 16.667 -49.5 21s-39.833 6.5 -62.5 6.5h-151v-251z" />
    <glyph glyph-name="afii10046" unicode="&#x42c;" horiz-adv-x="601" 
d="M160 650l-0.000976562 -243.001h157c36 0 68.833 -4.16699 98.5 -12.5s55.334 -21 77.001 -38s38.5 -38.167 50.5 -63.5s18 -55 18 -89c0 -33.333 -6 -62.666 -18 -87.999s-28.667 -46.5 -50 -63.5s-47 -30 -77 -39s-63 -13.5 -99 -13.5h-252v650h95zM159.999 77.999
h152.999c22 0 42.333 2.16699 61 6.5s34.834 11.5 48.501 21.5s24.334 23 32.001 39s11.5 35.667 11.5 59s-3.83301 43 -11.5 59s-18.334 28.833 -32.001 38.5s-30 16.667 -49 21s-39.833 6.5 -62.5 6.5h-151v-251z" />
    <glyph glyph-name="afii10047" unicode="&#x42d;" horiz-adv-x="664" 
d="M527 380c-5.33301 30 -14.502 57.665 -27.502 82.998s-29.833 47 -50.5 65s-44.667 32 -72 42s-58 15 -92 15c-36 0 -70.833 -5.33301 -104.5 -16s-66.5 -27.667 -98.5 -51l-38 73c34 25.333 70.5 43.666 109.5 54.999s82.833 17 131.5 17c47.333 0 91.833 -8 133.5 -24
s77.834 -38.667 108.501 -68s54.834 -64.666 72.501 -105.999s26.5 -87.666 26.5 -138.999c0 -55.333 -9.33301 -104.166 -28 -146.499s-43.5 -77.833 -74.5 -106.5s-66.667 -50.167 -107 -64.5s-82.166 -21.5 -125.499 -21.5c-51.333 0 -96 5 -134 15
s-74.667 26.667 -110 50l24 82c17.333 -12 34.166 -22 50.499 -30s32.666 -14.5 48.999 -19.5s33.5 -8.5 51.5 -10.5s37.667 -3 59 -3c34 0 65.5 4.83301 94.5 14.5s54.5 24.167 76.5 43.5s39.833 43.5 53.5 72.5s21.834 62.5 24.501 100.5h-324v78h321z" />
    <glyph glyph-name="afii10048" unicode="&#x42e;" horiz-adv-x="964" 
d="M160 650l0.000976562 -269.001h107c6 42 18 80.333 36 115s41.167 64.334 69.5 89.001s61.333 43.834 99 57.501s78.5 20.5 122.5 20.5c48.667 0 93.334 -8.16699 134.001 -24.5s75.5 -39.5 104.5 -69.5s51.5 -65.667 67.5 -107s24 -87 24 -137s-8 -95.667 -24 -137
s-38.5 -77 -67.5 -107s-63.833 -53.167 -104.5 -69.5s-85.334 -24.5 -134.001 -24.5c-47.333 0 -90.666 7.66699 -129.999 23s-73.333 36.666 -102 63.999s-51.334 60.333 -68.001 99s-26.334 81.667 -29.001 129h-105v-302h-95v650h95zM360.001 324.999
c0 -41.333 5.66699 -78 17 -110s27.333 -59 48 -81s45.334 -38.833 74.001 -50.5s60.334 -17.5 95.001 -17.5s66.334 5.83301 95.001 17.5s53.334 28.5 74.001 50.5s36.667 49 48 81s17 68.667 17 110s-5.66699 78 -17 110s-27.333 59 -48 81s-45.334 38.833 -74.001 50.5
s-60.334 17.5 -95.001 17.5s-66.334 -5.83301 -95.001 -17.5s-53.334 -28.5 -74.001 -50.5s-36.667 -49 -48 -81s-17 -68.667 -17 -110z" />
    <glyph glyph-name="afii10049" unicode="&#x42f;" horiz-adv-x="625" 
d="M560 0h-95v257h-150l-172 -257h-110l189 268c-48 12 -86.333 33.667 -115 65s-43 71.333 -43 120c0 30.667 6 58.167 18 82.5s28.667 45 50 62s47 30 77 39s63 13.5 99 13.5h252v-650zM312 572c-22 0 -42.332 -2.00098 -60.999 -6.00098s-34.834 -10.833 -48.501 -20.5
s-24.334 -22 -32.001 -37s-11.5 -33.5 -11.5 -55.5c0 -21.333 3.83301 -39.5 11.5 -54.5s18.334 -27.167 32.001 -36.5s30 -16.166 49 -20.499s39.833 -6.5 62.5 -6.5h151v237h-153z" />
    <glyph glyph-name="afii10065" unicode="&#x430;" horiz-adv-x="642" 
d="M375 560l242 -560h-94l-71 162h-266l-69 -162h-92l244 560h106zM217 239h204l-98 244h-6z" />
    <glyph glyph-name="afii10066" unicode="&#x431;" horiz-adv-x="535" 
d="M439 560l-0.000976562 -74h-283v-134h110c34 0 64.667 -3.83301 92 -11.5s50.833 -19 70.5 -34s34.834 -33.5 45.501 -55.5s16 -47.333 16 -76c0 -28 -5.5 -52.833 -16.5 -74.5s-26.333 -40 -46 -55s-43 -26.333 -70 -34s-56.5 -11.5 -88.5 -11.5h-204v560h374z
M155.999 75h101.999c50.667 0 86.834 7.33301 108.501 22s32.5 40.667 32.5 78c0 40 -12.5 67.167 -37.5 81.5s-60.5 21.5 -106.5 21.5h-99v-203z" />
    <glyph glyph-name="afii10067" unicode="&#x432;" horiz-adv-x="526" 
d="M281 560c22.667 0 44.665 -3.33203 65.998 -9.99902s40 -16.334 56 -29.001s28.833 -28.334 38.5 -47.001s14.5 -40 14.5 -64c0 -21.333 -5.33301 -41.666 -16 -60.999s-26 -34.333 -46 -45v-4c30 -10.667 52.833 -28.5 68.5 -53.5s23.5 -52.833 23.5 -83.5
c0 -26 -5.16699 -49 -15.5 -69s-24.166 -37 -41.499 -51s-37.166 -24.667 -59.499 -32s-45.833 -11 -70.5 -11h-234v560h216zM154.998 72.001h120.999c18 0 34.5 1.33301 49.5 4s27.833 7.5 38.5 14.5s18.834 16.333 24.501 28s8.5 26.167 8.5 43.5
c0 28 -8.5 50.5 -25.5 67.5s-41.5 25.5 -73.5 25.5h-143v-183zM154.997 325.001l115 0.000976562c12 0 23.833 1.33301 35.5 4s22 7 31 13s16.167 14.167 21.5 24.5s8 23.166 8 38.499c0 54.667 -35.333 82 -106 82h-105v-162z" />
    <glyph glyph-name="afii10068" unicode="&#x433;" horiz-adv-x="451" 
d="M426 560v-76h-270v-484h-91v560h361z" />
    <glyph glyph-name="afii10069" unicode="&#x434;" horiz-adv-x="679" 
d="M574 560v-485.001h65l-7 -207h-69l-9 132h-431l-13 -132h-70v205c26 5.33301 47 18 63 38s29 43.333 39 70c10 27.333 17.833 57.833 23.5 91.5s8.5 69.834 8.5 108.501v179h400zM264 389.999c0 -42 -2.66797 -80.832 -8.00098 -116.499s-12.666 -67.834 -21.999 -96.501
c-7.33301 -22 -16 -41.5 -26 -58.5s-21.333 -31.5 -34 -43.5h308v411h-218v-96z" />
    <glyph glyph-name="afii10070" unicode="&#x435;" horiz-adv-x="508" 
d="M65 560h381v-74h-290v-155h265v-74h-265v-182h302v-75h-393v560z" />
    <glyph glyph-name="afii10072" unicode="&#x436;" horiz-adv-x="848" 
d="M469 560l0.00292969 -210h88l81 152c13.333 25.333 30.166 42.666 50.499 51.999s42.833 14 67.5 14c19.333 0 39.666 -3 60.999 -9l-14 -73c-4 1.33301 -8.5 2.33301 -13.5 3s-10.167 1 -15.5 1c-15.333 0 -28 -2 -38 -6s-19.667 -14.667 -29 -32l-79 -137l205 -315
h-103l-174 276h-87v-276h-90v276h-87l-174 -276h-103l205 315l-80 137c-10 17.333 -19.833 28 -29.5 32s-22.167 6 -37.5 6c-5.33301 0 -10.5 -0.333008 -15.5 -1s-9.5 -1.66699 -13.5 -3l-14 73c20.667 6 41 9 61 9c24.667 0 47.167 -4.66699 67.5 -14
s37.166 -26.666 50.499 -51.999l82 -152h88v210h90z" />
    <glyph glyph-name="afii10073" unicode="&#x437;" horiz-adv-x="518" 
d="M252 334c33.333 0 58.9971 7.83398 76.9971 23.501s27 36.167 27 61.5c0 20.667 -9.16699 39.167 -27.5 55.5s-46.833 24.5 -85.5 24.5c-28.667 0 -54.167 -4 -76.5 -12s-46.166 -20.667 -71.499 -38l-36 61c28.667 21.333 57.334 36.666 86.001 45.999s62 14 100 14
c62 0 111 -13.5 147 -40.5s54 -62.5 54 -106.5c0 -24.667 -6.16699 -46.667 -18.5 -66s-30.166 -34.333 -53.499 -45v-4c32 -10 56.5 -27 73.5 -51s25.5 -52.667 25.5 -86c0 -28 -5.66699 -53.167 -17 -75.5s-27 -41.333 -47 -57s-43.833 -27.667 -71.5 -36
s-58.167 -12.5 -91.5 -12.5c-44.667 0 -83.334 4.33301 -116.001 13s-64 24 -94 46l32 70c30 -19.333 57.833 -33.166 83.5 -41.499s54.834 -12.5 87.501 -12.5c20.667 0 39.667 1.83301 57 5.5s32.333 9.5 45 17.5s22.5 18.667 29.5 32s10.5 29.666 10.5 48.999
c0 63.333 -39.333 95 -118 95h-108v70h97z" />
    <glyph glyph-name="afii10074" unicode="&#x438;" horiz-adv-x="640" 
d="M155 560v-425l337 425h83v-560h-90v424l-337 -424h-83v560h90z" />
    <glyph glyph-name="afii10075" unicode="&#x439;" horiz-adv-x="640" 
d="M155 560v-425l337 425h83v-560h-90v424l-337 -424h-83v560h90zM224 750c9.33301 -19.333 22.5 -34.001 39.5 -44.001s35.833 -15 56.5 -15c45.333 0 77.666 19.667 96.999 59l60 -27c-11.333 -35.333 -30.833 -61.666 -58.5 -78.999s-60.5 -26 -98.5 -26
c-37.333 0 -70.166 9 -98.499 27s-47.5 44 -57.5 78z" />
    <glyph glyph-name="afii10076" unicode="&#x43a;" horiz-adv-x="569" 
d="M156 560l-0.00585938 -206h101l94 144c14.667 22.667 32.834 40 54.501 52s44.834 18 69.501 18c10.667 0 20.834 -0.5 30.501 -1.5s19.834 -3.16699 30.501 -6.5l-16 -74c-4.66699 1.33301 -9.5 2.33301 -14.5 3s-10.167 1 -15.5 1c-15.333 0 -28.166 -3 -38.499 -9
s-21.166 -17 -32.499 -33l-87 -129l227 -319h-107l-196 280h-100v-280h-91v560h91z" />
    <glyph glyph-name="afii10077" unicode="&#x43b;" horiz-adv-x="662" 
d="M597 560l-0.000976562 -560.001h-91v486h-227v-118c0 -64.667 -4.66699 -121 -14 -169s-21.666 -87.333 -36.999 -118s-35.833 -53.167 -61.5 -67.5s-53.834 -21.5 -84.501 -21.5c-14 0 -26.5 0.833008 -37.5 2.5s-21.5 4.83398 -31.5 9.50098l12 76
c16.667 -6 32.667 -9 48 -9c16 0 30.167 3.5 42.5 10.5s22.833 19.5 31.5 37.5c12.667 26.667 22.834 62.667 30.501 108s11.5 104 11.5 176v157h408z" />
    <glyph glyph-name="afii10078" unicode="&#x43c;" horiz-adv-x="712" 
d="M171 560l185 -259l187 259h103v-560h-89v437h-5l-180 -249h-34l-180 249h-5v-437h-88v560h106z" />
    <glyph glyph-name="afii10079" unicode="&#x43d;" horiz-adv-x="623" 
d="M156 560v-230h311v230h91v-560h-91v254h-311v-254h-91v560h91z" />
    <glyph glyph-name="afii10080" unicode="&#x43e;" horiz-adv-x="681" 
d="M641 280c0 -43.333 -7.66602 -82.666 -22.999 -117.999s-36.5 -65.833 -63.5 -91.5s-58.833 -45.5 -95.5 -59.5s-76.334 -21 -119.001 -21s-82.334 7 -119.001 21s-68.334 33.833 -95.001 59.5s-47.667 56.167 -63 91.5s-23 74.666 -23 117.999
c0 42.667 7.66699 81.834 23 117.501s36.333 66.334 63 92.001s58.334 45.5 95.001 59.5s76.334 21 119.001 21c43.333 0 83.333 -7 120 -21s68.5 -33.833 95.5 -59.5s48 -56.334 63 -92.001s22.5 -74.834 22.5 -117.501zM132.001 280c0 -34.667 5.5 -65.1689 16.5 -91.502
s26 -48.5 45 -66.5s41.167 -31.5 66.5 -40.5s52 -13.5 80 -13.5c28.667 0 55.5 4.33301 80.5 13s47 21.834 66 39.501s34 39.834 45 66.501s16.5 57.667 16.5 93s-5.5 66.333 -16.5 93s-26 48.834 -45 66.501s-41 30.834 -66 39.501s-51.833 13 -80.5 13
c-28 0 -54.667 -4.33301 -80 -13s-47.5 -21.834 -66.5 -39.501s-34 -39.834 -45 -66.501s-16.5 -57.667 -16.5 -93z" />
    <glyph glyph-name="afii10081" unicode="&#x43f;" horiz-adv-x="625" 
d="M560 560v-560h-91v484h-313v-484h-91v560h495z" />
    <glyph glyph-name="afii10082" unicode="&#x440;" horiz-adv-x="543" 
d="M298 560c30.667 0 58.667 -4.33203 84 -12.999s47 -20.834 65 -36.501s31.833 -34.167 41.5 -55.5s14.5 -45 14.5 -71c0 -29.333 -5.33301 -55.333 -16 -78s-25.5 -41.667 -44.5 -57s-41.333 -26.833 -67 -34.5s-53.5 -11.5 -83.5 -11.5h-137v-203h-90v560h233z
M155 278.001h130c40 0 71 7.83301 93 23.5s33 43.167 33 82.5c0 36.667 -10.833 62.667 -32.5 78s-56.5 23 -104.5 23h-119v-207z" />
    <glyph glyph-name="afii10083" unicode="&#x441;" horiz-adv-x="582" 
d="M497 437c-24 20.667 -49.5039 34.998 -76.5039 42.998s-55.833 12 -86.5 12c-33.333 0 -63 -5.16699 -89 -15.5s-47.667 -24.833 -65 -43.5s-30.5 -41 -39.5 -67s-13.5 -54.333 -13.5 -85c0 -33.333 5.33301 -63 16 -89s25.334 -48 44.001 -66s40.834 -31.667 66.501 -41
s53.5 -14 83.5 -14c34 0 65 3.83301 93 11.5s55.333 21.167 82 40.5l25 -77c-30.667 -21.333 -62.334 -36 -95.001 -44s-70.667 -12 -114 -12c-37.333 0 -73.666 5.83301 -108.999 17.5s-66.666 29.334 -93.999 53.001s-49.166 53.834 -65.499 90.501s-24.5 80 -24.5 130
c0 43.333 8 82.833 24 118.5s37.667 66.167 65 91.5s59.5 44.833 96.5 58.5s76.167 20.5 117.5 20.5c42 0 78.167 -5 108.5 -15s60.5 -25.667 90.5 -47z" />
    <glyph glyph-name="afii10084" unicode="&#x442;" horiz-adv-x="496" 
d="M466 560v-75h-172v-485h-92v485h-172v75h436z" />
    <glyph glyph-name="afii10085" unicode="&#x443;" horiz-adv-x="629" 
d="M128 560l202.997 -444h5l171 444h97l-218 -532c-21.333 -52 -44.666 -90.833 -69.999 -116.5s-58.666 -38.5 -99.999 -38.5c-15.333 0 -28.666 1.66699 -39.999 5s-22 8.66602 -32 15.999l10 74c9.33301 -6 18.333 -10.167 27 -12.5s17 -3.5 25 -3.5
c19.333 0 35.833 4.33301 49.5 13s25.167 26.334 34.5 53.001l-265 542h103z" />
    <glyph glyph-name="afii10086" unicode="&#x444;" horiz-adv-x="775" 
d="M433 570l0.00195312 -71c11.333 2.66699 23.333 4.5 36 5.5s25.667 1.5 39 1.5c35.333 0 67 -6 95 -18s51.833 -28 71.5 -48s34.667 -43.333 45 -70s15.5 -55 15.5 -85s-5.16699 -58.5 -15.5 -85.5s-25.333 -50.5 -45 -70.5s-43.5 -36 -71.5 -48s-59.667 -18 -95 -18
c-14 0 -27.333 0.833008 -40 2.5s-24.334 4.16699 -35.001 7.5v-73h-90v73c-11.333 -3.33301 -23 -5.83301 -35 -7.5s-25.667 -2.5 -41 -2.5c-35.333 0 -67 6 -95 18s-51.833 28 -71.5 48s-34.667 43.5 -45 70.5s-15.5 55.5 -15.5 85.5s5.16699 58.333 15.5 85
s25.333 50 45 70s43.5 36 71.5 48s59.667 18 95 18c14.667 0 28.167 -0.666992 40.5 -2s24.166 -3 35.499 -5v71h90zM343.002 426c-21.333 4.66699 -47.001 6.99902 -77.001 6.99902c-43.333 0 -76.833 -13 -100.5 -39s-35.5 -62.333 -35.5 -109
c0 -47.333 11.833 -83.666 35.5 -108.999s57.167 -38 100.5 -38c16.667 0 30.834 0.5 42.501 1.5s23.167 3.16699 34.5 6.5v280zM433.001 145.999c11.333 -3.33301 22.832 -5.49902 34.499 -6.49902s25.834 -1.5 42.501 -1.5c42.667 0 75.834 12.667 99.501 38
s35.5 61.666 35.5 108.999c0 46.667 -11.833 83 -35.5 109s-56.834 39 -99.501 39c-14 0 -27.667 -0.5 -41 -1.5s-25.333 -2.83301 -36 -5.5v-280z" />
    <glyph glyph-name="afii10087" unicode="&#x445;" horiz-adv-x="623" 
d="M149 560l164 -222l160 222h109l-209 -270l225 -290h-113l-175 241l-176 -241h-109l224 288l-210 272h110z" />
    <glyph glyph-name="afii10088" unicode="&#x446;" horiz-adv-x="626" 
d="M65 560h90v-485h299v485h90v-485h57l-8 -207h-73l-8 132h-447v560z" />
    <glyph glyph-name="afii10089" unicode="&#x447;" horiz-adv-x="575" 
d="M419 0v176.001c-22.667 -4 -43 -6.83301 -61 -8.5s-39 -2.5 -63 -2.5c-32 0 -62.833 4 -92.5 12s-55.667 21.333 -78 40s-40.333 43.5 -54 74.5s-20.5 69.5 -20.5 115.5v153h90v-152c0 -28 3.16699 -52.5 9.5 -73.5s16.833 -38.5 31.5 -52.5s34 -24.5 58 -31.5
s54 -10.5 90 -10.5c17.333 0 32.833 0.666992 46.5 2s28.167 3.66602 43.5 6.99902v311h91v-560h-91z" />
    <glyph glyph-name="afii10090" unicode="&#x448;" horiz-adv-x="850" 
d="M155 560v-485h225v485h90v-485h225v485h90v-560h-720v560h90z" />
    <glyph glyph-name="afii10091" unicode="&#x449;" horiz-adv-x="861" 
d="M155 560v-485h222v485h90v-485h222v485h90v-485h57l-8 -207h-73l-8 132h-682v560h90z" />
    <glyph glyph-name="afii10092" unicode="&#x44a;" horiz-adv-x="618" 
d="M227 560v-209.002h156c25.333 0 49.833 -3.83301 73.5 -11.5s44.5 -19 62.5 -34s32.333 -33.5 43 -55.5s16 -47 16 -75c0 -27.333 -5.66699 -51.666 -17 -72.999s-26.166 -39.666 -44.499 -54.999s-39.333 -27 -63 -35s-47.834 -12 -72.501 -12h-245v485l-111 4v71h202z
M227 74.998l134.002 -0.00195312c18 0 34.833 1.83301 50.5 5.5s29.167 9.5 40.5 17.5s20.166 18.333 26.499 31s9.5 28.334 9.5 47.001c0 20 -3.5 36.5 -10.5 49.5s-16.5 23.333 -28.5 31s-25.833 12.834 -41.5 15.501s-31.834 4 -48.501 4h-132v-201z" />
    <glyph glyph-name="afii10093" unicode="&#x44b;" horiz-adv-x="731" 
d="M575 560h91v-560h-91v560zM156 560v-209.002h160c25.333 0 49.833 -3.83301 73.5 -11.5s44.5 -19 62.5 -34s32.333 -33.5 43 -55.5s16 -47 16 -75c0 -27.333 -5.66699 -51.666 -17 -72.999s-26.166 -39.666 -44.499 -54.999s-39.333 -27 -63 -35s-47.834 -12 -72.501 -12
h-249v560h91zM156 74.998l137.998 -0.00195312c17.333 0 33.666 1.83301 48.999 5.5s28.833 9.5 40.5 17.5s20.834 18.333 27.501 31s10 28.334 10 47.001c0 20 -3.66699 36.5 -11 49.5s-17.166 23.333 -29.499 31s-26.166 12.834 -41.499 15.501s-31 4 -47 4h-136v-201z
" />
    </font>
</defs>
</svg>
